<?xml version="1.0" encoding="UTF-8" standalone="no"?>
<!-- Created with Inkscape (http://www.inkscape.org/) -->

<svg
   version="1.1"
   id="svg2"
   width="4000"
   height="2666.6667"
   viewBox="0 0 4000 2666.6667"
   sodipodi:docname="13015.eps"
   xmlns:inkscape="http://www.inkscape.org/namespaces/inkscape"
   xmlns:sodipodi="http://sodipodi.sourceforge.net/DTD/sodipodi-0.dtd"
   xmlns="http://www.w3.org/2000/svg"
   xmlns:svg="http://www.w3.org/2000/svg">
  <defs
     id="defs6" />
  <sodipodi:namedview
     id="namedview4"
     pagecolor="#ffffff"
     bordercolor="#000000"
     borderopacity="0.25"
     inkscape:showpageshadow="2"
     inkscape:pageopacity="0.0"
     inkscape:pagecheckerboard="0"
     inkscape:deskcolor="#d1d1d1" />
  <g
     id="g8"
     inkscape:groupmode="layer"
     inkscape:label="ink_ext_XXXXXX"
     transform="matrix(1.3333333,0,0,-1.3333333,0,2666.6667)">
    <g
       id="g10"
       transform="scale(0.1)">
      <path
         d="M 30000,0 H 0 V 20000 H 30000 V 0"
         style="fill:#ffffff;fill-opacity:1;fill-rule:nonzero;stroke:none"
         id="path12" />
      <path
         d="m 4454.89,2796.5 c 0,0 -2172.13,2777.5 -1548.73,6742.7 568.95,3618.9 5133.96,5886.3 7697.34,4182.1 1240.1,-824.4 2341.5,2105.7 6457.1,3318.7 3043.4,897 9043.3,-619.1 7900.3,-6779.8 -869,-4683.9 3039.3,-2289.2 2097.9,-7463.7 H 4454.89"
         style="fill:#ebf3fa;fill-opacity:1;fill-rule:nonzero;stroke:none"
         id="path14" />
      <path
         d="m 12393.2,3893.9 c 0,0 25.3,196.9 83.9,314 58.5,117.1 431.1,42.6 431.1,42.6 0,0 74.5,-63.9 90.5,-362 l -605.5,5.4"
         style="fill:#233862;fill-opacity:1;fill-rule:nonzero;stroke:none"
         id="path16" />
      <path
         d="m 11123.7,3896.5 c 87.6,53.5 37.8,452.1 37.8,452.1 0,0 -408,326.4 -464.1,76.5 -56.1,-249.8 -387.6,-362 -576.2,-392.6 -130.29,-21.2 -170.62,-93.3 -183.11,-136 h 1185.61"
         style="fill:#233862;fill-opacity:1;fill-rule:nonzero;stroke:none"
         id="path18" />
      <path
         d="m 11968.8,6796.1 c -16.6,-91.5 -27.2,-166.5 -30,-220.4 -37.9,-739.7 -622.7,-2431.1 -727.3,-2470.6 -161.8,-61.1 -416.7,68.8 -550,111.2 -55.3,17.7 -92.5,73.4 -80.3,129.9 289.6,1331.4 396.1,3248.4 434.8,4383.4 19.6,571.7 117.7,966.6 117.7,966.6 0,0 1426.2,380.6 1434.7,-100.8 7.5,-426 -472.4,-2096.6 -599.6,-2799.3"
         style="fill:#2b478b;fill-opacity:1;fill-rule:nonzero;stroke:none"
         id="path20" />
      <path
         d="M 11968.8,6796.1 11016,8729.6 c 19.6,571.7 117.7,966.6 117.7,966.6 0,0 1426.2,380.6 1434.7,-100.8 7.5,-426 -472.4,-2096.6 -599.6,-2799.3"
         style="fill:#233862;fill-opacity:1;fill-rule:nonzero;stroke:none"
         id="path22" />
      <path
         d="m 11651.4,9593.7 754,-5464.6 c 0,0 331.1,-79.9 588.7,-16 0,0 220.7,2906.3 202.3,3609 -18.4,702.6 158.4,1880.1 -40.4,2009.9 -198.7,129.9 -1504.6,-138.3 -1504.6,-138.3"
         style="fill:#2b478b;fill-opacity:1;fill-rule:nonzero;stroke:none"
         id="path24" />
      <path
         d="m 9196.49,12315.3 c 45.36,-122 33.54,-143 116.06,-178.2 93.53,-39.9 132.56,-96.3 132.56,-96.3 l 75.55,43.9 90.21,52.4 c 0,0 -2.13,10 -6.53,26.4 -4.35,16.2 -11.12,38.8 -20.27,63.9 0,0 -27.7,35.6 -10.73,80.3 16.96,44.6 13.56,113.6 -15.38,155.8 -28.95,42 -101.89,116.4 -119.33,113.3 -42.17,-7.2 53.27,-117.3 35.22,-143.7 -16.32,-23.9 -24.25,-18.9 -28.02,-17.1 -0.26,0.2 -0.47,0.3 -0.72,0.4 -118.38,52.1 -114.08,214.4 -177.65,176.6 -23.73,-14.2 -90.3,-225.7 -70.97,-277.7"
         style="fill:#ffb27d;fill-opacity:1;fill-rule:nonzero;stroke:none"
         id="path26" />
      <path
         d="m 11262.8,12653.3 c -230.9,-384.6 -568.3,-956.7 -734.1,-1103.4 l -945.15,704.7 c 0,0 -137.14,-42 -197.22,-179.7 0,0 573.99,-1169.4 1139.07,-1219 565.2,-49.6 1358.4,1401.7 1358.4,1401.7 l -190.4,374.1 c -84.6,166.1 -334.7,181.4 -430.6,21.6"
         style="fill:#d86713;fill-opacity:1;fill-rule:nonzero;stroke:none"
         id="path28" />
      <path
         d="m 13259.5,9957.5 c -0.5,6.2 -0.9,12.3 -1.4,18.4 -1.4,18.3 -2.8,36.6 -4.2,54.7 -0.4,5.3 -0.8,10.6 -1.2,15.9 -3.4,46.3 -6.4,92.1 -9.3,137.3 -0.3,5 -0.6,10 -0.9,15.1 -1.1,18.8 -2.2,37.3 -3.3,55.9 -0.2,4 -0.4,8.1 -0.7,12.1 -1.2,22.7 -2.4,45.2 -3.6,67.6 -0.1,0.4 -0.1,0.9 -0.1,1.3 -1.1,21.4 -2.1,42.5 -3.1,63.5 -0.2,4.9 -0.5,9.8 -0.7,14.6 -0.9,18.1 -1.7,36.1 -2.5,53.9 -0.1,3.7 -0.3,7.4 -0.4,11 -1,21.3 -1.9,42.5 -2.7,63.5 -0.2,2.9 -0.2,5.7 -0.4,8.6 -0.7,17.7 -1.4,35.4 -2.1,52.9 -0.2,6.1 -0.4,12.1 -0.7,18.2 -0.5,15 -1,29.9 -1.7,44.7 -0.1,5.7 -0.3,11.4 -0.6,17 -0.6,18 -1.2,36 -1.8,53.8 -0.6,13.7 -1,27.3 -1.5,40.8 -0.1,2.8 -0.1,5.8 -0.3,8.7 -2.4,70.8 -4.7,139.6 -7.1,206.7 -0.1,1 -0.1,2 -0.2,3 -1.4,39.3 -2.9,78.1 -4.5,116.2 -0.1,2.3 -0.2,4.6 -0.3,6.9 -0.6,15.7 -1.3,31.2 -2.1,46.6 -0.1,4.1 -0.3,8.1 -0.5,12.2 -0.8,16.4 -1.6,32.8 -2.4,49 -0.1,1.4 -0.2,2.7 -0.2,4.1 -0.1,1.6 -0.2,3.2 -0.3,4.8 6.2,7.1 13.2,15.1 15.9,18.3 326.3,393.7 470.5,1199.8 338.8,1387.9 -215,307.2 -900.6,423.7 -900.6,423.7 0,-102.5 -200.5,-228.3 -384.7,-242.6 -0.3,0 -11.1,155 -11.4,155 -167.5,-15.3 -366.2,-71.2 -366.2,-71.2 l -138,202.8 c 0,0 -2.1,25.6 -281.4,-66.8 l 70.4,-196.8 c -199.1,-69.4 -362.7,-66.5 -357.9,-805.2 2.6,-395.5 -5.4,-728.9 -12.7,-1009.6 -8,-311.8 -19.2,-558.6 -30.8,-753.3 -34.3,-574.7 -72.3,-695.6 -47.4,-695.1 0,0 218.6,-199.1 796.2,-195.4 363.1,2.2 658.6,42.6 878.3,88.2 295.4,61.2 453.3,132 453.3,132 63.4,1 50.1,218.9 44.9,278.8 -2.1,23.6 -4,47 -5.9,70.3"
         style="fill:#d86713;fill-opacity:1;fill-rule:nonzero;stroke:none"
         id="path30" />
      <path
         d="m 11927.3,13133.8 -1.7,-222.2 c -0.2,-30.4 19.9,-57 49.1,-65.3 36.5,-10.4 99.2,-23.6 206.3,-37.1 272.4,-34.1 479.2,86.4 471.8,257.2 -24.6,132.3 -51.5,223.1 -53.4,332.6 -0.6,40.7 2.1,83.8 9.7,132.6 l -528.2,10.5 -155.6,-25.4 2,-382.9"
         style="fill:#ffb27d;fill-opacity:1;fill-rule:nonzero;stroke:none"
         id="path32" />
      <path
         d="m 11925.3,13516.7 2,-382.9 c 56.1,-26.1 119.4,-42.1 190.4,-42.1 242.8,0 399.7,178.1 481.7,307.3 -0.6,40.7 2.1,83.8 9.7,132.6 l -528.2,10.5 -155.6,-25.4"
         style="fill:#e2915a;fill-opacity:1;fill-rule:nonzero;stroke:none"
         id="path34" />
      <path
         d="m 12649.6,13616.6 c -61.3,-329.9 -486.9,-319.1 -670.9,-298.3 -51.7,5.7 -84.3,12.3 -84.3,12.3 -58.4,15.6 -90.9,107.6 -106.1,228 -30,238.3 8,588.1 48.2,677.6 60.6,134.6 174.7,280.3 603.4,175.2 428.7,-105.1 288.4,-372.2 209.7,-794.8"
         style="fill:#ffb27d;fill-opacity:1;fill-rule:nonzero;stroke:none"
         id="path36" />
      <path
         d="m 13200.6,11238.3 c 0,0 0,0 0,-0.1 0.1,-0.6 0.1,-0.4 0,0.1"
         style="fill:#d86713;fill-opacity:1;fill-rule:nonzero;stroke:none"
         id="path38" />
      <path
         d="m 11236,12881.4 v 0 c -12,9 -14.4,26 -5.5,38 l 64,85.4 43.4,-32.5 -63.9,-85.4 c -9,-12 -26,-14.4 -38,-5.5"
         style="fill:#233862;fill-opacity:1;fill-rule:nonzero;stroke:none"
         id="path40" />
      <path
         d="m 11277.6,12932.4 v 0 c -25.1,18.8 -30.9,54 -13.1,79.8 l 364.9,529.3 133.7,-100.1 -405.3,-499.1 c -19.8,-24.3 -55.2,-28.6 -80.2,-9.9"
         style="fill:#2b478b;fill-opacity:1;fill-rule:nonzero;stroke:none"
         id="path42" />
      <path
         d="m 11880.3,13478.8 c -51,-68.1 -147.5,-82 -215.6,-31 -68,51 -81.9,147.5 -30.9,215.5 51,68.1 147.5,82 215.5,31 68.1,-51 81.9,-147.5 31,-215.5"
         style="fill:#233862;fill-opacity:1;fill-rule:nonzero;stroke:none"
         id="path44" />
      <path
         d="m 11737.8,13093.6 c 0,0 -61.3,496.3 -223.8,405.5 -162.5,-90.8 -152.9,-236.4 -148.8,-289.5 4,-53.1 149.5,-205.4 149.5,-205.4 l 223.1,89.4"
         style="fill:#ffb27d;fill-opacity:1;fill-rule:nonzero;stroke:none"
         id="path46" />
      <path
         d="m 11705,14550.2 c 0,0 188.6,14.5 411.2,111.3 180.6,78.5 408.5,-8 482.4,-47 -2,12 -6.7,28.2 -18,44.5 0,0 33.2,-23.5 38.1,-56.4 3.4,-2.5 4.9,-4.3 4.1,-4.9 0,0 37.6,6.9 61.8,-4 0,0 -16.9,2.5 -23,-8.4 -0.6,-1.2 -1.6,-2.2 -2.7,-3 281.7,-136.2 307.8,-581.4 217.1,-684.5 -109.1,-123.9 -239.9,-403.1 -239.9,-403.1 0,0 -47.7,66 -27.8,175.1 19.8,109 -74.4,109 -193.4,158.6 -119,49.6 -19.9,188.4 -124,272.7 -104.1,84.3 -485.9,34.7 -480.9,99.2 -141.7,51.6 -105,335.4 -105,349.9"
         style="fill:#233862;fill-opacity:1;fill-rule:nonzero;stroke:none"
         id="path48" />
      <path
         d="m 12598.8,10980.3 c -77.9,11.6 -153.5,56.1 -225.5,123.3 -398.7,371.4 -744.6,1463.5 -744.6,1463.5 21,-527.2 199.2,-1516.4 818.2,-1795.8 l 0.1,-0.1 c 294.8,47.2 546.2,219.8 751.7,465.3 -116.9,-131.7 -599.9,-256.2 -599.9,-256.2"
         style="fill:#ba550f;fill-opacity:1;fill-rule:nonzero;stroke:none"
         id="path50" />
      <path
         d="m 12941.4,12097.6 c 0,0 -219.1,-537.6 -404.6,-190.5 0,0 102.7,-40.8 404.6,190.5"
         style="fill:#ba550f;fill-opacity:1;fill-rule:nonzero;stroke:none"
         id="path52" />
      <path
         d="m 11471.1,13043.6 c 0,0 130.2,76.4 273.6,81.5 l 106.7,-160.1 -345.6,-18.3 -34.7,96.9"
         style="fill:#d86713;fill-opacity:1;fill-rule:nonzero;stroke:none"
         id="path54" />
      <path
         d="m 11176.3,11247.6 14.5,1058.1 c 0,0 -121.4,-1402.2 -665.4,-1449.8 0,0 237.5,-61.2 650.9,391.7"
         style="fill:#ba550f;fill-opacity:1;fill-rule:nonzero;stroke:none"
         id="path56" />
      <path
         d="m 9806.71,12960.8 1.82,5.7 c 3.28,10.1 -2.28,20.9 -12.39,24.2 -10.12,3.3 -20.98,-2.3 -24.26,-12.4 l -13.98,-43.2 -10.33,3.3 2.28,7.1 c 3.77,11.7 -2.63,24.2 -14.3,28 l -346.72,112.1 c -11.68,3.8 -24.21,-2.6 -27.99,-14.3 l -2.28,-7 -8.45,2.7 13.98,43.2 c 3.27,10.2 -2.27,21 -12.39,24.3 -10.12,3.3 -20.98,-2.3 -24.25,-12.4 l -1.83,-5.6 c -13.75,4.4 -28.5,-3.1 -32.95,-16.9 l -56.85,-175.7 c -4.45,-13.7 3.1,-28.5 16.85,-33 l -1.83,-5.6 c -3.27,-10.1 2.28,-21 12.4,-24.2 10.11,-3.3 20.97,2.2 24.25,12.4 l 13.98,43.2 8.46,-2.8 -2.28,-7 c -3.78,-11.7 2.62,-24.2 14.3,-28 l 132.71,-42.9 -72.26,-223.4 c -24.11,-6.5 -44.55,-24.7 -52.81,-50.2 l -158.06,-488.6 c -13,-40.2 9.05,-83.3 49.25,-96.3 40.2,-13 83.33,9 96.33,49.2 l 158.06,488.6 c 8.26,25.5 2.34,52.2 -13.36,71.6 l 72.26,223.4 134.6,-43.6 c 11.67,-3.7 24.2,2.7 27.98,14.3 l 2.28,7.1 10.33,-3.3 -13.98,-43.3 c -3.27,-10.1 2.27,-20.9 12.4,-24.2 10.11,-3.3 20.97,2.3 24.24,12.4 l 1.83,5.6 c 13.75,-4.4 28.51,3.1 32.95,16.9 l 56.85,175.7 c 4.45,13.7 -3.09,28.5 -16.84,32.9"
         style="fill:#9b5129;fill-opacity:1;fill-rule:nonzero;stroke:none"
         id="path58" />
      <path
         d="m 9443.25,12417.3 c 0,0 -40.57,138.4 -11.95,158.1 28.61,19.7 142.55,-104.8 148.3,-165.9 5.76,-61.1 -91.57,-78.7 -91.57,-78.7 l -44.78,86.5"
         style="fill:#ffb27d;fill-opacity:1;fill-rule:nonzero;stroke:none"
         id="path60" />
      <path
         d="M 8964.65,3888.5 H 8753.37 V 9839 h 211.28 V 3888.5"
         style="fill:#e5bd9e;fill-opacity:1;fill-rule:nonzero;stroke:none"
         id="path62" />
      <path
         d="m 9276.19,3977.5 h -846.1 v 0 c 0,55.6 45.11,100.7 100.75,100.7 h 644.6 c 55.64,0 100.75,-45.1 100.75,-100.7 v 0"
         style="fill:#b27f5d;fill-opacity:1;fill-rule:nonzero;stroke:none"
         id="path64" />
      <path
         d="M 9760.99,3888.5 H 7945.3 c -33.43,0 -60.52,27.1 -60.52,60.6 v 0 c 0,33.4 27.09,60.5 60.52,60.5 h 1815.69 c 33.42,0 60.52,-27.1 60.52,-60.5 v 0 c 0,-33.5 -27.1,-60.6 -60.52,-60.6"
         style="fill:#916140;fill-opacity:1;fill-rule:nonzero;stroke:none"
         id="path66" />
      <path
         d="M 10570.6,9375.5 H 8062.69 l -915.26,941.1 h 2507.91 l 915.26,-941.1"
         style="fill:#c6916d;fill-opacity:1;fill-rule:nonzero;stroke:none"
         id="path68" />
      <path
         d="M 9650.17,10420.5 H 7147.43 v -103.9 H 9696.7 l -46.53,103.9"
         style="fill:#e5bd9e;fill-opacity:1;fill-rule:nonzero;stroke:none"
         id="path70" />
      <path
         d="m 10570.6,9479.4 -920.43,941.1 v -103.9 l 920.43,-941.1 v 103.9"
         style="fill:#9b5129;fill-opacity:1;fill-rule:nonzero;stroke:none"
         id="path72" />
      <path
         d="M 8964.65,8378.2 V 9839 h -211.28 v -803.5 c 0,0 211.28,-252.4 211.28,-657.3"
         style="fill:#9b5129;fill-opacity:1;fill-rule:nonzero;stroke:none"
         id="path74" />
      <path
         d="m 19953.8,3888.5 -17.5,0.1 c -28.8,0.1 -50,26.8 -43.6,54.9 l 2161.5,9470.9 h 305.4 L 19994.4,3920.2 c -4.7,-18.6 -21.5,-31.7 -40.6,-31.7"
         style="fill:#b27d59;fill-opacity:1;fill-rule:nonzero;stroke:none"
         id="path76" />
      <path
         d="m 16089.7,3888.7 h -17.4 c -28.8,0.1 -50.1,26.8 -43.7,54.9 l 2161.6,9470.9 h 305.4 L 16130.3,3920.3 c -4.6,-18.6 -21.4,-31.7 -40.6,-31.6"
         style="fill:#b27d59;fill-opacity:1;fill-rule:nonzero;stroke:none"
         id="path78" />
      <path
         d="m 19627,3931.4 -1402.4,9483 h 347.1 L 19717,3933.1 c 2.9,-22.8 -16.4,-44.3 -39.8,-44.3 h -0.3 c -25.6,0 -46.3,17.6 -49.9,42.6"
         style="fill:#916140;fill-opacity:1;fill-rule:nonzero;stroke:none"
         id="path80" />
      <path
         d="m 18224.6,13414.4 -95.4,-429.8 1440.9,-9029.8 c 6.2,-38.8 38.6,-66 78.5,-66 h 28.6 l -1452.6,9525.6"
         style="fill:#916140;fill-opacity:1;fill-rule:nonzero;stroke:none"
         id="path82" />
      <path
         d="m 23457.8,3931.4 -1360.7,9483 h 305.4 l 1145.3,-9481.3 c 2.9,-22.8 -16.5,-44.3 -39.8,-44.3 h -0.3 c -25.7,0 -46.3,17.6 -49.9,42.6"
         style="fill:#916140;fill-opacity:1;fill-rule:nonzero;stroke:none"
         id="path84" />
      <path
         d="m 22097.1,13414.4 -137.2,-429.8 1440.9,-9029.8 c 6.2,-38.8 38.6,-66 78.6,-66 h 28.6 l -1410.9,9525.6"
         style="fill:#916140;fill-opacity:1;fill-rule:nonzero;stroke:none"
         id="path86" />
      <path
         d="m 22537.6,9819.6 h -3841.8 l 20.5,230.3 h 3841.9 l -20.6,-230.3"
         style="fill:#916140;fill-opacity:1;fill-rule:nonzero;stroke:none"
         id="path88" />
      <path
         d="m 16988.9,7754.5 h -186.7 l 1291.8,5659.9 h 130.6 L 16988.9,7754.5"
         style="fill:#b27f5d;fill-opacity:1;fill-rule:nonzero;stroke:none"
         id="path90" />
      <path
         d="m 21054.1,7754.5 h -4368.2 l 1307.7,5659.9 h 4409.9 L 21054.1,7754.5"
         style="fill:#e5bd9e;fill-opacity:1;fill-rule:nonzero;stroke:none"
         id="path92" />
      <path
         d="m 21080.1,7754.5 h -4616.8 c -25.1,0 -45.4,20.4 -45.4,45.5 v 120.2 c 0,25.1 20.3,45.4 45.4,45.4 h 4616.8 c 25.1,0 45.5,-20.3 45.5,-45.4 V 7800 c 0,-25.1 -20.4,-45.5 -45.5,-45.5"
         style="fill:#b27f5d;fill-opacity:1;fill-rule:nonzero;stroke:none"
         id="path94" />
      <path
         d="M 20622.3,7754.5 H 16106 c -24.9,0 -45,20.1 -45,45 v 121.2 c 0,24.8 20.1,44.9 45,44.9 h 4516.3 c 24.9,0 45,-20.1 45,-44.9 v -121.2 c 0,-24.9 -20.1,-45 -45,-45"
         style="fill:#c6916d;fill-opacity:1;fill-rule:nonzero;stroke:none"
         id="path96" />
      <path
         d="m 21460.7,12914.3 c 0,15 -12.2,27.2 -27.2,27.2 -15.1,0 -27.3,-12.2 -27.3,-27.2 0,-15.1 12.2,-27.2 27.3,-27.2 15,0 27.2,12.1 27.2,27.2"
         style="fill:#e5bd9e;fill-opacity:1;fill-rule:nonzero;stroke:none"
         id="path98" />
      <path
         d="m 18484.5,12914.3 c 0,15 -12.2,27.2 -27.2,27.2 -15.1,0 -27.2,-12.2 -27.2,-27.2 0,-15.1 12.1,-27.2 27.2,-27.2 15,0 27.2,12.1 27.2,27.2"
         style="fill:#e5bd9e;fill-opacity:1;fill-rule:nonzero;stroke:none"
         id="path100" />
      <path
         d="m 14196,8002 h 9725.9 v 5997 H 14196 V 8002"
         style="fill:#fff6ee;fill-opacity:1;fill-rule:nonzero;stroke:none"
         id="path102" />
      <path
         d="m 23797.5,8097.1 h -9594.4 v 5865.5 h 9594.4 z m -9725.9,-131.5 h 9857.3 V 14094 H 14071.6 V 7965.6"
         style="fill:#b27d59;fill-opacity:1;fill-rule:nonzero;stroke:none"
         id="path104" />
      <path
         d="m 14871.7,9442.2 c 1.1,-5.2 2.3,-10.4 3.6,-15.6 l 2055.7,0.7 1745.6,0.4 240.4,0.1 4071.2,1.2 c 0,0 1.8,4.5 5.1,13.2 26.1,68.9 143.9,400.5 160,801 3.8,93.8 1.9,191.5 -8,290.5 -2.5,25.2 -5.5,50.5 -9.2,75.8 -6.6,46.8 -15.2,93.7 -26,140.6 -0.1,0.2 -0.1,0.4 -0.2,0.6 -10.2,44.3 -22.4,88.5 -36.8,132.4 -4.5,13.7 -9.3,27.4 -14.2,41.2 -5.5,15 -11.2,30 -17.2,44.9 -3.3,8.3 -6.7,16.6 -10.1,24.8 -28.5,67.3 -62.7,133.2 -103.5,197.1 -47.7,74.8 -104.5,146.8 -171.7,214.6 -700.9,707.4 -1553.9,451 -2134.4,281.2 -201.7,-59 -370.5,-107.5 -488.6,-101.6 -142.1,7.2 -242.6,100.3 -354.5,228.5 -87.1,99.7 -181.2,220.8 -307.1,339.3 -0.2,0.2 -0.4,0.3 -0.5,0.3 -21.1,19.9 -43.1,39.6 -66.1,59.2 -231.8,197.1 -566.4,375.3 -1123.9,419.8 -409.7,32.7 -835.5,6.5 -1182.2,-124.7 -295.6,-111.8 -533.6,-300 -654.8,-593 -20.1,-48.7 -37,-100.3 -50.4,-155 -55.6,-226.7 -50.9,-505.5 33.5,-845.8 24.7,-99.6 30.8,-183.5 21.6,-254.5 -9,-69.5 -32.7,-126.7 -68,-174.3 -17.6,-23.8 -38.1,-45.2 -61.2,-64.5 -241.5,-202.2 -759.1,-176.1 -1112.1,-302 -259.7,-92.6 -430.2,-267.6 -336,-676.4"
         style="fill:#ebf3fa;fill-opacity:1;fill-rule:nonzero;stroke:none"
         id="path106" />
      <path
         d="m 18801.2,11615.1 4344.1,-1081.4 c -7.2,71.7 -18.6,144.2 -35.3,216.4 0,0.2 -0.1,0.4 -0.1,0.6 -10.3,44.3 -22.5,88.5 -36.8,132.4 l -4271.9,732"
         style="fill:#f8fbff;fill-opacity:1;fill-rule:nonzero;stroke:none"
         id="path108" />
      <path
         d="m 17274.3,12061.3 c 0,62.7 -50.8,113.5 -113.5,113.5 -62.7,0 -113.6,-50.8 -113.6,-113.5 0,-62.7 50.9,-113.6 113.6,-113.6 62.7,0 113.5,50.9 113.5,113.6"
         style="fill:#f8fbff;fill-opacity:1;fill-rule:nonzero;stroke:none"
         id="path110" />
      <path
         d="m 16381,10485.1 5348.7,-624 c 52.3,170 79.2,354.6 65.7,551.3 l -5401.5,1347.3 c -55.6,-226.7 -50.9,-505.5 33.5,-845.8 48.9,-197 25,-332.6 -46.4,-428.8"
         style="fill:#f8fbff;fill-opacity:1;fill-rule:nonzero;stroke:none"
         id="path112" />
      <path
         d="m 18917,9427.8 4071.2,1.2 c 0,0 271.7,671.8 121.8,1321.1 0,0.2 -0.1,0.4 -0.1,0.6 -251.6,11.7 -664.9,-17.9 -1100,-265.3 -687.1,-390.7 -1815.1,-104.8 -2141.6,-324 -326.5,-219.2 -401.5,-446.1 -644.3,-485.1 -211.8,-34.1 -290.5,-205.4 -307,-248.5 v 0"
         style="fill:#c1e0e4;fill-opacity:1;fill-rule:nonzero;stroke:none"
         id="path114" />
      <path
         d="m 19172.6,9504.5 c 0,0 571.2,191.8 901.6,98.5 330.5,-93.3 1404.3,73.9 1559.1,-6.2 v -167.9 h -2460.7 v 75.6"
         style="fill:#a8d29f;fill-opacity:1;fill-rule:nonzero;stroke:none"
         id="path116" />
      <path
         d="m 21568.9,9442.2 h 1424.4 c 26.1,68.9 143.9,400.5 160,801 v 0.3 c 0,0 -453.4,64.3 -665.1,-192.7 -211.8,-257.1 -490.4,-199.8 -689.4,-189.7 -198.9,10.1 -379.7,-207.6 -229.9,-418.9"
         style="fill:#a8d29f;fill-opacity:1;fill-rule:nonzero;stroke:none"
         id="path118" />
      <path
         d="m 14857.5,9510 c 3.8,-22.9 8.5,-46.7 14.2,-71.3 h 4354.6 c -62,483.2 -771.3,267.5 -991.7,487.9 -220.3,220.3 -860.8,0 -1026,337.4 -165.3,337.4 -759.6,391.9 -759.6,391.9 -9,-69.5 -32.7,-126.7 -68,-174.3 -17.6,-23.8 -38.1,-45.1 -61.2,-64.4 -241.5,-202.2 -759.1,-176.1 -1112.1,-302 -132.1,-47.1 -241,-115.5 -303.9,-225.1 v -0.1 c -53.3,-93 -73.4,-215.6 -46.3,-380"
         style="fill:#ffc6c5;fill-opacity:1;fill-rule:nonzero;stroke:none"
         id="path120" />
      <path
         d="m 22353.9,11317.3 c 0,0 516.5,-1023.4 124,-1875.1 h 397.6 c 0,0 46.5,930 -392.5,1833.8 l -129.1,41.3"
         style="fill:#365da4;fill-opacity:1;fill-rule:nonzero;stroke:none"
         id="path122" />
      <path
         d="m 22534,10818.8 c 0,0 -298.4,-11.8 -493.5,255.6 l -25.3,-10.4 c 0,0 175.9,-292.8 554.4,-319.6 l -35.6,74.4"
         style="fill:#365da4;fill-opacity:1;fill-rule:nonzero;stroke:none"
         id="path124" />
      <path
         d="m 22247.6,10875.2 c 10.4,182.2 -70.7,320.4 -71.3,321.6 l -12.3,-6.3 c 0.7,-1.2 62.8,-124.6 52.7,-302.9 l 30.9,-12.4"
         style="fill:#365da4;fill-opacity:1;fill-rule:nonzero;stroke:none"
         id="path126" />
      <path
         d="m 18008.2,11895.3 c 0,0 -291.9,63.1 -414,370.7 l -27,-3.7 c 0,0 97.1,-327.5 456.9,-448.1 l -15.9,81.1"
         style="fill:#365da4;fill-opacity:1;fill-rule:nonzero;stroke:none"
         id="path128" />
      <path
         d="m 17745,12021.4 c 55.6,173.9 11.7,327.9 11.3,329.2 l -13.4,-3 c 0.3,-1.3 29.6,-136.3 -24.7,-306.4 l 26.8,-19.8"
         style="fill:#365da4;fill-opacity:1;fill-rule:nonzero;stroke:none"
         id="path130" />
      <path
         d="m 22722.8,10501.6 c 110.8,110.8 156.2,315.5 144.3,506.1 -8.9,143.1 -49.9,251.8 -51.7,256.3 l -25.7,-9.8 c 0.4,-1.1 41.4,-109.9 50,-248.9 4.9,-81.2 -1.9,-156.6 -20.5,-224.3 -23.1,-84 -64.4,-156.2 -122.8,-214.6 l 26.4,-64.8"
         style="fill:#365da4;fill-opacity:1;fill-rule:nonzero;stroke:none"
         id="path132" />
      <path
         d="m 20621.9,11686.9 c 0,0 182.6,-312.8 497.7,-318 315,-5.1 268.5,-315 547.4,-382.1 278.9,-67.2 464.8,72.3 547.5,216.9 82.6,144.6 637.1,-123.2 713.6,-12.6 -47.7,74.8 -104.5,146.8 -171.7,214.6 -700.9,707.4 -1553.9,451 -2134.4,281.2 h -0.1"
         style="fill:#e57970;fill-opacity:1;fill-rule:nonzero;stroke:none"
         id="path134" />
      <path
         d="m 22857.5,10854.5 c 73.2,22.6 137.3,63.7 184.2,114.7 -3.3,8.3 -6.7,16.6 -10.1,24.8 -42.1,-43 -100.7,-76.2 -170.7,-97.7 -8,-2.5 -5.5,-42.4 -3.4,-41.8"
         style="fill:#365da4;fill-opacity:1;fill-rule:nonzero;stroke:none"
         id="path136" />
      <path
         d="m 22963.2,10669.2 c 26.5,-51.4 119.4,-88 172.9,-59.7 -6.6,46.8 -15.2,93.7 -26,140.6 -0.1,0.2 -0.1,0.4 -0.2,0.6 -10.2,44.3 -22.4,88.5 -36.8,132.4 -4.5,13.7 -9.3,27.4 -14.2,41.2 0,0 -42.8,-23.3 -47.5,-81.8 -4.5,-58.6 -87.2,-97.6 -48.2,-173.3"
         style="fill:#e57970;fill-opacity:1;fill-rule:nonzero;stroke:none"
         id="path138" />
      <path
         d="m 20989.2,11139.7 c 0,-69.7 63.7,-126.2 142.3,-126.2 78.6,0 188.2,54.2 188.2,123.9 0,69.8 -150.9,151.5 -229.5,151.5 -78.6,0 -101,-79.4 -101,-149.2"
         style="fill:#e57970;fill-opacity:1;fill-rule:nonzero;stroke:none"
         id="path140" />
      <path
         d="m 17663.5,9426.4 465.7,0.5 c -52.4,371.6 -75.9,766.8 -72,1143.3 3.2,301.4 24.6,601.8 63.7,892.7 66.5,495.9 162.5,796.1 163.4,799 l -209.6,68 c -4.1,-12.7 -478.3,-1686.3 -411.2,-2903.5"
         style="fill:#365da4;fill-opacity:1;fill-rule:nonzero;stroke:none"
         id="path142" />
      <path
         d="m 18104.7,11333 c 637.4,97.6 984.5,713.6 988.1,719.5 l -29.6,17.6 c -0.8,-1.4 -86.2,-143 -244.9,-285.9 -93,-83.6 -192.5,-151.4 -295.9,-201.3 -128.9,-62.2 -279.7,-98.7 -417.7,-104.7 V 11333"
         style="fill:#365da4;fill-opacity:1;fill-rule:nonzero;stroke:none"
         id="path144" />
      <path
         d="m 18712.4,11685.2 54.7,32.6 20.1,22.5 c -1.4,1.3 -164,128.5 -134.4,319.1 l -23.8,3.7 c -44.3,-109.6 81.8,-376.5 83.4,-377.9"
         style="fill:#365da4;fill-opacity:1;fill-rule:nonzero;stroke:none"
         id="path146" />
      <path
         d="m 17099.1,12507.7 c 62.8,-238.8 529.5,-346.5 846.3,-295.1 316.8,51.4 516.5,-244.2 888.3,-264.9 371.9,-20.6 571.5,264.9 571.5,264.9 -231.8,197.1 -566.4,375.3 -1123.9,419.8 -409.7,32.7 -835.5,6.5 -1182.2,-124.7"
         style="fill:#ffa49f;fill-opacity:1;fill-rule:nonzero;stroke:none"
         id="path148" />
      <path
         d="m 14674.3,9438.7 c 0,0 222.1,176 676.5,108.9 454.5,-67.2 1110.4,128.3 1363.5,-108.9 h -2040"
         style="fill:#82b378;fill-opacity:1;fill-rule:nonzero;stroke:none"
         id="path150" />
      <path
         d="m 16135.8,9530.4 c 0,0 377.1,516.4 578.5,392.5 201.4,-124 -578.5,-392.5 -578.5,-392.5"
         style="fill:#82b378;fill-opacity:1;fill-rule:nonzero;stroke:none"
         id="path152" />
      <path
         d="m 16406.1,9556.4 c 0,0 337.6,146.4 416.8,87.8 79.2,-58.5 -416.8,-87.8 -416.8,-87.8"
         style="fill:#82b378;fill-opacity:1;fill-rule:nonzero;stroke:none"
         id="path154" />
      <path
         d="m 14857.5,9500.8 1165.7,44.2 c -53.5,-1.8 -453.3,-9.2 -636.2,149.4 -196.3,170.1 -483.2,199.1 -483.2,199.1 v -0.1 c -53.3,-96 -73.4,-222.7 -46.3,-392.6"
         style="fill:#82b378;fill-opacity:1;fill-rule:nonzero;stroke:none"
         id="path156" />
      <path
         d="m 23135.4,9438.3 c 0,0 -152.8,102.3 -443,63.5 -290.2,-38.8 -1124.8,-68 -1531.1,-26.7 -406.3,41.3 -1245,-36.5 -1245,-36.5 l 3219.1,-0.3"
         style="fill:#82b378;fill-opacity:1;fill-rule:nonzero;stroke:none"
         id="path158" />
      <path
         d="m 14440.2,9414.5 h 9120.2 c 5.7,0 10.3,4.7 10.3,10.4 v 3.5 c 0,5.7 -4.6,10.4 -10.3,10.4 h -9120.2 c -5.7,0 -10.4,-4.7 -10.4,-10.4 v -3.5 c 0,-5.7 4.7,-10.4 10.4,-10.4"
         style="fill:#2e3552;fill-opacity:1;fill-rule:nonzero;stroke:none"
         id="path160" />
      <path
         d="m 22843.8,9468.9 c 0,0 -76.5,328.8 -115.7,258.2 -39.2,-70.5 115.7,-258.2 115.7,-258.2"
         style="fill:#82b378;fill-opacity:1;fill-rule:nonzero;stroke:none"
         id="path162" />
      <path
         d="m 22802.1,9474.6 c 0,0 -96.3,147.8 -113.8,128.6 -17.5,-19.2 113.8,-128.6 113.8,-128.6"
         style="fill:#82b378;fill-opacity:1;fill-rule:nonzero;stroke:none"
         id="path164" />
      <path
         d="m 22890.7,9489.4 c 0.9,1.7 48.2,156.7 80.4,126.8 32.1,-29.8 -80.4,-126.8 -80.4,-126.8"
         style="fill:#82b378;fill-opacity:1;fill-rule:nonzero;stroke:none"
         id="path166" />
      <path
         d="m 20834.2,9463.5 c 0,5.2 115.3,212.7 156.7,180.7 41.3,-31.9 -156.7,-180.7 -156.7,-180.7"
         style="fill:#82b378;fill-opacity:1;fill-rule:nonzero;stroke:none"
         id="path168" />
      <path
         d="m 20822.2,9463.5 c -1.8,10.3 -22.4,189.1 22.4,184.1 44.7,-5.1 -24.2,-173.8 -24.2,-173.8 l 1.8,-10.3"
         style="fill:#82b378;fill-opacity:1;fill-rule:nonzero;stroke:none"
         id="path170" />
      <path
         d="m 21543.1,9695.8 h 856.7 l 39.6,201.3 h -855.2 l -41.1,-201.3"
         style="fill:#b27d59;fill-opacity:1;fill-rule:nonzero;stroke:none"
         id="path172" />
      <path
         d="m 21528.4,9695.8 h 856.7 l 39.6,201.3 h -855.1 l -41.2,-201.3"
         style="fill:#e0b594;fill-opacity:1;fill-rule:nonzero;stroke:none"
         id="path174" />
      <path
         d="m 22146.9,9671.1 h 234.1 c 10.4,0 18.8,8.4 18.8,18.8 v 5.9 h -252.9 v -24.7"
         style="fill:#b27d59;fill-opacity:1;fill-rule:nonzero;stroke:none"
         id="path176" />
      <path
         d="m 21370.7,9671.1 h 778.1 v 24.7 h -778.1 v -24.7"
         style="fill:#d3a07d;fill-opacity:1;fill-rule:nonzero;stroke:none"
         id="path178" />
      <path
         d="m 18899.8,11262.6 h 17.2 l -0.1,1.3 -5.2,45.9 c -0.2,1.5 -1.4,2.6 -2.9,2.6 -0.2,0 -0.4,0 -0.6,0 -0.9,-0.1 -1.8,-0.5 -2.5,-1.2 -0.8,-0.7 -1.4,-1.8 -1.5,-2.9 l -4.4,-45.7"
         style="fill:#2b478b;fill-opacity:1;fill-rule:nonzero;stroke:none"
         id="path180" />
      <path
         d="m 18915.4,11273 h 0.6 l -4.3,36.8 c -0.2,1.5 -1.4,2.6 -2.9,2.6 -0.2,0 -0.4,0 -0.6,0 -0.1,-0.1 -0.3,-0.3 -0.4,-0.4 -0.8,-0.9 -1.2,-1.9 -1.2,-3.1 l -0.3,-26.5 c 0,-5.1 4,-9.3 9.1,-9.4"
         style="fill:#3f65b2;fill-opacity:1;fill-rule:nonzero;stroke:none"
         id="path182" />
      <path
         d="M 18888.9,11058.4 V 9593.5 h 33.1 v 1464.9 h -33.1"
         style="fill:#2b478b;fill-opacity:1;fill-rule:nonzero;stroke:none"
         id="path184" />
      <path
         d="M 18906.7,11058.4 V 9593.5 h 15.3 v 1464.9 h -15.3"
         style="fill:#4365aa;fill-opacity:1;fill-rule:nonzero;stroke:none"
         id="path186" />
      <path
         d="m 18852.6,9827.3 v -387.6 h 105.7 v 387.6 h -105.7"
         style="fill:#2b478b;fill-opacity:1;fill-rule:nonzero;stroke:none"
         id="path188" />
      <path
         d="m 18895.3,9827.3 v -387.6 h 63 v 387.6 h -63"
         style="fill:#4365aa;fill-opacity:1;fill-rule:nonzero;stroke:none"
         id="path190" />
      <path
         d="m 18847.7,11240.5 c 0,-18.1 27.2,-32.8 60.7,-32.8 2.6,0 5.1,0.1 7.6,0.3 29.9,2 53.2,15.8 53.2,32.5 0,16.7 -23.3,30.5 -53.2,32.5 -2.5,0.2 -5,0.2 -7.6,0.2 -33.5,0 -60.7,-14.6 -60.7,-32.7"
         style="fill:#2b478b;fill-opacity:1;fill-rule:nonzero;stroke:none"
         id="path192" />
      <path
         d="m 18879.1,11240.5 c 0,-14.6 15.2,-27.1 36.9,-32.5 29.9,2 53.2,15.8 53.2,32.5 0,16.7 -23.3,30.5 -53.2,32.5 -21.7,-5.4 -36.9,-17.9 -36.9,-32.5"
         style="fill:#3f65b2;fill-opacity:1;fill-rule:nonzero;stroke:none"
         id="path194" />
      <path
         d="m 18852.8,11029.5 h 105.6 l 37.3,179.4 h -174.5 l 31.6,-179.4"
         style="fill:#3f65b2;fill-opacity:1;fill-rule:nonzero;stroke:none"
         id="path196" />
      <path
         d="m 18811.8,11222.4 v -17.2 h 193.3 v 17.2 h -193.3"
         style="fill:#2b478b;fill-opacity:1;fill-rule:nonzero;stroke:none"
         id="path198" />
      <path
         d="m 18883.6,11222.4 v -17.2 h 121.5 v 17.2 h -121.5"
         style="fill:#3f65b2;fill-opacity:1;fill-rule:nonzero;stroke:none"
         id="path200" />
      <path
         d="m 18941,9827.3 h -67.5 l 9.8,30 c 0.9,2.6 3.4,4.4 6.2,4.4 h 31.6 c 3.5,0 6.6,-2.1 7.9,-5.2 l 12,-29.2"
         style="fill:#365da4;fill-opacity:1;fill-rule:nonzero;stroke:none"
         id="path202" />
      <path
         d="m 18983.2,11200.1 h -149 l 29.1,-161.2 h 85.5 l 34.4,161.2"
         style="fill:#f9ddbf;fill-opacity:1;fill-rule:nonzero;stroke:none"
         id="path204" />
      <path
         d="m 18965.1,11238.6 c 0,0 -11.3,24.8 -33.7,24 0,0 14.2,-12.7 12.9,-24 -1.3,-11.4 20.8,0 20.8,0"
         style="fill:#c7dcf9;fill-opacity:1;fill-rule:nonzero;stroke:none"
         id="path206" />
      <path
         d="m 18824.1,11222.4 h 168.6 l -13.8,19.7 h -141.7 l -13.1,-19.7"
         style="fill:#2b478b;fill-opacity:1;fill-rule:nonzero;stroke:none"
         id="path208" />
      <path
         d="m 18865.7,11222.4 h 127 l -13.8,19.7 h -100.1 l -13.1,-19.7"
         style="fill:#3f65b2;fill-opacity:1;fill-rule:nonzero;stroke:none"
         id="path210" />
      <path
         d="m 18973.3,11194.5 h -34.2 l -9.9,-150.5 h 9.9 l 34.2,150.5"
         style="fill:#ffebd9;fill-opacity:1;fill-rule:nonzero;stroke:none"
         id="path212" />
      <path
         d="m 21211.8,10626.6 h 11.2 l -0.1,0.9 -3.4,29.9 c -0.1,1 -0.9,1.7 -1.9,1.7 -0.1,0 -0.2,0 -0.4,0 -0.6,-0.1 -1.2,-0.4 -1.6,-0.8 -0.6,-0.5 -0.9,-1.1 -1,-1.9 l -2.8,-29.8"
         style="fill:#2b478b;fill-opacity:1;fill-rule:nonzero;stroke:none"
         id="path214" />
      <path
         d="m 21221.9,10633.4 h 0.4 l -2.8,24 c -0.1,1 -0.9,1.7 -1.9,1.7 -0.1,0 -0.2,0 -0.4,0 -0.1,-0.1 -0.2,-0.2 -0.3,-0.3 -0.4,-0.5 -0.7,-1.2 -0.7,-2 l -0.2,-17.2 c 0,-3.4 2.6,-6.1 5.9,-6.2"
         style="fill:#3f65b2;fill-opacity:1;fill-rule:nonzero;stroke:none"
         id="path216" />
      <path
         d="m 21204.6,10493.7 v -953.8 h 21.6 v 953.8 h -21.6"
         style="fill:#2b478b;fill-opacity:1;fill-rule:nonzero;stroke:none"
         id="path218" />
      <path
         d="m 21216.3,10493.7 v -953.8 h 9.9 v 953.8 h -9.9"
         style="fill:#4365aa;fill-opacity:1;fill-rule:nonzero;stroke:none"
         id="path220" />
      <path
         d="m 21181,9692.1 v -252.4 h 68.8 v 252.4 h -68.8"
         style="fill:#2b478b;fill-opacity:1;fill-rule:nonzero;stroke:none"
         id="path222" />
      <path
         d="m 21208.8,9692.1 v -252.4 h 41 v 252.4 h -41"
         style="fill:#4365aa;fill-opacity:1;fill-rule:nonzero;stroke:none"
         id="path224" />
      <path
         d="m 21177.8,10612.3 c 0,-11.8 17.7,-21.4 39.6,-21.4 1.6,0 3.3,0.1 4.9,0.2 19.5,1.3 34.6,10.3 34.6,21.2 0,10.8 -15.1,19.8 -34.6,21.1 -1.6,0.1 -3.3,0.2 -4.9,0.2 -21.9,0 -39.6,-9.6 -39.6,-21.3"
         style="fill:#2b478b;fill-opacity:1;fill-rule:nonzero;stroke:none"
         id="path226" />
      <path
         d="m 21198.3,10612.3 c 0,-9.5 9.9,-17.7 24,-21.2 19.5,1.3 34.6,10.3 34.6,21.2 0,10.8 -15.1,19.8 -34.6,21.1 -14.1,-3.5 -24,-11.6 -24,-21.1"
         style="fill:#3f65b2;fill-opacity:1;fill-rule:nonzero;stroke:none"
         id="path228" />
      <path
         d="m 21181.1,10474.9 h 68.8 l 24.3,116.8 h -113.6 l 20.5,-116.8"
         style="fill:#3f65b2;fill-opacity:1;fill-rule:nonzero;stroke:none"
         id="path230" />
      <path
         d="m 21154.4,10600.5 v -11.2 h 125.9 v 11.2 h -125.9"
         style="fill:#2b478b;fill-opacity:1;fill-rule:nonzero;stroke:none"
         id="path232" />
      <path
         d="m 21201.2,10600.5 v -11.2 h 79.1 v 11.2 h -79.1"
         style="fill:#3f65b2;fill-opacity:1;fill-rule:nonzero;stroke:none"
         id="path234" />
      <path
         d="m 21238.6,9692.1 h -44 l 6.4,19.5 c 0.6,1.7 2.2,2.9 4,2.9 h 20.6 c 2.3,0 4.3,-1.3 5.1,-3.4 l 7.9,-19"
         style="fill:#365da4;fill-opacity:1;fill-rule:nonzero;stroke:none"
         id="path236" />
      <path
         d="m 21266,10586 h -97 l 19,-105 h 55.7 l 22.3,105"
         style="fill:#f9ddbf;fill-opacity:1;fill-rule:nonzero;stroke:none"
         id="path238" />
      <path
         d="m 21254.3,10611 c 0,0 -7.4,16.1 -22,15.6 0,0 9.3,-8.2 8.4,-15.6 -0.8,-7.4 13.6,0 13.6,0"
         style="fill:#c7dcf9;fill-opacity:1;fill-rule:nonzero;stroke:none"
         id="path240" />
      <path
         d="m 21162.5,10600.5 h 109.8 l -9,12.8 h -92.3 l -8.5,-12.8"
         style="fill:#2b478b;fill-opacity:1;fill-rule:nonzero;stroke:none"
         id="path242" />
      <path
         d="m 21189.5,10600.5 h 82.8 l -9,12.8 h -65.3 l -8.5,-12.8"
         style="fill:#3f65b2;fill-opacity:1;fill-rule:nonzero;stroke:none"
         id="path244" />
      <path
         d="m 21259.6,10582.3 h -22.2 l -6.5,-98 h 6.5 l 22.2,98"
         style="fill:#ffebd9;fill-opacity:1;fill-rule:nonzero;stroke:none"
         id="path246" />
      <path
         d="m 22348.6,9671.1 14.7,-57.6 c 0,-0.1 0,-0.1 0,-0.1 l 43.4,-170.9 c 0.6,-2.2 2.6,-3.7 4.9,-3.7 4.4,0 7.7,4 6.9,8.3 l -38.8,199.3 -4.8,24.7 h -26.3"
         style="fill:#edbe9d;fill-opacity:1;fill-rule:nonzero;stroke:none"
         id="path248" />
      <path
         d="m 22363.3,9613.5 c -1.4,29.5 16.4,32.9 16.4,32.9 l -4.8,24.7 h -26.3 l 14.7,-57.6"
         style="fill:#b27d59;fill-opacity:1;fill-rule:nonzero;stroke:none"
         id="path250" />
      <path
         d="m 22162.8,9671.1 14.7,-57.6 c 0,-0.1 0,-0.1 0,-0.1 l 43.4,-170.9 c 0.6,-2.2 2.6,-3.7 4.8,-3.7 4.4,0 7.8,4 6.9,8.3 l -38.7,199.3 -4.8,24.7 h -26.3"
         style="fill:#edbe9d;fill-opacity:1;fill-rule:nonzero;stroke:none"
         id="path252" />
      <path
         d="m 22177.5,9613.5 c -1.4,29.5 16.4,32.9 16.4,32.9 l -4.8,24.7 h -26.3 l 14.7,-57.6"
         style="fill:#b27d59;fill-opacity:1;fill-rule:nonzero;stroke:none"
         id="path254" />
      <path
         d="m 21441.7,9671.1 -14.6,-57.6 c 0,-0.1 0,-0.1 0,-0.1 l -43.4,-170.9 c -0.6,-2.2 -2.6,-3.7 -4.9,-3.7 -4.4,0 -7.8,4 -6.9,8.3 l 38.7,199.3 4.9,24.7 h 26.2"
         style="fill:#edbe9d;fill-opacity:1;fill-rule:nonzero;stroke:none"
         id="path256" />
      <path
         d="m 21427.1,9613.5 c 1.4,29.5 -16.5,32.9 -16.5,32.9 l 4.9,24.7 h 26.2 l -14.6,-57.6"
         style="fill:#b27d59;fill-opacity:1;fill-rule:nonzero;stroke:none"
         id="path258" />
      <path
         d="m 21627.6,9671.1 -14.7,-57.6 c 0,-0.1 0,-0.1 0,-0.1 l -43.4,-170.9 c -0.6,-2.2 -2.6,-3.7 -4.9,-3.7 -4.4,0 -7.7,4 -6.9,8.3 l 38.8,199.3 4.8,24.7 h 26.3"
         style="fill:#edbe9d;fill-opacity:1;fill-rule:nonzero;stroke:none"
         id="path260" />
      <path
         d="m 21612.9,9613.5 c 1.4,29.5 -16.4,32.9 -16.4,32.9 l 4.8,24.7 h 26.3 l -14.7,-57.6"
         style="fill:#b27d59;fill-opacity:1;fill-rule:nonzero;stroke:none"
         id="path262" />
      <path
         d="m 22179.4,9695.8 h 177.6 c 17.7,26.1 -2.5,86.5 -8.4,113.2 -6.3,28.9 28.5,75.1 39,88.1 h -139.5 c -18.9,-52.3 -61.2,-160.5 -68.7,-201.3"
         style="fill:#d3a07d;fill-opacity:1;fill-rule:nonzero;stroke:none"
         id="path264" />
      <path
         d="m 21547.9,9695.8 h 177.6 c 17.7,26.1 -2.5,86.5 -8.3,113.2 -6.4,28.9 28.4,75.1 38.9,88.1 h -139.5 c -18.8,-52.3 -61.2,-160.5 -68.7,-201.3"
         style="fill:#d3a07d;fill-opacity:1;fill-rule:nonzero;stroke:none"
         id="path266" />
      <path
         d="m 17185.2,11316.5 c 0,0 53.2,-21.8 62.4,-62 9.2,-40.2 -69.6,-32.1 -62.4,62"
         style="fill:#ffa49f;fill-opacity:1;fill-rule:nonzero;stroke:none"
         id="path268" />
      <path
         d="m 17125.9,11773.3 c 0,0 -84.3,-70 -120.5,-32.2 -36.2,37.9 120.5,32.2 120.5,32.2"
         style="fill:#ffa49f;fill-opacity:1;fill-rule:nonzero;stroke:none"
         id="path270" />
      <path
         d="m 16693.8,10937.2 c 0,0 118.8,-24.1 103.3,-60.3 -15.5,-36.1 -103.3,60.3 -103.3,60.3"
         style="fill:#ffa49f;fill-opacity:1;fill-rule:nonzero;stroke:none"
         id="path272" />
      <path
         d="m 17396.8,10960.7 c 0,0 -3.2,-75.8 -69.3,-74.6 0,0 -21.4,52.8 69.3,74.6"
         style="fill:#ffa49f;fill-opacity:1;fill-rule:nonzero;stroke:none"
         id="path274" />
      <path
         d="m 18347.1,10731.1 c 0,0 35.6,-49.3 71.2,-51.6 35.5,-2.3 47,-41.3 0,-43.6 -47.1,-2.3 -81.5,75.7 -71.2,95.2"
         style="fill:#ffa49f;fill-opacity:1;fill-rule:nonzero;stroke:none"
         id="path276" />
      <path
         d="m 18539.9,10886.1 c 0,0 -24.1,-67.7 -52.8,-49.4 -28.7,18.4 52.8,49.4 52.8,49.4"
         style="fill:#ffa49f;fill-opacity:1;fill-rule:nonzero;stroke:none"
         id="path278" />
      <path
         d="m 24099.6,7965.6 h -170.7 V 14094 h 170.7 V 7965.6"
         style="fill:#916140;fill-opacity:1;fill-rule:nonzero;stroke:none"
         id="path280" />
      <path
         d="m 20762.5,7754.5 h 187.1 l -61.9,-248.3 c -192.5,-60.5 -272.9,-398.8 -272.9,-398.8 l 147.7,647.1"
         style="fill:#916140;fill-opacity:1;fill-rule:nonzero;stroke:none"
         id="path282" />
      <path
         d="m 16895.2,7754.5 h 187.1 l -61.9,-248.3 c -192.5,-60.5 -269.7,-398.8 -269.7,-398.8 l 144.5,647.1"
         style="fill:#916140;fill-opacity:1;fill-rule:nonzero;stroke:none"
         id="path284" />
      <path
         d="M 27640,2796.5 H 2949.07 V 3916 H 27640 V 2796.5"
         style="fill:#b2443b;fill-opacity:1;fill-rule:nonzero;stroke:none"
         id="path286" />
      <path
         d="m 3501.02,4760.8 -135.06,-377.6 c 0,0 -83.19,-4.6 -99.05,-95.3 -15.86,-90.7 -23.26,-591.5 -23.26,-591.5 l -366.62,143.2 c 6.68,15.8 80.27,579 69.02,664.6 -11.11,85.6 -135.34,227.9 -27.09,404.2 58.89,95.9 54.55,213.2 38.54,299.9 -5.97,31.8 -13.36,59.5 -19.95,80.6 -3.39,11.1 -0.46,21.9 6.14,29.6 7.21,8.3 18.64,12.8 30.75,9.8 31.17,-7.9 70.44,-27.1 101.52,-72.7 22.74,-33.2 27.83,-89.8 41.74,-146 55.76,55 187.85,52.1 247.33,32 101.73,-34.2 135.99,-380.8 135.99,-380.8"
         style="fill:#efa26f;fill-opacity:1;fill-rule:nonzero;stroke:none"
         id="path288" />
      <path
         d="m 2968.07,5212.8 -10.57,-4.5 c -5.97,31.8 -37.38,93.4 -43.98,114.6 -3.4,11 18.82,9.2 27.63,2 5.49,-2.7 12.66,-13.6 15.78,-19.3 9.07,-16.4 20.42,-38.7 26.65,-58.6 4.48,-13.8 -2.1,-28.6 -15.51,-34.2"
         style="fill:#ffc197;fill-opacity:1;fill-rule:nonzero;stroke:none"
         id="path290" />
      <path
         d="m 3388.47,4315.5 -11.05,-3.3 c -36.2,-10.8 -70.7,-1.6 -76.69,20.3 l -371.79,1358.2 81.65,24.3 430.09,-1341.7 c 6.82,-21.3 -16.68,-47.3 -52.21,-57.8"
         style="fill:#efcbab;fill-opacity:1;fill-rule:nonzero;stroke:none"
         id="path292" />
      <path
         d="M 3863.95,5932.7 2091.13,5406.3 c -50.01,-14.9 -103.06,13.9 -117.92,63.9 l -485.93,1636.4 c -14.84,50 13.92,103.1 63.92,117.9 L 3324.02,7751 c 50,14.8 103.06,-13.9 117.91,-63.9 l 485.94,-1636.5 c 14.84,-50 -13.92,-103.1 -63.92,-117.9"
         style="fill:#739af0;fill-opacity:1;fill-rule:nonzero;stroke:none"
         id="path294" />
      <path
         d="M 3517.22,5923.4 2386.75,5587.7 c -175.77,-52.2 -362.29,48.9 -414.49,224.7 l -299.02,1007 c -52.2,175.7 48.91,362.3 224.69,414.5 l 1130.46,335.7 c 175.78,52.1 362.3,-49 414.49,-224.7 l 299.03,-1007 c 52.19,-175.8 -48.92,-362.3 -224.69,-414.5"
         style="fill:#fcecdb;fill-opacity:1;fill-rule:nonzero;stroke:none"
         id="path296" />
      <path
         d="m 3159.93,6229.9 c -16.33,55 -56.31,73 -119.87,54.2 l -98.33,-29.3 -190.04,640 -42.21,142.2 c -14.63,49.1 -27.54,78.6 -38.85,88.3 -11.26,9.8 -31.84,10.3 -61.74,1.3 -30.83,-9.1 -70.99,-23.1 -120.46,-42 -49.4,-18.9 -84.6,-35.6 -105.42,-50.2 -41.02,-27.9 -56.35,-59.2 -46.04,-93.9 14.33,-48.2 50.35,-63.7 108.2,-46.5 l 95.4,28.4 53.4,-179.9 161.26,-543 -112.79,-33.5 c -64.56,-19.2 -88.55,-56.8 -71.92,-112.7 8.01,-27 23.64,-45.1 46.86,-54.4 23.24,-9.4 48.77,-9.9 76.77,-1.6 l 396.08,117.6 c 63.63,18.9 86.85,57.2 69.7,115"
         style="fill:#b2443b;fill-opacity:1;fill-rule:nonzero;stroke:none"
         id="path298" />
      <path
         d="m 3389.93,5120.1 -272.38,-134.4 c -22.76,-12.1 -43.33,-8.1 -55.4,14.6 l -22.45,42.4 c -12.06,22.7 -3.32,51.2 19.43,63.3 l 214.29,127.3 c 28.01,16.2 64.89,6.2 83.21,-15 0,0 78.79,-76.5 33.3,-98.2"
         style="fill:#ffb27d;fill-opacity:1;fill-rule:nonzero;stroke:none"
         id="path300" />
      <path
         d="m 3467.18,4993.7 -276.37,-146.6 c -35.94,-19 -80.94,-5.2 -99.99,30.7 v 0 c -19.06,36 -5.24,81 30.7,100 l 276.37,146.5 c 35.93,19.1 68.83,30.8 99.99,-30.7 v 0 c 33.31,-48.2 5.25,-80.9 -30.7,-99.9"
         style="fill:#ffb27d;fill-opacity:1;fill-rule:nonzero;stroke:none"
         id="path302" />
      <path
         d="m 3500.78,4876.1 -224.2,-106.3 c -31.03,-16.5 -63.38,-13.7 -79.82,17.3 v 0 c -16.44,31 -4.52,69.9 26.5,86.3 l 217.72,115.4 c 31,16.5 61.53,34.4 86.29,-26.4 v 0 c 20.5,-41.6 4.77,-70.5 -26.49,-86.3"
         style="fill:#ffb27d;fill-opacity:1;fill-rule:nonzero;stroke:none"
         id="path304" />
      <path
         d="m 3539.58,4774.7 -127.64,-67.6 c -26.77,-14.2 -60.27,-3.9 -74.47,22.8 v 0 c -14.18,26.8 -3.9,60.3 22.86,74.5 l 127.64,67.7 c 26.78,14.2 60.28,3.9 74.47,-22.9 v 0 c 14.2,-26.7 3.91,-60.3 -22.86,-74.5"
         style="fill:#ffb27d;fill-opacity:1;fill-rule:nonzero;stroke:none"
         id="path306" />
      <path
         d="m 3045.21,5070.1 c 15.7,10.4 37.04,23.4 56.35,31.3 13.36,5.5 28.65,0.1 35.32,-12.7 l 19.18,-36.7 c 6.65,-12.8 1.92,-28.5 -10.74,-35.4 -15.55,-8.3 -37.35,-19.2 -59.48,-27.3 -15.53,-5.6 -32.81,1.5 -40.08,16.3 l -11.57,23.6 c -7.09,14.5 -2.4,31.9 11.02,40.9"
         style="fill:#ffc197;fill-opacity:1;fill-rule:nonzero;stroke:none"
         id="path308" />
      <path
         d="m 3089.65,4925.5 c 15.54,10.3 36.65,23.2 55.77,31 13.22,5.4 28.34,0.1 34.94,-12.6 l 18.99,-36.3 c 6.57,-12.6 1.9,-28.2 -10.63,-35 -15.39,-8.3 -36.96,-19 -58.88,-27 -15.35,-5.6 -32.46,1.4 -39.65,16.1 l -11.44,23.4 c -7.03,14.3 -2.38,31.6 10.9,40.4"
         style="fill:#ffc197;fill-opacity:1;fill-rule:nonzero;stroke:none"
         id="path310" />
      <path
         d="m 3190.45,4831.3 c 13.2,8.8 31.17,19.7 47.41,26.4 11.24,4.5 24.1,0 29.71,-10.7 l 16.14,-30.9 c 5.59,-10.8 1.62,-24 -9.04,-29.8 -13.08,-7 -31.42,-16.1 -50.04,-22.9 -13.06,-4.8 -27.61,1.2 -33.72,13.7 l -9.73,19.8 c -5.97,12.2 -2.02,26.9 9.27,34.4"
         style="fill:#ffc197;fill-opacity:1;fill-rule:nonzero;stroke:none"
         id="path312" />
      <path
         d="m 3332.47,4764.1 c 11.46,7.6 27.03,17.2 41.12,22.9 9.75,4 20.91,0.1 25.78,-9.3 l 13.99,-26.8 c 4.85,-9.3 1.4,-20.8 -7.83,-25.8 -11.35,-6.1 -27.26,-14 -43.42,-19.9 -11.31,-4.1 -23.94,1.1 -29.24,11.9 l -8.44,17.2 c -5.17,10.6 -1.75,23.3 8.04,29.8"
         style="fill:#ffc197;fill-opacity:1;fill-rule:nonzero;stroke:none"
         id="path314" />
      <path
         d="M 3444.01,2796.5 H 2701.4 c 33.19,420.5 201.52,1549.2 201.52,1549.2 0,0 13.45,-3.5 35.32,-10.5 75.82,-24 252.64,-88.5 318.03,-185.6 6.79,-10 12.38,-20.3 16.51,-31.1 0,0 185.02,-969.5 171.23,-1322"
         style="fill:#82b378;fill-opacity:1;fill-rule:nonzero;stroke:none"
         id="path316" />
      <path
         d="m 20591.2,3386.5 c 5.8,-188.1 30.3,-494.2 34.5,-505.7 l -254.9,-84.3 h -102.4 c 2.9,79.6 9.5,280.6 9.7,415.5 0.2,53.8 -0.7,97.1 -3.2,118 -4,33.6 -18.2,55.6 -34.2,70 -26.8,24.1 -49.6,52.3 -66.6,83.7 -9.3,17.1 -16.9,35.1 -22.6,54 l -37.2,124.4 -37.4,125 -2.3,7.7 c 0,0 6.8,44.8 20.4,102.7 0.1,0.6 0.2,1.1 0.4,1.6 v 0.1 c 8.2,35 18.9,74.5 32,111.9 0.8,2.4 1.6,4.9 2.5,7.3 17.7,49 39.6,93.3 65.6,117.3 0.1,0 0.1,0 0.1,0 9,8.4 18.5,14.3 28.6,17.1 34.5,9.7 93.6,12.2 146.4,0.9 35.6,-7.7 68.4,-21.7 88.9,-44.1 2.6,8.7 5,17.4 7.3,26 11.8,44.1 20.4,86.1 40,111.8 13.8,18.1 28.9,31.4 43.9,41.3 19.9,13 39.8,19.8 57.1,23.2 10.4,2 20.2,-1.7 26.7,-8.5 0.8,-0.9 1.5,-1.7 2.2,-2.6 6,-7.6 8.2,-18.1 4.4,-28.5 -7.4,-19.9 -15.9,-46.1 -23.2,-76.2 -19.7,-82.4 -29.8,-194.5 21.7,-289.3 94.8,-174.3 -31.4,-304.3 -46.4,-385.8 -3.8,-20.6 -4,-70.8 -2,-134.5"
         style="fill:#efa26f;fill-opacity:1;fill-rule:nonzero;stroke:none"
         id="path318" />
      <path
         d="m 20608,4200.9 9.9,-4.8 c 7.3,30.1 40.6,87.6 47.9,107.5 3.8,10.4 -17.5,9.8 -26.3,3.3 -5.4,-2.3 -12.8,-12.4 -16.1,-17.7 -9.5,-15.3 -21.5,-36 -28.5,-54.8 -5,-12.9 0.5,-27.5 13.1,-33.5"
         style="fill:#ffc197;fill-opacity:1;fill-rule:nonzero;stroke:none"
         id="path320" />
      <path
         d="m 19984.2,3266.9 10.3,-5.2 c 33.9,-16.7 69.4,-13.5 79.1,7.1 l 596.7,1275.5 -76.4,37.7 -651.4,-1249.3 c -10.3,-19.8 8.5,-49.4 41.7,-65.8"
         style="fill:#efcbab;fill-opacity:1;fill-rule:nonzero;stroke:none"
         id="path322" />
      <path
         d="m 19789.8,4941.3 1657.9,-819.4 c 46.8,-23.2 104,-3.8 127.1,43 l 756.3,1530.3 c 23.2,46.8 3.8,104 -43,127.1 l -1657.8,819.4 c -46.8,23.1 -104,3.7 -127.1,-43 l -756.4,-1530.4 c -23.1,-46.7 -3.7,-103.9 43,-127"
         style="fill:#739af0;fill-opacity:1;fill-rule:nonzero;stroke:none"
         id="path324" />
      <path
         d="m 20130,4873.3 1057.1,-522.5 c 164.4,-81.3 365.4,-13.2 446.6,151.1 l 465.5,941.8 c 81.2,164.3 13.2,365.3 -151.2,446.5 l -1057.2,522.6 c -164.3,81.2 -365.3,13.2 -446.6,-151.2 l -465.4,-941.7 c -81.2,-164.4 -13.2,-365.4 151.2,-446.6"
         style="fill:#fcecdb;fill-opacity:1;fill-rule:nonzero;stroke:none"
         id="path326" />
      <path
         d="m 21479.8,5825.9 -322.1,136.1 c -35.9,15.2 -63.6,19.7 -82.9,13.3 -19.4,-6.3 -39.1,-26.4 -59,-60.3 -86.5,-144 -141.3,-236.8 -164.4,-278.3 -1.6,-3.8 -10,-17 -25.1,-39.6 -11.2,-18.7 -18.1,-30.8 -20.5,-36.5 -23.5,-55.8 -13.6,-92.9 30,-111.3 20.7,-8.8 52.8,-14.8 96,-18 43.2,-3.2 75.2,-9.2 96,-18 109.8,-46.4 139.1,-130.1 87.9,-251.2 -23.2,-54.9 -58.3,-93.8 -105.4,-116.8 -47.1,-23 -98.1,-23 -152.9,0.2 -47.3,20 -87.7,56.3 -121.2,108.9 -33.5,52.6 -58.3,82.4 -74.4,89.1 -20.8,8.8 -41.2,8 -61.2,-2.5 -20.1,-10.5 -34.5,-26.1 -43.3,-46.9 -10.4,-24.6 -10.6,-53 -0.8,-85 15.1,-48.7 45.9,-95.7 92.6,-141.1 42.7,-41.4 89.5,-73 140.6,-94.6 74.7,-31.5 150.6,-40.5 227.8,-26.8 77.1,13.6 144.2,48.5 201.4,104.7 38.1,37.4 69.7,85.9 94.9,145.5 38.4,90.8 44,179.3 16.9,265.4 -27.6,90.7 -86.2,155.1 -176.2,193.2 -36.9,15.5 -78.2,24.7 -123.9,27.3 l 115.2,192.1 268,-113.3 c 66.1,-27.9 110.5,-15.2 133.1,38.3 23.4,55.3 1,97.4 -67.1,126.1"
         style="fill:#b2443b;fill-opacity:1;fill-rule:nonzero;stroke:none"
         id="path328" />
      <path
         d="m 20199.2,4133.5 254.1,-142.6 c 21.2,-12.7 41.1,-10 53.8,11.2 l 23.7,39.5 c 12.7,21.1 5.8,48.9 -15.4,61.6 l -198.8,132.8 c -26.1,17 -61.9,9.2 -80.5,-10.1 0,0 -79.4,-69.4 -36.9,-92.4"
         style="fill:#ffb27d;fill-opacity:1;fill-rule:nonzero;stroke:none"
         id="path330" />
      <path
         d="m 20118.8,4016.2 257.3,-154.3 c 33.5,-20.1 77.3,-9.2 97.4,24.3 v 0 c 20,33.5 9.1,77.3 -24.4,97.4 l -257.3,154.3 c -33.5,20.1 -64.4,33 -97.3,-24.3 v 0 c -34.4,-44.6 -9.2,-77.3 24.3,-97.4"
         style="fill:#ffb27d;fill-opacity:1;fill-rule:nonzero;stroke:none"
         id="path332" />
      <path
         d="m 20080.7,3905.3 209.4,-113.2 c 28.8,-17.3 60,-16.3 77.3,12.6 v 0 c 17.3,28.9 7.9,66.7 -21,84 l -202.7,121.6 c -28.9,17.3 -57.3,36 -84.1,-21 v 0 c -21.7,-38.8 -8.1,-67.3 21.1,-84"
         style="fill:#ffb27d;fill-opacity:1;fill-rule:nonzero;stroke:none"
         id="path334" />
      <path
         d="m 20038.3,3810.2 118.9,-71.3 c 24.9,-14.9 57.5,-6.8 72.5,18.1 v 0 c 14.9,25 6.8,57.6 -18.1,72.5 l -118.9,71.3 c -24.9,15 -57.5,6.8 -72.5,-18.1 v 0 c -14.9,-24.9 -6.8,-57.6 18.1,-72.5"
         style="fill:#ffb27d;fill-opacity:1;fill-rule:nonzero;stroke:none"
         id="path336" />
      <path
         d="m 20526.9,4068.1 c -14.5,10.7 -34.3,24.3 -52.4,32.8 -12.5,5.9 -27.4,1.6 -34.5,-10.3 l -20.2,-34.3 c -7,-11.8 -3.3,-27.2 8.5,-34.4 14.4,-8.8 34.8,-20.3 55.6,-29.1 14.6,-6.2 31.5,-0.3 39.2,13.5 l 12.3,22.1 c 7.5,13.5 3.9,30.4 -8.5,39.7"
         style="fill:#ffc197;fill-opacity:1;fill-rule:nonzero;stroke:none"
         id="path338" />
      <path
         d="m 20477,3931.8 c -14.4,10.7 -34,24.1 -51.9,32.5 -12.3,5.9 -27.1,1.6 -34.1,-10.2 l -20,-33.9 c -6.9,-11.7 -3.2,-26.9 8.4,-34 14.3,-8.7 34.5,-20.1 55,-28.9 14.5,-6.1 31.2,-0.3 38.8,13.4 l 12.2,21.8 c 7.4,13.4 3.9,30.2 -8.4,39.3"
         style="fill:#ffc197;fill-opacity:1;fill-rule:nonzero;stroke:none"
         id="path340" />
      <path
         d="m 20375.7,3846.7 c -12.3,9.1 -28.9,20.5 -44.1,27.6 -10.6,5 -23.1,1.3 -29,-8.7 l -17,-28.8 c -5.9,-10 -2.8,-22.9 7.1,-28.9 12.2,-7.4 29.3,-17.1 46.8,-24.6 12.2,-5.2 26.5,-0.2 33,11.4 l 10.3,18.6 c 6.3,11.3 3.3,25.6 -7.1,33.4"
         style="fill:#ffc197;fill-opacity:1;fill-rule:nonzero;stroke:none"
         id="path342" />
      <path
         d="m 20236.2,3789.5 c -10.6,7.9 -25,17.8 -38.2,24 -9.2,4.3 -20,1.1 -25.2,-7.5 l -14.7,-25 c -5.2,-8.7 -2.4,-19.9 6.2,-25.1 10.5,-6.4 25.4,-14.8 40.5,-21.3 10.7,-4.5 23,-0.2 28.6,9.9 l 9,16.1 c 5.5,9.8 2.9,22.2 -6.2,28.9"
         style="fill:#ffc197;fill-opacity:1;fill-rule:nonzero;stroke:none"
         id="path344" />
      <path
         d="m 20695.1,2796.5 h -508.8 c 41.1,219.9 77.2,388.8 77.2,388.8 3.8,9.2 8.7,18.1 14.6,26.7 64,94.2 240.6,153.4 313.1,174.5 19.8,5.7 31.9,8.6 31.9,8.6 0,0 34.6,-274.3 72,-598.6"
         style="fill:#82b378;fill-opacity:1;fill-rule:nonzero;stroke:none"
         id="path346" />
      <path
         d="m 10859.5,4530.9 112.2,-361.4 c 0,0 78.3,-7.7 89.6,-93.8 11.3,-86.1 -86.7,-595.9 -86.7,-595.9 l 485.3,72.7 c -5.7,15.2 -101.5,634 -87.5,714.3 13.9,80.2 136.7,209.4 41.8,380 -51.7,92.7 -42.9,203.1 -24.4,284.2 6.9,29.7 15,55.6 22.1,75.2 3.6,10.3 1.3,20.6 -4.6,28.1 -6.5,8.2 -17.1,12.8 -28.6,10.5 -29.7,-6.2 -67.5,-22.7 -98.7,-64.5 -22.7,-30.3 -29.8,-83.5 -45.1,-135.9 -50.4,54 -175,56.6 -231.9,40 -97.3,-28.2 -143.5,-353.5 -143.5,-353.5"
         style="fill:#efa26f;fill-opacity:1;fill-rule:nonzero;stroke:none"
         id="path348" />
      <path
         d="m 11380.1,4935.7 9.7,-4.7 c 6.9,29.7 39,86.6 46.1,106.2 3.6,10.3 -17.4,9.5 -26,3.1 -5.3,-2.4 -12.5,-12.4 -15.6,-17.6 -9.3,-15.1 -20.8,-35.7 -27.5,-54.2 -4.8,-12.8 0.8,-27 13.3,-32.8"
         style="fill:#ffc197;fill-opacity:1;fill-rule:nonzero;stroke:none"
         id="path350" />
      <path
         d="m 10840.7,3854.2 10.8,-3.8 c 35.6,-12.6 70.6,-5.2 77.7,16.4 l 466.7,1408 -80.3,28.3 -524.1,-1388.5 c -7.9,-20.9 14.2,-48.1 49.2,-60.4"
         style="fill:#efcbab;fill-opacity:1;fill-rule:nonzero;stroke:none"
         id="path352" />
      <path
         d="m 10474.4,5563.8 1743.8,-615.6 c 49.2,-17.4 103.7,8.7 121,57.9 l 568.3,1609.7 c 17.3,49.2 -8.7,103.6 -57.9,121 l -1743.8,615.6 c -49.2,17.3 -103.7,-8.7 -121,-57.9 l -568.3,-1609.7 c -17.4,-49.2 8.7,-103.6 57.9,-121"
         style="fill:#739af0;fill-opacity:1;fill-rule:nonzero;stroke:none"
         id="path354" />
      <path
         d="m 10820.2,5536.9 1112,-392.5 c 172.9,-61.1 364.3,30.4 425.3,203.4 l 349.7,990.5 c 61,172.9 -30.5,364.3 -203.4,425.4 l -1112,392.5 c -172.9,61 -364.3,-30.5 -425.3,-203.4 l -349.7,-990.5 c -61,-172.9 30.5,-364.4 203.4,-425.4"
         style="fill:#fcecdb;fill-opacity:1;fill-rule:nonzero;stroke:none"
         id="path356" />
      <path
         d="m 11467,6795 c -3.7,14.8 -20.7,27.2 -50.8,37.3 -31.2,10.5 -73,22.3 -125.4,35.5 -52.4,13.2 -91.6,19.8 -117.7,19.8 -50.6,0.7 -81.8,-16.5 -93.5,-51.6 -16.3,-48.7 4.8,-82.7 63.2,-102.3 l 96.4,-32.3 -244.2,-730.3 -114,38.1 c -65.3,21.8 -107.3,4.5 -126.2,-52 -9.1,-27.3 -6.7,-51.7 7.2,-73.1 14,-21.4 35,-36.9 63.3,-46.3 l 400.3,-133.9 c 64.2,-21.5 106.1,-3 125.7,55.4 18.5,55.6 -4.3,94 -68.6,115.5 l -99.3,33.3 264.3,790.2 c 16.6,49.7 23,81.9 19.3,96.7"
         style="fill:#b2443b;fill-opacity:1;fill-rule:nonzero;stroke:none"
         id="path358" />
      <path
         d="m 12248.4,5955.5 c -32.3,-96.6 -69.8,-173.1 -112.4,-229.3 -64.8,-86.8 -135.1,-117.5 -211.1,-92.1 -131.4,44 -154.1,194.7 -67.9,452.3 31.9,95.6 69.8,171.9 113.8,228.8 64.1,84.8 134.6,114.4 211.6,88.7 75,-25.1 112.9,-91.4 113.7,-199.2 -0.2,-71.5 -16.1,-154.6 -47.7,-249.2 z m 235.8,331.2 c -21,118.3 -80.4,203.8 -178.4,256.3 -21.2,11.3 -44,21.1 -68.7,29.4 -139.3,46.5 -262.4,20 -369.3,-79.6 -83.5,-78.1 -150.5,-192.7 -201,-343.6 -50.5,-151 -65.5,-283.5 -45.2,-397.4 25.5,-144 107.4,-239 245.7,-285.2 138.2,-46.2 260.9,-19.6 367.8,80 84.8,78.8 152.5,193.7 203,344.7 3.3,9.8 6.4,19.6 9.4,29.3 v 0 c 42.9,138.8 55.1,260.7 36.7,366.1"
         style="fill:#b2443b;fill-opacity:1;fill-rule:nonzero;stroke:none"
         id="path360" />
      <path
         d="m 10978.6,4865.2 251.4,-137.7 c 21,-12.3 40.5,-9.3 52.8,11.6 l 22.9,39.1 c 12.3,20.9 5.2,48.1 -15.8,60.4 l -196.9,128.6 c -25.7,16.4 -60.9,8.5 -79,-10.8 0,0 -77.4,-69 -35.4,-91.2"
         style="fill:#ffb27d;fill-opacity:1;fill-rule:nonzero;stroke:none"
         id="path362" />
      <path
         d="m 10900.8,4749 254.6,-149.2 c 33.1,-19.4 76.1,-8.1 95.5,25 v 0 c 19.4,33.1 8.2,76.1 -24.9,95.5 l -254.7,149.2 c -33.1,19.4 -63.6,31.7 -95.5,-25 v 0 c -33.3,-44.1 -8.2,-76 25,-95.5"
         style="fill:#ffb27d;fill-opacity:1;fill-rule:nonzero;stroke:none"
         id="path364" />
      <path
         d="m 10864.4,4639.5 207.1,-109.1 c 28.5,-16.8 59.2,-15.5 75.9,13.1 v 0 c 16.8,28.6 7.1,65.7 -21.5,82.4 l -200.6,117.6 c -28.6,16.7 -56.7,34.8 -82.5,-21.5 v 0 c -20.9,-38.4 -7.3,-66.3 21.6,-82.5"
         style="fill:#ffb27d;fill-opacity:1;fill-rule:nonzero;stroke:none"
         id="path366" />
      <path
         d="m 10823.7,4545.6 117.6,-68.9 c 24.7,-14.5 56.7,-6.1 71.2,18.5 v 0 c 14.4,24.7 6,56.7 -18.6,71.2 l -117.6,68.9 c -24.7,14.4 -56.7,6.1 -71.1,-18.6 v 0 c -14.5,-24.7 -6.1,-56.7 18.5,-71.1"
         style="fill:#ffb27d;fill-opacity:1;fill-rule:nonzero;stroke:none"
         id="path368" />
      <path
         d="m 11301.6,4804.2 c -14.4,10.4 -34,23.6 -51.9,31.8 -12.3,5.7 -27,1.2 -33.8,-10.6 l -19.5,-33.8 c -6.8,-11.8 -3,-26.8 8.7,-33.8 14.3,-8.5 34.4,-19.6 55,-28.1 14.4,-6 31,0 38.4,13.7 l 11.9,21.8 c 7.2,13.4 3.5,30 -8.8,39"
         style="fill:#ffc197;fill-opacity:1;fill-rule:nonzero;stroke:none"
         id="path370" />
      <path
         d="m 11253.9,4669.7 c -14.2,10.3 -33.6,23.3 -51.3,31.5 -12.3,5.6 -26.7,1.2 -33.5,-10.5 l -19.3,-33.5 c -6.7,-11.7 -2.9,-26.5 8.6,-33.4 14.2,-8.4 34.1,-19.4 54.4,-27.8 14.3,-5.9 30.7,0 38.1,13.6 l 11.7,21.5 c 7.2,13.3 3.5,29.7 -8.7,38.6"
         style="fill:#ffc197;fill-opacity:1;fill-rule:nonzero;stroke:none"
         id="path372" />
      <path
         d="m 11155.1,4584.9 c -12.1,8.8 -28.6,19.9 -43.6,26.8 -10.4,4.7 -22.7,1 -28.5,-8.9 l -16.4,-28.5 c -5.7,-9.9 -2.5,-22.6 7.3,-28.4 12.1,-7.2 29,-16.5 46.3,-23.7 12.1,-5 26.1,0.1 32.3,11.6 l 10,18.3 c 6.1,11.3 3,25.3 -7.4,32.8"
         style="fill:#ffc197;fill-opacity:1;fill-rule:nonzero;stroke:none"
         id="path374" />
      <path
         d="m 11018.5,4527.3 c -10.4,7.6 -24.7,17.2 -37.8,23.2 -9,4.1 -19.7,0.9 -24.7,-7.7 l -14.2,-24.7 c -5,-8.6 -2.2,-19.6 6.3,-24.7 10.5,-6.2 25.2,-14.3 40.1,-20.5 10.6,-4.3 22.7,0.1 28.1,10 l 8.6,15.9 c 5.3,9.8 2.6,21.9 -6.4,28.5"
         style="fill:#ffc197;fill-opacity:1;fill-rule:nonzero;stroke:none"
         id="path376" />
      <path
         d="m 11566.1,2796.5 h -688.8 c 6.2,109.5 22.7,247.4 43.3,389.2 8.6,59.2 17.8,118.9 27.4,177.5 2,12.7 4.1,25.5 6.1,38 2.4,14.2 4.7,28.3 7.1,42.2 2.3,13.5 4.5,26.9 6.8,40.1 4.8,28 9.6,55.3 14.3,81.9 2.8,0.2 5.6,0.5 8.4,0.7 93.6,9.1 234.2,28.3 311.4,66.2 51.7,25.4 97.7,47.7 134.4,61.9 8.8,3.5 17.1,6.4 24.8,8.8 9,-70.7 18.6,-146.1 28.2,-223.2 29.7,-240.1 59.7,-497.5 76.6,-683.3"
         style="fill:#2b478b;fill-opacity:1;fill-rule:nonzero;stroke:none"
         id="path378" />
      <path
         d="m 11489.5,3479.7 c 0,0 -508.6,-167.6 -568.9,-294 8.6,59.1 17.8,118.9 27.4,177.5 2.1,12.7 4.1,25.5 6.1,38 20.2,18 45.1,30.4 75.4,33.4 l 460,45.1"
         style="fill:#233862;fill-opacity:1;fill-rule:nonzero;stroke:none"
         id="path380" />
      <path
         d="m 11489.5,3479.7 c -134.2,-53.8 -419.8,-125 -541.5,-116.5 -15.9,1.1 -28.9,3.5 -38.5,7.6 0,0 -26.6,18.3 -18.5,47.1 0.9,2.9 2,6.1 3.7,9.3 10.9,21.2 -11.7,61.8 -17.4,92.8 -3.5,18.8 -0.8,34 19.4,39.2 0,0 34.9,1.6 85.6,6.2 93.4,8.7 240.2,27.8 319.8,66.9 64.2,31.5 119.5,58.3 159.2,70.7 36.1,11.2 59.1,10.4 63.7,-9.7 9.6,-42.1 12.6,-123.9 36,-166.6 5.6,-10.4 -23.1,-27.5 -71.5,-47"
         style="fill:#2b478b;fill-opacity:1;fill-rule:nonzero;stroke:none"
         id="path382" />
      <path
         d="m 11049.3,3465.1 c -14.9,-3.2 -138.8,-31.1 -158.3,-47.2 0.9,2.9 2,6.1 3.7,9.3 10.9,21.2 -11.7,61.8 -17.4,92.8 9.5,-8.4 56.7,-45 148.7,-37.9 103.9,7.9 39.7,-13.5 23.3,-17"
         style="fill:#233862;fill-opacity:1;fill-rule:nonzero;stroke:none"
         id="path384" />
      <path
         d="m 17315,3990.3 252.5,-316.8 c 0,0 81.1,22.7 125.9,-58.8 44.8,-81.5 215.5,-557.9 215.5,-557.9 l 303.8,256.6 c -11.6,13 -266,527.5 -283.2,613 -17.4,85.5 54.9,262.2 -106.3,395.4 -87.6,72.4 -121.8,185.9 -134.8,274.1 -4.7,32.4 -6.7,61.3 -7.3,83.6 -0.4,11.7 -6.7,21 -15.5,26.2 -9.6,5.7 -22,6.2 -32.6,-0.6 -27.2,-17.7 -58.5,-48.9 -73.3,-102.7 -10.9,-39.1 2.7,-95 7.8,-153.2 -71.3,34.3 -196.7,-11.6 -247,-50.3 -86.1,-66 -5.5,-408.6 -5.5,-408.6"
         style="fill:#efa26f;fill-opacity:1;fill-rule:nonzero;stroke:none"
         id="path386" />
      <path
         d="m 17676.8,4596.7 11.6,-0.8 c -4.7,32.4 5.2,101.6 4.6,123.9 -0.4,11.7 -21,2.7 -27.1,-7 -4.3,-4.5 -7.6,-17.2 -8.8,-23.7 -3.3,-18.7 -6.8,-43.7 -6.3,-64.7 0.2,-14.7 11.4,-26.7 26,-27.7"
         style="fill:#ffc197;fill-opacity:1;fill-rule:nonzero;stroke:none"
         id="path388" />
      <path
         d="m 17743.1,3450.9 c 0,0 17.3,-122.2 45.4,-294.9 0.1,-1.2 0.3,-2.4 0.5,-3.5 0.7,-4.7 1.5,-9.3 2.3,-13.9 0,-0.2 0,-0.5 0.1,-0.8 0.7,-4.4 1.4,-8.9 2.2,-13.3 2.2,-13.3 4.4,-26.7 6.9,-41.7 2.5,-15.2 5.1,-30.6 7.8,-46.4 2.7,-15.9 5.4,-32.1 8.3,-48.5 27,-157.3 31.7,-180.2 34.1,-191.4 h 658.3 c -110.3,225.7 -130.1,249.5 -268.8,506.8 -8.4,15.5 -16.6,30.8 -24.8,45.9 -110.2,204 -194.2,356.5 -199.8,366.7 -0.2,0.3 -0.3,0.5 -0.3,0.5 0,0 -244.5,-55.2 -270.5,-220.3 -2.4,-14.2 -3,-29.3 -1.7,-45.2"
         style="fill:#f99746;fill-opacity:1;fill-rule:nonzero;stroke:none"
         id="path390" />
      <path
         d="m 17633.6,3501.2 11.5,1.1 c 37.6,3.6 66.1,25 63.5,47.5 l -175.6,1512.6 -84.8,-8.1 115.3,-1519.1 c 1.7,-22.3 33.2,-37.6 70.1,-34"
         style="fill:#efcbab;fill-opacity:1;fill-rule:nonzero;stroke:none"
         id="path392" />
      <path
         d="m 16575.4,4936.2 1840.9,176.6 c 51.9,4.9 90.3,51.5 85.4,103.4 l -163,1699.3 c -5,51.9 -51.5,90.3 -103.4,85.3 l -1840.9,-176.5 c -51.9,-4.9 -90.4,-51.5 -85.4,-103.4 l 163,-1699.3 c 5,-51.9 51.5,-90.3 103.4,-85.4"
         style="fill:#739af0;fill-opacity:1;fill-rule:nonzero;stroke:none"
         id="path394" />
      <path
         d="m 16900.4,5057.6 1173.8,112.5 c 182.5,17.5 317.6,181.2 300.1,363.7 L 18274,6579.5 c -17.5,182.5 -181.1,317.5 -363.7,300 L 16736.5,6767 c -182.6,-17.5 -317.6,-181.2 -300.1,-363.7 l 100.3,-1045.7 c 17.5,-182.5 181.2,-317.5 363.7,-300"
         style="fill:#fcecdb;fill-opacity:1;fill-rule:nonzero;stroke:none"
         id="path396" />
      <path
         d="m 17243.5,6272.4 c 3.8,-44 19.5,-79.5 47,-106.5 27.6,-27 62.9,-38.6 105.9,-35 42.9,3.7 75.9,22 98.8,54.9 21.2,29.7 29.9,66.5 26.1,110.4 -3.4,40 -19.2,70.8 -47.3,92.6 -28.2,21.8 -62.2,31 -102.1,27.6 -42,-3.6 -74.7,-18.3 -98.3,-44 -23.5,-25.7 -33.6,-59.1 -30.1,-100 z m 4.2,-499.8 c 5.1,-58.5 24.1,-103.7 57.3,-135.5 33.1,-31.8 78.9,-45.2 137.2,-40.2 57.3,4.9 99.5,25.9 126.7,62.8 27.3,37 38.4,84.8 33.3,143.3 -4.8,56.5 -24.1,101.5 -57.9,134.8 -36.2,37.2 -81.3,53.5 -135.6,48.9 -55.2,-4.8 -97.1,-27.5 -125.5,-68.2 -28.5,-40.7 -40.3,-89.3 -35.5,-145.9 z m -45,272.2 c -87.3,45 -135.4,119.2 -144.2,222.6 -7.6,88 18.5,161.8 78.3,221.6 57,56.4 130.6,88.5 220.6,96.2 90,7.7 167.4,-11.4 232.2,-57.4 69.1,-48.7 107.4,-117.1 114.9,-205 8.8,-102.3 -25.4,-183.6 -102.7,-243.8 122.5,-46.2 189.5,-136.8 201.1,-271.9 9.2,-107.4 -19.7,-197 -86.7,-268.7 -63.3,-67.2 -149.7,-105.6 -259.2,-114.9 -109.5,-9.4 -202.2,14.3 -278.1,71.2 -76,56.8 -118.7,139.5 -128,248 -11.7,136 38.9,236.8 151.8,302.1"
         style="fill:#b2443b;fill-opacity:1;fill-rule:nonzero;stroke:none"
         id="path398" />
      <path
         d="m 17303.7,4370.2 304.4,-39.5 c 25.7,-4.1 44.1,6.4 48.2,32.1 l 7.6,47.9 c 4.1,25.7 -13.6,50 -39.3,54.1 l -246.5,51.8 c -32.1,6.3 -64,-15.3 -74.6,-41.6 0,0 -50.3,-98.9 0.2,-104.8"
         style="fill:#ffb27d;fill-opacity:1;fill-rule:nonzero;stroke:none"
         id="path400" />
      <path
         d="m 17271.2,4224.1 312.1,-49.8 c 40.7,-6.5 79.2,21.4 85.6,62 v 0 c 6.5,40.6 -21.4,79.1 -62,85.6 l -312.2,49.8 c -40.5,6.5 -75.8,6.9 -85.5,-62.1 v 0 c -16.1,-57 21.4,-79.1 62,-85.5"
         style="fill:#ffb27d;fill-opacity:1;fill-rule:nonzero;stroke:none"
         id="path402" />
      <path
         d="m 17277.5,4100.6 249.1,-28.3 c 35.1,-5.6 65.1,7.6 70.7,42.7 v 0 c 5.6,35 -18.5,68.2 -53.6,73.8 l -245.9,39.2 c -35,5.6 -70,12.7 -73.8,-53.5 v 0 c -6.1,-46.4 18.5,-68.9 53.5,-73.9"
         style="fill:#ffb27d;fill-opacity:1;fill-rule:nonzero;stroke:none"
         id="path404" />
      <path
         d="m 17273.5,3991.1 144.2,-23 c 30.2,-4.8 58.9,16 63.7,46.2 v 0 c 4.8,30.2 -15.9,58.9 -46.2,63.7 l -144.1,23 c -30.3,4.8 -59,-16 -63.8,-46.2 v 0 c -4.8,-30.2 16,-58.9 46.2,-63.7"
         style="fill:#ffb27d;fill-opacity:1;fill-rule:nonzero;stroke:none"
         id="path406" />
      <path
         d="m 17649.7,4435 c -18.4,4.9 -43.1,10.4 -64.1,11.6 -14.6,0.8 -27.4,-9.3 -29.6,-23.7 l -6.4,-41.4 c -2.2,-14.4 7.5,-27.9 21.8,-30.3 17.7,-2.9 42,-6.1 65.8,-6.6 16.7,-0.4 31,12.1 33.1,28.6 l 3.3,26.4 c 2,16.1 -8.2,31.3 -23.9,35.4"
         style="fill:#ffc197;fill-opacity:1;fill-rule:nonzero;stroke:none"
         id="path408" />
      <path
         d="m 17654.5,4282.3 c -18.3,4.8 -42.7,10.2 -63.5,11.4 -14.4,0.9 -27.1,-9.2 -29.3,-23.4 l -6.3,-41 c -2.1,-14.2 7.4,-27.6 21.6,-30 17.4,-2.9 41.6,-6.1 65.1,-6.5 16.6,-0.4 30.6,11.9 32.7,28.3 l 3.3,26.1 c 2,16 -8,31 -23.6,35.1"
         style="fill:#ffc197;fill-opacity:1;fill-rule:nonzero;stroke:none"
         id="path410" />
      <path
         d="m 17588.9,4159.3 c -15.5,4 -36.3,8.6 -54,9.7 -12.2,0.7 -23,-7.8 -24.9,-19.9 l -5.3,-34.9 c -1.9,-12.1 6.3,-23.4 18.3,-25.5 14.9,-2.4 35.4,-5.1 55.4,-5.6 14,-0.2 26,10.2 27.8,24.2 l 2.8,22.1 c 1.7,13.6 -6.9,26.4 -20.1,29.9"
         style="fill:#ffc197;fill-opacity:1;fill-rule:nonzero;stroke:none"
         id="path412" />
      <path
         d="m 17475,4048.6 c -13.4,3.6 -31.4,7.6 -46.8,8.5 -10.6,0.6 -20,-6.8 -21.6,-17.3 l -4.6,-30.2 c -1.6,-10.5 5.5,-20.4 15.9,-22.1 12.9,-2.2 30.7,-4.5 48,-4.9 12.2,-0.2 22.6,8.8 24.1,20.9 l 2.5,19.3 c 1.5,11.8 -6,22.8 -17.5,25.8"
         style="fill:#ffc197;fill-opacity:1;fill-rule:nonzero;stroke:none"
         id="path414" />
      <path
         d="m 17785.5,3150 c 0.7,1.6 2.1,4.3 3,6 0.1,-1.2 0.3,-2.4 0.5,-3.5 0.7,-4.7 1.5,-9.3 2.3,-13.9 0,-0.2 0,-0.5 0.1,-0.8 0.7,-4.4 1.4,-8.9 2.2,-13.3 2.2,-13.3 4.4,-26.7 6.9,-41.7 -0.2,-1.3 -0.4,-7.7 -0.4,-8.9 -0.7,-13.9 1.4,-25.8 6.6,-34.9 0.5,-0.9 1,-1.7 1.6,-2.6 1,-1.6 2.1,-3 3.3,-4.4 17.2,-19.4 54.3,-21.4 101.8,-5.5 52.9,17.7 111.8,54.6 165.8,104.1 57.1,52.4 107,121.1 127,177.3 1.3,3.6 2.4,7.1 3.4,10.5 3.3,10.9 5.2,21.3 5.8,30.8 v 0.3 c 0.9,17 -2.7,31.3 -12.1,41.9 -4.4,5 -9.9,8.9 -16.2,11.5 -7,13.3 -13.8,26.1 -20.6,38.8 26.1,-1.5 47.5,-10.2 62.3,-27 22.7,-25.7 25.5,-65.4 11.4,-111.4 -0.1,-0.1 -0.1,-0.3 -0.1,-0.4 -18.8,-61.1 -67.3,-133.2 -138,-198.1 -57.5,-52.7 -120.7,-92.4 -178,-111.3 -27.8,-9.4 -52.9,-13.4 -74.7,-12.3 -12,0.7 -23,2.9 -32.8,6.7 -0.5,0.1 -0.9,0.3 -1.3,0.5 -0.7,0.2 -1.3,0.5 -2,0.8 -10.6,4.5 -19.7,11.1 -27.2,19.5 -27,30.5 -27.2,80.6 -0.6,141.3"
         style="fill:#2b478b;fill-opacity:1;fill-rule:nonzero;stroke:none"
         id="path416" />
      <path
         d="m 15006.7,5059.9 c 0,-0.6 0,-1.2 -0.1,-1.7 -3.7,-61.9 -10.2,-108.7 -10.2,-108.7 l -4.7,-7.1 -173.2,-264.1 -42,-64.2 c 0,0 -58.9,10.8 -99.2,-37.3 -7.2,-8.7 -13.9,-19.2 -19.5,-32.1 -8.1,-18.7 -20.6,-57 -35,-105.3 0,0 -15.9,-346.8 -48,-706.9 -7.2,-80.3 -15.2,-161.3 -23.9,-239.2 h -692.2 c 58,149.1 128.1,322.1 197.5,490.4 158.4,384.4 313.1,745.1 313.3,745.5 15,47 25.2,83.5 27.1,101.1 9.3,85.9 -78.1,253.4 68.6,399.5 79.8,79.3 103,194.4 107.9,282.5 1.7,32.3 -14.5,99.6 -15.9,121.7 -0.6,11.6 20.5,4.6 27.4,-4.5 1.3,-1.1 2.6,-3 3.9,-5 8.6,4.9 19.3,5.7 29.3,0.5 28.4,-15 62.1,-42.9 81.6,-94.6 12,-31.5 8,-76 6.7,-123.5 -0.3,-9.3 -0.5,-18.7 -0.4,-28.2 0.1,0.1 0.2,0.1 0.3,0.2 28.4,16.9 67.6,20.7 107.3,16.8 54.3,-5.2 109.8,-24.6 140.4,-43.9 9.2,-5.8 16.9,-14.5 23.5,-25.6 0,0 0,-0.1 0.1,-0.1 18.8,-31.9 27.4,-82.7 30.4,-136.8 0.2,-2.7 0.4,-5.4 0.5,-8 1.9,-41.3 0.8,-84 -1.5,-121.4"
         style="fill:#efa26f;fill-opacity:1;fill-rule:nonzero;stroke:none"
         id="path418" />
      <path
         d="m 14752.9,4446.8 -11.6,0.1 c -37.7,0.6 -67.9,19.6 -67.1,42.3 l 50.3,1407.3 85.2,-1.2 10.3,-1408.9 c 0.1,-22.3 -30.1,-40.2 -67.1,-39.6"
         style="fill:#efcbab;fill-opacity:1;fill-rule:nonzero;stroke:none"
         id="path420" />
      <path
         d="m 15689.2,5848.5 -1849.2,26.4 c -52.1,0.8 -94.2,44.1 -93.5,96.2 l 24.4,1706.9 c 0.8,52.2 44.1,94.2 96.2,93.5 l 1849.2,-26.5 c 52.1,-0.7 94.2,-44 93.4,-96.1 L 15785.3,5942 c -0.7,-52.2 -44,-94.2 -96.1,-93.5"
         style="fill:#739af0;fill-opacity:1;fill-rule:nonzero;stroke:none"
         id="path422" />
      <path
         d="m 15355.4,5943 -1179.1,16.9 c -183.3,2.6 -331.2,154.8 -328.6,338.1 l 15,1050.4 c 2.7,183.3 154.8,331.2 338.2,328.5 l 1179.1,-16.8 c 183.3,-2.6 331.2,-154.8 328.6,-338.1 l -15,-1050.4 c -2.7,-183.3 -154.8,-331.2 -338.2,-328.6"
         style="fill:#fcecdb;fill-opacity:1;fill-rule:nonzero;stroke:none"
         id="path424" />
      <path
         d="m 14906,6498.1 c -31.9,-40.1 -75.5,-60 -130.9,-60 -55.5,0 -98.6,22 -129.4,66.2 -26.8,39 -40.1,87.8 -40.1,146.3 0,45.2 8.7,81.6 26.2,109.3 31.8,51.4 81.1,77.1 147.9,77.1 55.4,0 97.6,-18.8 126.3,-56.3 28.7,-37.5 43.1,-84.5 43.1,-140.9 0,-57.5 -14.4,-104.8 -43.1,-141.7 z m 167.9,391.2 c -56.5,75 -132,112.5 -226.4,112.5 -49.3,0 -94.5,-9.3 -135.6,-27.7 h -3 c 58.5,92.4 138.6,188.9 240.2,289.5 22.6,22.6 33.9,45.2 33.9,67.8 0,25.7 -9.2,47.2 -27.7,64.7 -18.5,17.4 -40.6,26.2 -66.3,26.2 -25.7,0 -71.8,-33.9 -138.6,-101.7 -231,-235.2 -346.5,-455.9 -346.5,-662.3 0,-111.9 32.3,-205.9 97,-281.9 68.7,-81.1 158.1,-121.7 268,-121.7 114,0 206.4,35.9 277.3,107.8 70.8,71.9 106.2,164.9 106.2,278.8 0,97.6 -26.2,180.2 -78.5,248"
         style="fill:#b2443b;fill-opacity:1;fill-rule:nonzero;stroke:none"
         id="path426" />
      <path
         d="m 14972.9,5325 -296.5,-66.8 c -24.9,-6.3 -44,2.3 -50.4,27.3 l -11.9,46.5 c -6.4,24.9 8.8,50.5 33.8,56.9 l 238.3,73.5 c 31,9.2 64.5,-9.2 77.3,-34.1 0,0 58.7,-93 9.4,-103.3"
         style="fill:#ffb27d;fill-opacity:1;fill-rule:nonzero;stroke:none"
         id="path428" />
      <path
         d="m 15018.3,5183.9 -303.2,-77.6 c -39.4,-10.1 -79.9,13.9 -90,53.3 v 0 c -10.1,39.5 13.9,80 53.3,90.1 l 303.2,77.5 c 39.4,10.1 74.1,13.8 90,-53.3 v 0 c 21,-54.8 -13.9,-80 -53.3,-90"
         style="fill:#ffb27d;fill-opacity:1;fill-rule:nonzero;stroke:none"
         id="path430" />
      <path
         d="m 15023.3,5061.6 -243,-50.7 c -34,-8.7 -64.8,1.6 -73.5,35.7 v 0 c -8.7,34 12,68.9 46.1,77.6 l 238.7,61.2 c 34.1,8.7 68,18.9 77.7,-46.1 v 0 c 10.2,-45.2 -11.9,-69.6 -46,-77.7"
         style="fill:#ffb27d;fill-opacity:1;fill-rule:nonzero;stroke:none"
         id="path432" />
      <path
         d="m 15037.2,4954 -140,-35.8 c -29.3,-7.5 -59.5,10.4 -67,39.7 v 0 c -7.5,29.4 10.4,59.5 39.7,67 l 140,35.9 c 29.4,7.5 59.6,-10.4 67.1,-39.8 v 0 c 7.5,-29.3 -10.4,-59.5 -39.8,-67"
         style="fill:#ffb27d;fill-opacity:1;fill-rule:nonzero;stroke:none"
         id="path434" />
      <path
         d="m 14625.9,5357.3 c 17.7,6.4 41.5,14.1 62.2,17.2 14.2,2.2 27.8,-6.6 31.3,-20.6 l 10,-40.3 c 3.5,-13.9 -4.8,-28.1 -18.7,-31.8 -17.1,-4.5 -40.8,-9.9 -64.2,-12.6 -16.5,-1.8 -31.6,9.1 -35.2,25.3 l -5.7,25.6 c -3.5,15.8 5.2,31.7 20.3,37.2"
         style="fill:#ffc197;fill-opacity:1;fill-rule:nonzero;stroke:none"
         id="path436" />
      <path
         d="m 14635.2,5206.3 c 17.5,6.4 41.1,13.9 61.5,17 14.1,2.2 27.6,-6.5 31,-20.4 l 9.9,-39.8 c 3.5,-13.8 -4.8,-27.9 -18.5,-31.5 -16.9,-4.5 -40.4,-9.8 -63.6,-12.5 -16.3,-1.8 -31.3,9.1 -34.8,25 l -5.6,25.4 c -3.5,15.6 5.1,31.3 20.1,36.8"
         style="fill:#ffc197;fill-opacity:1;fill-rule:nonzero;stroke:none"
         id="path438" />
      <path
         d="m 14711.1,5091 c 14.9,5.4 34.9,11.9 52.2,14.5 12.1,1.8 23.5,-5.6 26.4,-17.4 l 8.4,-33.8 c 3,-11.8 -4,-23.7 -15.7,-26.8 -14.4,-3.8 -34.4,-8.3 -54.1,-10.6 -13.8,-1.5 -26.5,7.7 -29.5,21.3 l -4.8,21.5 c -3,13.3 4.3,26.6 17.1,31.3"
         style="fill:#ffc197;fill-opacity:1;fill-rule:nonzero;stroke:none"
         id="path440" />
      <path
         d="m 14833.4,4992.3 c 12.9,4.7 30.3,10.3 45.3,12.6 10.4,1.6 20.4,-4.8 22.9,-15.1 l 7.3,-29.3 c 2.5,-10.2 -3.5,-20.6 -13.7,-23.2 -12.4,-3.3 -29.8,-7.3 -46.8,-9.2 -12,-1.4 -23.1,6.6 -25.7,18.4 l -4.2,18.7 c -2.5,11.5 3.8,23.1 14.9,27.1"
         style="fill:#ffc197;fill-opacity:1;fill-rule:nonzero;stroke:none"
         id="path442" />
      <path
         d="m 14574.8,3732.5 c -7.2,-80.3 -71,-858 -79.8,-936 h -917 c 58.1,149.1 408.8,1018.9 478.2,1187.2 0,0 135.9,-289.3 518.6,-251.2"
         style="fill:#739af0;fill-opacity:1;fill-rule:nonzero;stroke:none"
         id="path444" />
      <path
         d="m 24030,3205.8 -17.9,-9.3 h -341 c -15.2,117.9 -35.7,269.7 -51,352.9 -3.9,21.1 -7.4,37.7 -10.5,48.4 -5,17.8 -12.6,31.8 -21.3,42.7 -33.1,41.5 -83.5,39 -83.5,39 l -37.7,78.3 -126.8,263.9 v 0 l -3.6,7.4 c 0,0 -0.3,45.6 4.1,105.5 0,0.5 0.1,1.1 0.2,1.7 2.6,36.1 7,77.2 14.1,116.5 0.4,2.5 0.9,5.1 1.4,7.6 v 0.1 c 9.9,51.5 24.6,99.1 46.8,127.2 v 0.1 c 7.7,9.7 16.3,17.1 25.8,21.4 32,14.7 87.9,26.2 140.8,24.2 38.6,-1.4 75.5,-10.1 100.4,-30 1.3,9.1 2.3,18.1 3.2,27 2.7,24.9 4.4,49 7.9,70.3 l 0.1,0.3 c 2.9,17.9 7.2,34 14.2,47 25.3,47.1 61.2,69.5 90.4,80.3 10.2,3.7 20.3,1.5 28,-4.3 0.8,-0.6 1.7,-1.3 2.6,-2.1 7.1,-6.7 11,-16.8 8.9,-27.8 -4.2,-20.3 -8.3,-46.6 -10.8,-76.6 -0.1,-1 -0.3,-2 -0.3,-3 -6.7,-85.1 1,-198.3 67.3,-284.6 121.9,-158.7 16.8,-308.2 14.7,-391.6 -0.6,-23.1 8.7,-80.6 22.7,-152.2 36.5,-187 105,-469.8 110.8,-480.3"
         style="fill:#efa26f;fill-opacity:1;fill-rule:nonzero;stroke:none"
         id="path446" />
      <path
         d="m 23803.8,4517.8 10.7,-3.3 c 2.5,31.2 26.5,93.7 30.7,114.7 2.2,10.9 -19,7 -26.8,-0.9 -5,-3.2 -10.8,-14.3 -13.2,-20.2 -7.1,-16.7 -15.7,-39.2 -19.7,-59 -3,-13.7 4.9,-27.3 18.3,-31.3"
         style="fill:#b2443b;fill-opacity:1;fill-rule:nonzero;stroke:none"
         id="path448" />
      <path
         d="m 24322.5,2796.5 h -760.9 c 2.4,53.3 5.3,502 8.4,544.4 7.7,105.5 50.1,208.5 50.1,208.5 175.3,30.7 299.1,136.7 299.1,136.7 0,0 92.1,-19.9 137.9,-141.5 37.4,-99.2 220.1,-620 265.4,-748.1"
         style="fill:#2b478b;fill-opacity:1;fill-rule:nonzero;stroke:none"
         id="path450" />
      <path
         d="m 23483.4,3416.2 11.4,-1.5 c 37.4,-4.9 70.1,9.6 72.5,32.2 l 151.6,1400 -84.4,11 -211.9,-1392.9 c -3.3,-22.1 24,-44.1 60.8,-48.8"
         style="fill:#efcbab;fill-opacity:1;fill-rule:nonzero;stroke:none"
         id="path452" />
      <path
         d="m 22757.4,4937.5 1833.9,-238.6 c 51.7,-6.7 99.5,30.1 106.2,81.9 l 220.2,1692.8 c 6.7,51.7 -30.1,99.5 -81.8,106.2 L 23002,6818.4 c -51.7,6.7 -99.5,-30.1 -106.3,-81.8 l -220.1,-1692.9 c -6.8,-51.7 30,-99.5 81.8,-106.2"
         style="fill:#739af0;fill-opacity:1;fill-rule:nonzero;stroke:none"
         id="path454" />
      <path
         d="m 23101.2,4983.3 1169.4,-152.1 c 181.8,-23.7 349.9,105.7 373.6,287.6 l 135.5,1041.6 c 23.6,181.9 -105.8,350 -287.6,373.7 l -1169.4,152.1 c -181.9,23.6 -350,-105.8 -373.6,-287.6 l -135.5,-1041.7 c -23.7,-181.9 105.8,-350 287.6,-373.6"
         style="fill:#fcecdb;fill-opacity:1;fill-rule:nonzero;stroke:none"
         id="path456" />
      <path
         d="m 24111.9,6018.7 c 10.2,85.6 -10.5,158.1 -61.9,217.4 -51.4,59.4 -120.4,94.2 -207.1,104.5 -64.2,7.6 -125,0.8 -182.3,-20.3 -62.6,-22.6 -111.4,-58.7 -146.2,-108.3 -21.1,-29.6 -33.5,-60.2 -37.2,-91.8 -3.1,-25.4 2,-49.9 15.2,-73.1 13.2,-23.3 32,-36.4 56.5,-39.3 34.4,-4.1 60,11 76.4,45.3 20.8,45 43.5,76 68.2,92.7 29,19.3 67,26.2 113.7,20.6 37.6,-4.4 66.3,-18.9 86,-43.5 19.8,-24.6 27.5,-55.7 23,-93.5 -7.5,-63.2 -32,-105.3 -73.5,-126.2 -1.2,-0.9 -39.2,-10.3 -114.2,-28.3 -40.4,-10.7 -62.7,-34.5 -67.1,-71.2 -5.9,-50 24,-81.9 89.5,-95.9 115.9,-25.1 168,-87.7 156.2,-187.5 -4.9,-40.8 -16,-73.7 -33.4,-98.5 -36.9,-49.4 -91.1,-69.9 -162.4,-61.4 -53.1,6.3 -94.3,29.3 -123.7,68.9 -5.4,6.9 -23.5,42.1 -54.2,105.7 -19.2,38.5 -42.1,59.3 -68.6,62.4 -25.5,3 -47.5,-3.6 -65.9,-20.1 -18.5,-16.4 -29.3,-37.4 -32.3,-62.8 -10.5,-88.8 27.4,-170.3 113.7,-244.6 54.4,-46.8 123.5,-75.2 207.1,-85.1 108.1,-12.8 201,7.3 278.5,60.1 82,55.4 129.4,136.1 142,242.2 16.2,136.7 -35,237.3 -153.5,302.1 92.8,50 145.3,126.4 157.5,229.5"
         style="fill:#b2443b;fill-opacity:1;fill-rule:nonzero;stroke:none"
         id="path458" />
      <path
         d="m 23407.1,4387.4 271.1,-113.3 c 22.7,-10.3 42.3,-5.2 52.6,17.5 l 19.1,42.2 c 10.3,22.7 0.1,49.7 -22.6,59.9 l -214.6,110 c -28,14 -63,2.1 -79.4,-19.5 0,0 -71.5,-78.7 -26.2,-96.8"
         style="fill:#ffb27d;fill-opacity:1;fill-rule:nonzero;stroke:none"
         id="path460" />
      <path
         d="m 23345.8,4256.6 280.6,-113.1 c 36.5,-14.7 78.5,3.1 93.2,39.6 v 0 c 14.7,36.5 -3.2,78.4 -39.7,93.1 l -280.6,113.1 c -36.5,14.7 -69.4,22.6 -93.1,-39.6 v 0 c -27.2,-49.8 3.1,-78.4 39.6,-93.1"
         style="fill:#ffb27d;fill-opacity:1;fill-rule:nonzero;stroke:none"
         id="path462" />
      <path
         d="m 23325.3,4140 226.4,-79.6 c 31.5,-12.7 62.4,-6.7 75.1,24.8 v 0 c 12.7,31.5 -2.7,67.6 -34.2,80.3 l -221.1,89.1 c -31.5,12.7 -62.7,26.8 -80.4,-34.2 v 0 c -15.5,-42 2.5,-68.3 34.2,-80.4"
         style="fill:#ffb27d;fill-opacity:1;fill-rule:nonzero;stroke:none"
         id="path464" />
      <path
         d="m 23298.2,4038.7 129.6,-52.3 c 27.2,-10.9 58.4,2.4 69.4,29.5 v 0 c 10.9,27.2 -2.4,58.4 -29.5,69.4 l -129.7,52.2 c -27.2,10.9 -58.4,-2.3 -69.3,-29.5 v 0 c -10.9,-27.2 2.3,-58.4 29.5,-69.3"
         style="fill:#ffb27d;fill-opacity:1;fill-rule:nonzero;stroke:none"
         id="path466" />
      <path
         d="m 23738.5,4360.6 c -15.8,9.2 -37.2,20.4 -56.3,26.9 -13.3,4.4 -27.7,-1.7 -33.4,-14.4 l -16.3,-36.7 c -5.6,-12.7 -0.1,-27.6 12.5,-33.4 15.6,-7.2 37.3,-16.3 59.1,-22.8 15.4,-4.5 31.6,3.4 37.7,18.2 l 9.8,23.5 c 5.9,14.4 0.4,30.9 -13.1,38.7"
         style="fill:#b2443b;fill-opacity:1;fill-rule:nonzero;stroke:none"
         id="path468" />
      <path
         d="m 23711.4,4229.6 c -16,8.4 -37.6,18.7 -56.8,24.2 -13.3,3.9 -27.3,-2.7 -32.4,-15.6 l -14.5,-36.9 c -5.1,-12.8 1,-27.3 13.7,-32.6 15.7,-6.4 37.5,-14.5 59.4,-20 15.3,-3.8 31.1,4.6 36.5,19.5 l 8.7,23.6 c 5.3,14.5 -0.9,30.7 -14.6,37.8"
         style="fill:#b2443b;fill-opacity:1;fill-rule:nonzero;stroke:none"
         id="path470" />
      <path
         d="m 23628.4,4128.3 c -13.6,7.1 -32,15.8 -48.3,20.6 -11.3,3.2 -23.2,-2.4 -27.5,-13.3 l -12.4,-31.4 c -4.3,-10.9 0.9,-23.2 11.7,-27.7 13.3,-5.4 31.9,-12.3 50.5,-17 13,-3.3 26.4,3.9 31,16.6 l 7.4,20.1 c 4.5,12.3 -0.8,26 -12.4,32.1"
         style="fill:#b2443b;fill-opacity:1;fill-rule:nonzero;stroke:none"
         id="path472" />
      <path
         d="m 23498.5,4049.3 c -11.8,6.2 -27.7,13.8 -41.8,17.9 -9.8,2.8 -20.2,-2.1 -23.9,-11.5 l -10.8,-27.2 c -3.7,-9.5 0.8,-20.2 10.2,-24 11.5,-4.8 27.6,-10.8 43.8,-14.8 11.3,-2.9 22.9,3.4 26.9,14.3 l 6.4,17.5 c 3.9,10.7 -0.7,22.6 -10.8,27.8"
         style="fill:#b2443b;fill-opacity:1;fill-rule:nonzero;stroke:none"
         id="path474" />
      <path
         d="m 6225.18,2796.5 h -383.77 c -1.6,5.8 -3.13,11.5 -4.73,17 -18.1,65.5 -34.01,118.6 -43.92,142.4 -9.14,21.9 -21.22,37.7 -34.25,49.1 -41.22,36 -92.21,27.4 -92.21,27.4 l -43.81,68.9 -182.54,287.2 v 0.1 l -4.83,7.6 c 0,0 -6.26,50.4 -9.26,117 -0.06,0.6 -0.06,1.2 -0.06,1.9 -1.83,40.1 -2.35,86.1 0.35,130.5 0.18,2.8 0.36,5.7 0.54,8.5 4.19,58.2 14.27,112.7 35.02,146.5 0.06,0.1 0.06,0.1 0.12,0.2 7.19,11.7 15.62,20.9 25.58,27 34.91,21.3 99.35,42.3 160.54,45.7 37.8,2.1 74.41,-2.6 102.07,-18.1 1.47,-0.8 2.89,-1.6 4.3,-2.5 0.25,10.2 0.18,20.3 0,30.3 -0.71,51.2 -4.24,99.1 9.21,132.7 21.75,55.2 58.37,84.6 89.2,100.3 10.72,5.4 22.28,4.4 31.42,-1 1.06,-0.6 2.12,-1.3 3.13,-2 8.72,-6.5 14.38,-17.1 13.44,-29.5 -1.88,-23.8 -3.06,-54.6 -1.82,-89.3 3.83,-94.7 27.06,-218.8 111.54,-305.3 155.3,-159.2 58.79,-337.9 67.45,-430.3 2.49,-26.7 21.76,-93.4 48.29,-175.3 28.65,-88.6 65.74,-194.8 99,-287"
         style="fill:#efa26f;fill-opacity:1;fill-rule:nonzero;stroke:none"
         id="path476" />
      <path
         d="m 5886.77,3996.6 12.15,-2.2 c -1.3,34.7 17.05,106.8 18.95,130.6 0.93,12.3 -21.92,5.2 -29.47,-4.4 -5.09,-4.3 -10.02,-17.4 -11.95,-24.1 -5.62,-19.4 -12.24,-45.4 -14.05,-67.7 -1.44,-15.5 8.97,-29.5 24.37,-32.2"
         style="fill:#ffc197;fill-opacity:1;fill-rule:nonzero;stroke:none"
         id="path478" />
      <path
         d="m 6278.47,2796.5 h -447.43 c 1.52,5.7 3.41,11.4 5.64,17 45.59,117.2 215.68,226.8 289.5,270 21.29,12.4 34.56,19.3 34.56,19.3 0,0 48.22,-124.2 117.73,-306.3"
         style="fill:#2b478b;fill-opacity:1;fill-rule:nonzero;stroke:none"
         id="path480" />
      <path
         d="m 5680.35,2811.7 11.52,-0.1 c 37.74,-0.5 68.43,17.7 68.2,40.5 l -14.14,1408.1 -85.18,1 L 5614.3,2853 c -0.74,-22.3 28.97,-40.9 66.05,-41.3"
         style="fill:#efcbab;fill-opacity:1;fill-rule:nonzero;stroke:none"
         id="path482" />
      <path
         d="m 4780.4,4237 1849.2,-21.1 c 52.16,-0.6 95.32,41.6 95.91,93.7 l 19.5,1707 c 0.6,52.2 -41.6,95.3 -93.75,95.9 l -1849.21,21.1 c -52.16,0.6 -95.31,-41.5 -95.9,-93.7 l -19.5,-1707 c -0.59,-52.1 41.59,-95.3 93.75,-95.9"
         style="fill:#739af0;fill-opacity:1;fill-rule:nonzero;stroke:none"
         id="path484" />
      <path
         d="m 5116.44,4322.9 1179.17,-13.4 c 183.36,-2.1 335.08,146.2 337.17,329.5 l 11.99,1050.4 c 2.09,183.4 -146.2,335.1 -329.56,337.2 l -1179.17,13.5 c -183.34,2 -335.06,-146.3 -337.17,-329.6 l -11.99,-1050.4 c -2.09,-183.3 146.21,-335.1 329.56,-337.2"
         style="fill:#fcecdb;fill-opacity:1;fill-rule:nonzero;stroke:none"
         id="path486" />
      <path
         d="m 5983.32,5749.6 h -531.4 c -73.94,0 -110.9,-29.5 -110.9,-88.5 0,-59.1 37.44,-88.6 112.44,-88.6 h 425.08 l -7.6,-15.5 -360.89,-784.4 c -15.16,-30.8 -22.69,-58.9 -22.69,-84.5 0,-25.6 10.72,-46.6 32.3,-62.9 21.59,-16.4 45.16,-24.6 70.88,-24.6 38.96,0 71.81,29.8 98.52,89.3 l 402.04,894.9 c 14.38,31.8 21.58,57 21.58,75.5 0,59.5 -43.1,89.3 -129.36,89.3"
         style="fill:#b2443b;fill-opacity:1;fill-rule:nonzero;stroke:none"
         id="path488" />
      <path
         d="m 5466.4,3799.4 317.49,-76.4 c 26.71,-7.2 47.35,1.8 54.62,28.5 l 13.48,49.7 c 7.26,26.8 -8.66,54.5 -35.37,61.8 l -254.88,82.7 c -33.23,10.4 -69.52,-8.9 -83.71,-35.4 0,0 -64.46,-99 -11.63,-110.9"
         style="fill:#ffb27d;fill-opacity:1;fill-rule:nonzero;stroke:none"
         id="path490" />
      <path
         d="m 5415.4,3648.4 324.53,-88.1 c 42.21,-11.4 86.11,13.7 97.57,55.9 v 0 c 11.46,42.2 -13.71,86.2 -55.9,97.6 l -324.54,88.1 c -42.21,11.5 -79.47,16 -97.58,-55.9 v 0 c -23.47,-58.5 13.71,-86.1 55.92,-97.6"
         style="fill:#ffb27d;fill-opacity:1;fill-rule:nonzero;stroke:none"
         id="path492" />
      <path
         d="m 5408.05,3517.2 260.29,-58.3 c 36.43,-9.9 69.69,0.7 79.58,37.1 v 0 c 9.89,36.4 -11.83,74.3 -48.25,84.2 l -255.66,69.4 c -36.43,9.9 -72.66,21.4 -84.21,-48.2 v 0 c -11.63,-48.4 11.72,-75.1 48.25,-84.2"
         style="fill:#ffb27d;fill-opacity:1;fill-rule:nonzero;stroke:none"
         id="path494" />
      <path
         d="m 5391.39,3401.8 149.88,-40.7 c 31.44,-8.6 64.13,10.1 72.66,41.6 v 0 c 8.52,31.4 -10.19,64.1 -41.63,72.6 l -149.89,40.7 c -31.42,8.6 -64.12,-10.2 -72.65,-41.6 v 0 c -8.54,-31.4 10.19,-64.1 41.63,-72.6"
         style="fill:#ffb27d;fill-opacity:1;fill-rule:nonzero;stroke:none"
         id="path496" />
      <path
         d="m 5839.72,3828.6 c -18.92,7.2 -44.4,15.9 -66.51,19.5 -15.3,2.6 -30.06,-6.7 -34.02,-21.7 l -11.39,-43 c -3.95,-15 4.74,-30.4 19.63,-34.5 18.29,-5.1 43.72,-11.3 68.85,-14.6 17.6,-2.2 34.06,9.3 38.16,26.6 l 6.53,27.5 c 4,16.9 -5.05,34.1 -21.25,40.2"
         style="fill:#ffc197;fill-opacity:1;fill-rule:nonzero;stroke:none"
         id="path498" />
      <path
         d="m 5827.42,3666.5 c -18.74,7.2 -43.95,15.7 -65.84,19.3 -15.12,2.5 -29.73,-6.6 -33.66,-21.5 l -11.27,-42.6 c -3.92,-14.8 4.69,-30 19.43,-34.1 18.1,-5.1 43.27,-11.2 68.13,-14.4 17.44,-2.2 33.71,9.2 37.77,26.3 l 6.45,27.2 c 3.98,16.7 -4.99,33.7 -21.01,39.8"
         style="fill:#ffc197;fill-opacity:1;fill-rule:nonzero;stroke:none"
         id="path500" />
      <path
         d="m 5744.05,3543.8 c -15.92,6.1 -37.35,13.3 -55.96,16.4 -12.87,2.2 -25.27,-5.6 -28.62,-18.2 l -9.57,-36.3 c -3.33,-12.5 3.99,-25.5 16.52,-29 15.38,-4.3 36.77,-9.5 57.91,-12.2 14.82,-1.9 28.65,7.8 32.11,22.3 l 5.49,23.2 c 3.36,14.2 -4.24,28.6 -17.88,33.8"
         style="fill:#ffc197;fill-opacity:1;fill-rule:nonzero;stroke:none"
         id="path502" />
      <path
         d="m 5611.07,3439.7 c -13.82,5.3 -32.41,11.6 -48.55,14.3 -11.16,1.8 -21.93,-4.9 -24.82,-15.9 l -8.32,-31.4 c -2.89,-10.9 3.47,-22.1 14.34,-25.2 13.34,-3.7 31.9,-8.2 50.24,-10.6 12.85,-1.6 24.86,6.8 27.85,19.4 l 4.76,20.1 c 2.93,12.3 -3.68,24.8 -15.5,29.3"
         style="fill:#ffc197;fill-opacity:1;fill-rule:nonzero;stroke:none"
         id="path504" />
      <path
         d="m 26777.7,4176.4 -239.6,-227.5 h -46.6 c -30.1,70.3 -104.9,243.6 -161.3,364.9 -25.4,54.9 -47.1,99.1 -59.3,118.5 -6.9,11 -14.4,19.7 -22.2,26.7 v 0.1 c -45.1,40.6 -99.8,21.8 -99.8,21.8 l -46.1,51.4 -204.3,227.9 -5.4,6 c 0,0 -12.9,43.2 -25.2,101.2 -0.2,0.5 -0.3,1.1 -0.4,1.7 -7.4,34.9 -14.6,75.1 -18.7,114.3 -0.3,2.6 -0.5,5.1 -0.7,7.7 -4.9,51.5 -4,100.8 9.2,133.5 0.1,0.1 0.1,0.2 0.1,0.2 4.6,11.3 10.7,20.6 18.5,27.4 27.9,24.1 82.2,52.3 136.1,64 33.9,7.3 67.6,8 94.3,-3 -1.3,9 -2.8,17.8 -4.4,26.5 -8,43.8 -17.8,84.4 -11.7,115.6 v 0.1 c 0.1,0.7 0.2,1.3 0.4,2 11,51.6 38.8,82.8 63.5,101 8.6,6.3 18.9,7.1 27.7,3.7 v 0 c 1.1,-0.4 2.1,-0.8 3,-1.3 8.6,-4.5 15.2,-12.9 16.1,-23.9 1.8,-20.6 5.1,-46.9 11.1,-76.3 0.1,-0.8 0.2,-1.5 0.4,-2.2 17.1,-82.6 55.6,-187.9 142.3,-251.4 159.5,-117 100.9,-287.7 122,-367.5 6.1,-23 32.7,-78.7 67.9,-146.6 86.6,-167.2 224.8,-408.3 233.1,-416.5"
         style="fill:#efa26f;fill-opacity:1;fill-rule:nonzero;stroke:none"
         id="path506" />
      <path
         d="m 26201.4,5358.5 11,-0.1 c -6.2,30.2 -0.7,96.1 -2.4,117.2 -1,11 -20,1.4 -25.2,-8.2 -3.9,-4.4 -6.3,-16.6 -7,-22.8 -2.1,-17.8 -4.1,-41.6 -2.4,-61.4 1,-13.8 12.1,-24.6 26,-24.7"
         style="fill:#2b478b;fill-opacity:1;fill-rule:nonzero;stroke:none"
         id="path508" />
      <path
         d="M 27632.8,2796.5 H 26670 c -43,190.3 -343.2,1483.8 -343.2,1483.8 -0.2,11 1,22.2 3.4,33.5 22.9,109.5 156,230.4 214.4,279.1 16.9,14 27.5,22 27.5,22 0,0 865.1,-1477.5 1060.7,-1818.4"
         style="fill:#d86713;fill-opacity:1;fill-rule:nonzero;stroke:none"
         id="path510" />
      <path
         d="m 26220.1,4160.7 11.4,1.7 c 37.3,5.8 64.6,28.8 60.6,51.2 l -245.2,1386.7 -84.2,-13.1 185.5,-1396.6 c 2.9,-22.2 35.3,-35.6 71.9,-29.9"
         style="fill:#efcbab;fill-opacity:1;fill-rule:nonzero;stroke:none"
         id="path512" />
      <path
         d="m 25098.3,5418.8 1827.5,282.9 c 51.6,8 87.2,56.7 79.3,108.2 l -261.2,1687 c -7.9,51.6 -56.6,87.2 -108.2,79.2 l -1827.5,-282.8 c -51.6,-8 -87.2,-56.7 -79.3,-108.3 l 261.2,-1686.9 c 7.9,-51.6 56.6,-87.2 108.2,-79.3"
         style="fill:#739af0;fill-opacity:1;fill-rule:nonzero;stroke:none"
         id="path514" />
      <path
         d="m 25415.6,5558.8 1165.4,180.4 c 181.2,28 306.5,199.2 278.5,380.4 l -160.7,1038.1 c -28,181.2 -199.2,306.5 -380.4,278.5 L 25153,7255.8 c -181.2,-28 -306.5,-199.2 -278.5,-380.4 l 160.7,-1038.2 c 28,-181.1 199.2,-306.5 380.4,-278.4"
         style="fill:#fcecdb;fill-opacity:1;fill-rule:nonzero;stroke:none"
         id="path516" />
      <path
         d="m 26010.7,6593.6 c -28.3,-38.3 -69.5,-60.4 -123.6,-66.4 -55.1,-6 -99.2,8.8 -132,44.4 -29.3,31.9 -47.1,76.4 -53.4,133.6 -6.1,55.1 4,104 30.3,146.7 26.3,42.6 66.4,66.9 120.5,72.9 56.2,6.2 102,-11 137.4,-51.5 29.7,-34.9 47.8,-82.1 54.3,-141.2 6,-54.1 -5.2,-100.3 -33.5,-138.5 z m 235.1,151.4 c -13,118.4 -53.7,210.5 -121.9,276.4 -73.9,70.3 -169,99.1 -285.3,86.2 -110.3,-12.1 -197.3,-59.2 -261.1,-141.1 -63.8,-81.9 -89.6,-178 -77.4,-288.2 10.5,-96 46.1,-174.7 106.6,-236.2 66.2,-67.1 145.8,-95.5 238.7,-85.3 57.2,6.4 104.6,20.9 142.5,43.7 l 1.5,0.1 c -39.5,-82.8 -95.7,-167.6 -168.8,-254.1 -30.1,-36.4 -49.7,-60.8 -58.6,-73.1 -14.2,-21.2 -20.3,-41 -18.2,-59.3 2.7,-24.6 13.2,-45.1 31.6,-61.7 18.3,-16.5 39.7,-23.5 64.2,-20.8 79.6,8.8 183.1,128.7 310.6,359.7 39.6,71.5 67.8,143.3 84.7,215.4 16.8,72.1 20.5,151.5 10.9,238.3"
         style="fill:#b2443b;fill-opacity:1;fill-rule:nonzero;stroke:none"
         id="path518" />
      <path
         d="m 25861.6,5124.2 289.6,-20.6 c 24.4,-2.5 41.2,8.5 43.7,33 l 4.6,45.5 c 2.4,24.5 -15.6,46.6 -40.1,49 l -235.5,35.3 c -30.7,4.3 -59.7,-17.9 -68.3,-43.3 0,0 -42,-96.1 6,-98.9"
         style="fill:#ffb27d;fill-opacity:1;fill-rule:nonzero;stroke:none"
         id="path520" />
      <path
         d="m 25839,4984.4 297.4,-29.8 c 38.6,-3.9 73.5,24.5 77.4,63.2 v 0 c 3.8,38.7 -24.6,73.5 -63.3,77.4 l -297.4,29.9 c -38.7,3.9 -72,2.4 -77.4,-63.3 v 0 c -12.1,-54.7 24.6,-73.5 63.3,-77.4"
         style="fill:#ffb27d;fill-opacity:1;fill-rule:nonzero;stroke:none"
         id="path522" />
      <path
         d="m 25851.7,4868.3 236.7,-13.1 c 33.4,-3.4 61,10.8 64.4,44.1 v 0 c 3.3,33.4 -21.3,63.5 -54.6,66.8 l -234.3,23.6 c -33.4,3.3 -66.9,8.1 -66.8,-54.6 v 0 c -3.2,-44.2 21.2,-64.1 54.6,-66.8"
         style="fill:#ffb27d;fill-opacity:1;fill-rule:nonzero;stroke:none"
         id="path524" />
      <path
         d="m 25853.9,4764.6 137.4,-13.8 c 28.8,-2.9 54.7,18.3 57.6,47.1 v 0 c 2.9,28.8 -18.3,54.8 -47.1,57.7 l -137.4,13.8 c -28.8,2.9 -54.7,-18.3 -57.6,-47.1 v 0 c -2.9,-28.8 18.3,-54.8 47.1,-57.7"
         style="fill:#ffb27d;fill-opacity:1;fill-rule:nonzero;stroke:none"
         id="path526" />
      <path
         d="m 26184.7,5204.4 c -17.7,3.5 -41.2,7.4 -61.2,7.4 -13.8,0 -25.3,-10.3 -26.6,-24 l -3.7,-39.5 c -1.3,-13.6 8.5,-25.9 22.2,-27.3 16.8,-1.8 40,-3.6 62.5,-2.7 15.8,0.6 28.5,13.1 29.6,28.8 l 1.7,25.1 c 1,15.4 -9.4,29.1 -24.5,32.2"
         style="fill:#2b478b;fill-opacity:1;fill-rule:nonzero;stroke:none"
         id="path528" />
      <path
         d="m 26197.6,5060.4 c -17.5,3.6 -40.9,7.3 -60.6,7.3 -13.6,0 -25.1,-10.1 -26.3,-23.7 l -3.7,-39 c -1.3,-13.6 8.5,-25.7 22,-27.1 16.6,-1.8 39.6,-3.5 61.8,-2.7 15.6,0.6 28.3,13 29.3,28.6 l 1.7,24.8 c 1.1,15.2 -9.3,28.8 -24.2,31.8"
         style="fill:#2b478b;fill-opacity:1;fill-rule:nonzero;stroke:none"
         id="path530" />
      <path
         d="m 26142.4,4940.7 c -14.9,3 -34.7,6.2 -51.5,6.2 -11.6,0 -21.3,-8.6 -22.4,-20.2 l -3.1,-33.2 c -1.1,-11.5 7.2,-21.8 18.7,-23 14.1,-1.5 33.6,-3 52.6,-2.2 13.2,0.5 24,11 24.9,24.2 l 1.4,21.1 c 0.9,12.9 -7.9,24.5 -20.6,27.1"
         style="fill:#2b478b;fill-opacity:1;fill-rule:nonzero;stroke:none"
         id="path532" />
      <path
         d="m 26041,4830 c -12.9,2.6 -30.1,5.4 -44.7,5.4 -10,0 -18.5,-7.5 -19.4,-17.5 l -2.7,-28.8 c -0.9,-10 6.3,-18.9 16.2,-20 12.3,-1.3 29.2,-2.5 45.6,-1.9 11.5,0.4 20.8,9.5 21.6,21 l 1.3,18.3 c 0.7,11.2 -6.9,21.3 -17.9,23.5"
         style="fill:#2b478b;fill-opacity:1;fill-rule:nonzero;stroke:none"
         id="path534" />
      <path
         d="m 8621.41,5743.7 -86.09,-422 c 0,0 -87.69,-17.6 -90.74,-116.4 -3.08,-98.9 65.39,-632.3 65.39,-632.3 l -411.56,96.2 c 4.69,17.9 -2.97,627.9 -27.99,717.2 -24.81,89.3 -178.55,221.6 -90.4,425.6 46.28,106.7 27.13,225.8 -1.4,314.6 -1.11,3.5 -2.18,6.8 -3.3,10.1 -11.15,32.9 -23.2,61.2 -33.49,82.7 -0.77,1.5 -1.36,3.1 -1.76,4.8 -2.95,9.7 -1.18,19.6 3.88,27.5 6.3,10 17.83,16.5 31.08,15.2 34.36,-3.7 79.06,-18.1 119.02,-61.9 29.26,-31.8 43.31,-91.2 66.64,-148.8 50.96,66.9 191.82,84 258.13,71.7 113.32,-20.9 202.59,-384.2 202.59,-384.2"
         style="fill:#efa26f;fill-opacity:1;fill-rule:nonzero;stroke:none"
         id="path536" />
      <path
         d="m 8005.81,6159.8 c 4.4,-11.2 -3.03,-23.8 -17.5,-29.4 l -9.69,-3.8 c -1.11,3.5 -2.18,6.8 -3.3,10.1 -11.15,32.9 -23.2,61.2 -33.49,82.7 -0.77,1.5 -1.36,3.1 -1.76,4.8 6.97,1.4 17.49,0.1 22.91,-3.1 5.77,-1.9 13.09,-10.4 16.2,-14.9 9.14,-12.9 20.61,-30.5 26.63,-46.4"
         style="fill:#ffc197;fill-opacity:1;fill-rule:nonzero;stroke:none"
         id="path538" />
      <path
         d="m 8048.77,5211.3 c 0,0 346.45,-40.3 427.87,-185.2 0,0 489.67,-1425.3 367.38,-1515.8 -122.28,-90.6 -708.18,-300.8 -756.43,-127 -48.26,173.7 -38.82,1828 -38.82,1828"
         style="fill:#f99746;fill-opacity:1;fill-rule:nonzero;stroke:none"
         id="path540" />
      <path
         d="m 8574.92,5311.1 -10.38,-5 c -34.07,-16.3 -69.56,-12.8 -78.93,7.9 l -581.15,1282.8 76.8,36.8 636.12,-1257.2 c 10.07,-20 -9.02,-49.3 -42.46,-65.3"
         style="fill:#efcbab;fill-opacity:1;fill-rule:nonzero;stroke:none"
         id="path542" />
      <path
         d="M 8789.67,6983 7121.94,6183.8 c -47.05,-22.5 -103.98,-2.5 -126.52,44.6 l -737.7,1539.4 c -22.52,47.1 -2.49,104 44.56,126.5 l 1667.73,799.2 c 47.05,22.5 103.97,2.5 126.51,-44.5 L 8834.2,7109.5 c 22.55,-47 2.51,-104 -44.53,-126.5"
         style="fill:#739af0;fill-opacity:1;fill-rule:nonzero;stroke:none"
         id="path544" />
      <path
         d="M 8448.75,6919.2 7385.28,6409.6 c -165.35,-79.3 -365.48,-8.8 -444.72,156.5 l -453.94,947.4 c -79.23,165.3 -8.77,365.4 156.58,444.7 l 1063.47,509.6 c 165.35,79.2 365.47,8.7 444.71,-156.6 l 453.94,-947.3 c 79.25,-165.4 8.78,-365.5 -156.57,-444.7"
         style="fill:#fcecdb;fill-opacity:1;fill-rule:nonzero;stroke:none"
         id="path546" />
      <path
         d="m 7340.29,7231.4 c 36.42,372.3 55.56,560.1 57.45,563.3 l 210.7,-432.7 z m 588.42,190.6 c -20.27,41.5 -47.88,57.2 -82.84,47 -9.69,1 -32.96,-7.5 -69.87,-25.5 l -224.55,461.2 c -27.3,56.1 -59.06,92.4 -95.21,109 -35.32,16.3 -74.88,13.7 -118.64,-7.5 -33.93,-16.5 -58.2,-38.5 -72.85,-65.9 -0.56,-1 -1.08,-2 -1.56,-2.9 -12.66,-23.3 -21.04,-56.5 -25.13,-99.7 l -59.95,-587.6 c -7.14,-67.5 -0.15,-122.9 20.98,-166.3 28.29,-58.1 81.71,-68.1 160.17,-29.9 l 322.67,157.1 76.89,-157.9 c 31.48,-64.6 73.48,-84.1 126.16,-58.5 59.02,28.8 73.09,75 42.05,138.7 l -77.52,159.3 c 35.98,17.5 60.01,33.8 72.14,48.8 20.02,22.3 22.37,49.2 7.06,80.6"
         style="fill:#b2443b;fill-opacity:1;fill-rule:nonzero;stroke:none"
         id="path548" />
      <path
         d="m 8451.04,6110.6 -2.5,-1.7 -269.12,-184.5 c -17.16,-12.5 -34.44,-14.8 -48.94,-5 -4.34,3 -8.42,6.9 -12.15,12.1 l -30.33,41.6 c -3.65,5.1 -6.19,10.5 -7.75,16.1 -5.44,19.7 1.45,41.6 18.78,54.2 l 208.4,168 c 27.27,21.6 68.03,16.5 90.78,-3.3 0,0 91.8,-66.7 52.83,-97.5"
         style="fill:#ffb27d;fill-opacity:1;fill-rule:nonzero;stroke:none"
         id="path550" />
      <path
         d="m 8585.02,6071.1 c 11.86,-27.4 0.92,-51.5 -18.14,-70.7 -5.17,-5.1 -10.9,-9.9 -16.9,-14.3 l -262.8,-191.6 -8.7,-6.3 c -20.16,-14.7 -45.19,-18.5 -67.68,-12.3 -16.85,4.5 -32.27,14.6 -43.36,29.8 -3.46,4.8 -6.34,9.9 -8.65,15.2 -3.81,8.8 -5.93,18 -6.26,27.4 -1.41,25.9 9.94,51.9 32.33,68.3 l 263.68,192.3 2.5,1.7 5.32,3.9 c 35.33,25.8 68.5,43.3 111,-17.4 8.31,-8.9 14.04,-17.6 17.66,-26"
         style="fill:#ffb27d;fill-opacity:1;fill-rule:nonzero;stroke:none"
         id="path552" />
      <path
         d="m 8628.45,5944.5 c 13.81,-31.9 2.3,-58 -22.23,-76.3 -0.81,-0.6 -1.7,-1.3 -2.62,-1.9 l -49.02,-32.5 -173.19,-114.7 c -18.22,-13.3 -38.1,-19.4 -55.74,-15.5 -11.86,2.5 -22.78,9.5 -31.71,21.7 -3.09,4.2 -5.58,8.6 -7.54,13.2 -4.65,10.7 -6.36,22.2 -5.2,33.4 0.66,7.8 2.67,15.5 5.98,22.6 4.76,10.3 12.07,19.6 21.76,26.6 l 213.88,156 c 14.55,10.6 29.03,21.6 44.06,23.3 0,0 -0.04,0.1 0.07,0.1 16.21,2 33.12,-6.8 51.64,-38.4 4.09,-6.1 7.43,-11.9 9.86,-17.6"
         style="fill:#ffb27d;fill-opacity:1;fill-rule:nonzero;stroke:none"
         id="path554" />
      <path
         d="m 8679.72,5835.8 c 10.75,-24.9 3.29,-54.8 -19.44,-71.4 l -125.4,-91.4 c -15.3,-11.1 -34.26,-13.8 -51.34,-8.8 -12.23,3.4 -23.32,10.8 -31.32,21.8 -2.64,3.6 -4.77,7.4 -6.46,11.3 -3.27,7.6 -4.82,15.5 -4.83,23.5 0,18.2 8.43,36.4 24.27,47.9 l 89.38,65.1 0.38,0.3 35.65,26 c 4.85,3.6 10.1,6.2 15.61,8.1 0,0 0,0 0.07,0 23.82,8.2 51.4,0.3 66.96,-21.1 2.65,-3.6 4.79,-7.4 6.47,-11.3"
         style="fill:#ffb27d;fill-opacity:1;fill-rule:nonzero;stroke:none"
         id="path556" />
      <path
         d="m 8204.23,5961.5 c -15.27,-11.3 -36.77,-26.1 -59.01,-38.1 -4.73,-2.5 -9.78,-3.8 -14.74,-4 -4.34,3 -8.42,6.9 -12.15,12.1 l -30.33,41.6 c -3.65,5.1 -6.19,10.5 -7.75,16.1 1.83,5.2 5.05,10 9.41,13.9 15.07,13.5 35.8,30.6 55.16,41.9 13.38,7.8 30.42,4.5 39.5,-8.1 l 25.94,-36.2 c 9.04,-12.5 6.44,-30 -6.03,-39.2"
         style="fill:#ffc197;fill-opacity:1;fill-rule:nonzero;stroke:none"
         id="path558" />
      <path
         d="m 8272.3,5815 c -15.09,-11.1 -36.35,-25.8 -58.46,-37.7 -1.04,-0.5 -2.04,-1 -3.04,-1.4 -16.85,4.5 -32.27,14.6 -43.36,29.8 -3.46,4.8 -6.34,9.9 -8.65,15.2 -3.81,8.8 -5.93,18 -6.26,27.4 1.7,3 3.84,5.6 6.4,7.9 14.93,13.3 35.45,30.2 54.57,41.4 13.2,7.8 30.14,4.5 39.09,-8 l 25.73,-35.8 c 8.91,-12.4 6.33,-29.7 -6.02,-38.8"
         style="fill:#ffc197;fill-opacity:1;fill-rule:nonzero;stroke:none"
         id="path560" />
      <path
         d="m 8376.88,5736.4 c -12.86,-9.5 -30.96,-22 -49.68,-32.1 -0.55,-0.3 -1.04,-0.5 -1.55,-0.7 -11.86,2.5 -22.78,9.5 -31.71,21.7 -3.09,4.2 -5.58,8.6 -7.54,13.2 -4.65,10.7 -6.36,22.2 -5.2,33.4 12.66,11.3 29.78,25.3 45.67,34.7 11.23,6.6 25.59,3.7 33.23,-6.9 l 21.84,-30.4 c 7.62,-10.5 5.37,-25.2 -5.06,-32.9"
         style="fill:#ffc197;fill-opacity:1;fill-rule:nonzero;stroke:none"
         id="path562" />
      <path
         d="m 8525.31,5691.2 c -10.84,-8 -25.93,-18.4 -41.77,-27 -12.23,3.4 -23.32,10.8 -31.32,21.8 -2.64,3.6 -4.77,7.4 -6.46,11.3 -3.27,7.6 -4.82,15.5 -4.83,23.5 0.18,0.2 0.44,0.5 0.74,0.8 11.05,9.8 26.14,22.3 40.21,30.6 9.78,5.7 22.3,3.2 28.93,-6 l 18.89,-26.3 c 6.62,-9.2 4.67,-22 -4.39,-28.7"
         style="fill:#ffc197;fill-opacity:1;fill-rule:nonzero;stroke:none"
         id="path564" />
      <path
         d="m 8083.5,5277.7 c 0,0 -85.78,-106.1 -98.39,-248 0,0 201.75,-67.3 292.49,-64.2 l 77.4,161.2 52.56,-157.6 c 0,0 105,4.3 142.37,31.9 0,0 -50.2,171 -103.16,226 0,0 -259.39,-40.9 -363.27,50.7"
         style="fill:#ffbf8f;fill-opacity:1;fill-rule:nonzero;stroke:none"
         id="path566" />
      <path
         d="m 8220.07,5018.7 c -4.38,10.1 0.27,21.9 10.41,26.2 10.12,4.4 21.88,-0.2 26.26,-10.4 4.36,-10.1 -0.28,-21.9 -10.41,-26.2 -10.12,-4.4 -21.88,0.2 -26.26,10.4"
         style="fill:#f99746;fill-opacity:1;fill-rule:nonzero;stroke:none"
         id="path568" />
      <path
         d="m 9171.25,2802.7 -907.43,-6.2 c -95.97,301.2 -176.24,586.8 -176.24,586.8 l 772.18,266.1 c -0.28,-7.3 0.59,-16.8 2.51,-28 -0.04,-0.1 0,-0.2 0.03,-0.3 16.46,-98.3 218.41,-602.3 308.95,-818.4"
         style="fill:#f99746;fill-opacity:1;fill-rule:nonzero;stroke:none"
         id="path570" />
      <path
         d="M 29382.7,2722.7 H 617.32 c -31.523,0 -57.32,25.8 -57.32,57.3 v 0 c 0,31.5 25.797,57.3 57.32,57.3 H 29382.7 c 31.5,0 57.3,-25.8 57.3,-57.3 v 0 c 0,-31.5 -25.8,-57.3 -57.3,-57.3"
         style="fill:#2e3552;fill-opacity:1;fill-rule:nonzero;stroke:none"
         id="path572" />
    </g>
  </g>
</svg>
