<svg xmlns="http://www.w3.org/2000/svg" viewBox="0 0 900 611.68"><defs><clipPath id="a"><path fill="none" d="M277.7 508.48c-75.54-64.3-187.95-61.58-129.62-236.57S261.5 50.47 329.55 90.44s134 38.88 219.28 3.24 168.51 6.48 146.91 104.78 128.54 82.09 22.68 234.4S541.27 502 443 508.48s-114.53 43.2-165.3 0Z"/></clipPath></defs><g data-name="Layer 1"><path fill="#f5e2d2" d="M277.7 508.48c-75.54-64.3-187.95-61.58-129.62-236.57S261.5 50.47 329.55 90.44s134 38.88 219.28 3.24 168.51 6.48 146.91 104.78 128.54 82.09 22.68 234.4S541.27 502 443 508.48s-114.53 43.2-165.3 0Z"/><g clip-path="url(#a)"><g style="mix-blend-mode:multiply"><path fill="#e6e6e6" d="M285.29 425.14a19.58 19.58 0 1 0-28.55 26.8 19 19 0 0 0 1.38 1.32l-4.44 7.45-5.59-1.4a23 23 0 0 0 5.53-7.44c1.1-3.19-1.1-4.85-2.32-4.64-.65.11-4.44 4.19-5.35 4.45-7 2-10.82 6.73-13.5 9.22-1.48 1.38-6.72 2-14 2.19-.21-2.95-.84-4.92-2.11-5-4.57-.31-70.09-25.78-103-23.87-8 .47-34.94 42.58-34.94 42.58s7.17 43.65 8.82 46.52 76-16.39 82.78-16.47 15.49-4.6 26.11-5.83 17.71-1.3 19.75-11.51c.18-.88.4-2.11.64-3.59 4.8-1.76 8.95-3.44 12.06-4.94 2.25-1.09 4.48-.83 5.72-1.13l6.5 2.47a2.63 2.63 0 0 0 1.08 3.24 2.65 2.65 0 0 0 2.6.05 6.74 6.74 0 0 0 1.66.54c1.47.28 5.89 1.08 5.89 1.08 1.53.28 3-1 3.41-2.9v-.07a3.47 3.47 0 0 0-1.34-3.68l3.77 1c1.64.42 3.25-.86 3.63-2.8v-.08a4.1 4.1 0 0 0-1-3.6c1.66.51 3.25-.67 3.62-2.62v-.08a4.55 4.55 0 0 0-.56-3.15 4.64 4.64 0 0 0 4.58-2.25c1-2-.19-5.13-1.92-5.39a27.48 27.48 0 0 1-3.92-1.43 14.47 14.47 0 0 0-1.89-.62l2-3.36a19.57 19.57 0 0 0 22.77-31ZM357.74 234.8l-2.18 2-7.66-8.23a7.73 7.73 0 0 1 3.09-1.38 21.22 21.22 0 0 1 5.39-.1 22.45 22.45 0 0 0 3.82.08 3.52 3.52 0 0 0 1.89-.85 2.24 2.24 0 0 0 .81-1.55 2.17 2.17 0 0 0-.66-1.56 2.1 2.1 0 0 0-1.53-.75 3.08 3.08 0 0 0-1.94.86l-1.94-2.55a5.21 5.21 0 0 1 4-1.28 6 6 0 0 1 3.41 2 5.42 5.42 0 0 1 1.68 3.76 4.38 4.38 0 0 1-1.47 3.3 5.92 5.92 0 0 1-1.85 1.17 8.65 8.65 0 0 1-2.44.52 22.28 22.28 0 0 1-3-.08c-1.37-.11-2.25-.16-2.66-.15a6 6 0 0 0-1.1.12ZM361.33 243l2.46-2.3-4.67-5 2.06-1.91 12.72-1.93 1.84 2-7.74 7.21 1.42 1.52-2.07 1.93-1.44-1.52-2.47 2.29Zm4.52-4.22 4.19-3.9-6.81 1.12Z"/><path fill="#e6e6e6" d="M384.61 221.58a25.6 25.6 0 0 0-46.41 21.64 23.3 23.3 0 0 0 1.16 2.22l-14 12.13-4.19-2.34a24.56 24.56 0 0 0 8.58-1.94c3.13-1.74 2.56-4.6 1.46-5.3-.59-.37-4.19-.33-5.09-.77-6.9-3.36-15.58-1.85-19.45-1.78-1.68 0-4.83-1.91-8.9-5.13l.07-.12s3.13-7.55-.61-11.39-40.44-44.45-70.63-68.53c-7.35-5.85-64.31-23.08-64.31-23.08s-27.9 43.68-28.7 47.47 79.11 45.19 85.08 50.4 20.15 6 30.38 13.26 25.54 21.59 34.57 13.4l2.43-3.67c4.73 2.54 8.21 4.65 9.72 6 1 .92 1.46 3.18 3.65 4.3l8 4.8-1 .89a3.44 3.44 0 0 0-.34 4.86 3.44 3.44 0 0 0 4.85.34l2.71-2.36 4.16 2.51.63.43c1.15.82 2.9.31 3.92-1.09a3.16 3.16 0 0 0 .29-3.55l2.74 2.23c1.2 1 3 .53 4.08-.92v-.06a3.7 3.7 0 0 0 .58-3.34c1.18 1.05 2.94.68 4-.79v-.05a4 4 0 0 0 .33-4.18 4 4 0 0 0 3-.61c1.41-1.16 1.62-3.88.42-4.67a23 23 0 0 1-2.42-2.41 11.67 11.67 0 0 0-1.37-1.25l9.53-8.28a25.6 25.6 0 0 0 41-29.26Z"/><path fill="#e6e6e6" d="M248.86 250.62a33.29 33.29 0 0 0-33.31 57.62 19.81 19.81 0 0 1-3.37 2.64c-8.44 3-12.46 8.13-20.49 11.19a83.13 83.13 0 0 1-13.82 3.38c-1.66-3.1-3.27-5.19-4.68-5.41-25.88-4-161.13-7.15-189.29 14 0 0 29 93.54 31.5 97.3s97.37-36.2 106.6-36.94 19.36-7.28 33.76-9.95 33.39-11.89 33.91-26.14c0 0-.54-1.94-1.43-4.92 6.15-1.95 10.87-3.18 13.32-3.32 1.84-.1 4.61 1.89 7.93-.19l1.38-.39-3.7 16.32a4.48 4.48 0 0 0 8.73 2l4.78-21.08 6.09-1.72 1.51-.29c1.62-.3 2.62-2.18 2.28-4.17v-.07a3.71 3.71 0 0 0-2.74-3.15l4.11-.47c1.79-.21 2.9-2.09 2.55-4.17v-.07a4.36 4.36 0 0 0-2.32-3.21c1.83-.13 3-1.91 2.58-4v-.07a4.87 4.87 0 0 0-1.75-2.92h.01c1.72.08 3.53-2.06 3.66-3.62.17-2.12-1.92-4.51-3.57-4.15a26.93 26.93 0 0 1-4 .06h-1.17l.43-1.91a33.28 33.28 0 0 0 20.49-62.16Zm-33.69 70.55a35.47 35.47 0 0 0 3.11-4.36l-.85 3.75ZM262.12 436.14l2.22.89a2.26 2.26 0 0 0-.13 1.51 1.66 1.66 0 0 0 .82 1 1.63 1.63 0 0 0 1.4.11 2.14 2.14 0 0 0 1.2-1.11 2.1 2.1 0 0 0 .28-1.52 1.59 1.59 0 0 0-.81-1.06 4.11 4.11 0 0 0-1.07-.38l1.2-1.62a2.17 2.17 0 0 0 1.54.35 1.57 1.57 0 0 0 1.05-.81 1.43 1.43 0 0 0 .16-1.09 1.4 1.4 0 0 0-.71-.83 1.45 1.45 0 0 0-1.15-.13 2 2 0 0 0-1.09.85l-1.8-1.43a5.17 5.17 0 0 1 1.52-1.28 3.16 3.16 0 0 1 1.69-.31 4.36 4.36 0 0 1 1.86.57 3.8 3.8 0 0 1 2 2.41 2.92 2.92 0 0 1-3.16 3.76 2.94 2.94 0 0 1 1 1.78 3 3 0 0 1-.37 2.05 3.89 3.89 0 0 1-2.47 1.92 4.6 4.6 0 0 1-5.3-2.7 4 4 0 0 1 .12-2.93ZM270.89 441.08l2.26 1a2 2 0 0 0-.09 1.45 1.68 1.68 0 0 0 2.25 1.08 2.83 2.83 0 0 0 1.37-1.39 2.56 2.56 0 0 0 .39-1.8 1.73 1.73 0 0 0-.92-1.18 2.52 2.52 0 0 0-2.11-.1l-1.6-1.21 4.31-5.23 5.68 3.13-1.11 2-4.05-2.23-1.38 1.72a3.58 3.58 0 0 1 1.66.45 3.66 3.66 0 0 1 1.85 2.37 4.28 4.28 0 0 1-.49 3.25 4.66 4.66 0 0 1-2.16 2 4.08 4.08 0 0 1-3.86-.19 4.32 4.32 0 0 1-2.07-2.23 4 4 0 0 1 .07-2.89Z"/></g><path fill="#e998ad" d="m293.39 221.99 20.45 6.26 3.47-7.2 6.19-6.26 2.87-6.74-19.75-5.38-7.12 5.75-6.11 13.57z"/><path d="M317.63 223v.05a6.59 6.59 0 0 1-7.15 3.47l-5.16-1 3.39-6.61Z"/><path fill="#366274" d="M302.35 230.62a3.44 3.44 0 0 1-.85-4.79l31.75-45.35a3.44 3.44 0 0 1 4.79-.85 3.45 3.45 0 0 1 .85 4.8l-31.75 45.34a3.44 3.44 0 0 1-4.79.85Z"/><path fill="#4b8ba3" d="M324.88 188.18a25.6 25.6 0 1 1 36 3.78 25.64 25.64 0 0 1-36-3.78Z"/><path fill="#fff" d="M329.14 184.73a20.12 20.12 0 1 1 28.3 3 20.15 20.15 0 0 1-28.3-3Z"/><path fill="#272824" d="m341.89 175.26-1.62 2.5-9.43-6.13a7.62 7.62 0 0 1 2.66-2.09 21.57 21.57 0 0 1 5.21-1.4 21.94 21.94 0 0 0 3.73-.85 3.48 3.48 0 0 0 1.62-1.28 2.26 2.26 0 0 0 .42-1.7 2.14 2.14 0 0 0-1-1.35 2.09 2.09 0 0 0-1.67-.36 3.05 3.05 0 0 0-1.67 1.31l-2.51-2a5.21 5.21 0 0 1 3.58-2.21 6 6 0 0 1 3.79 1.08 5.43 5.43 0 0 1 2.53 3.24 4.37 4.37 0 0 1-.62 3.56 5.72 5.72 0 0 1-1.52 1.58 8.5 8.5 0 0 1-2.24 1.1 20.1 20.1 0 0 1-2.92.64c-1.36.23-2.23.4-2.62.51a5 5 0 0 0-1 .38ZM347.36 182.37l1.83-2.83-5.74-3.73 1.53-2.36 11.88-4.95 2.26 1.47-5.78 8.9 1.74 1.13-1.54 2.37-1.74-1.14-1.8 2.83Zm3.37-5.19 3.12-4.8-6.34 2.7Z"/><path fill="#e998ad" d="M314.56 228.52s-3.82-1.46-5.08-2a5 5 0 0 1-3.27-5.89c1.36-2.38 4.68-1 6.1-.29l4.74 2.22a3 3 0 0 1 1.07 3.86c-.67 1.7-2.25 2.58-3.56 2.1Z"/><path fill="#e998ad" d="m320.75 224.44-7.53-3.53c-1.71-.8-4-3.94-2.52-5.84 1.22-1.62 4.11-1.6 5.69-.72l7 3.91a3.42 3.42 0 0 1 1.13 4.24v.06c-.72 1.67-2.38 2.54-3.77 1.88Z"/><path fill="#e998ad" d="m324.19 219.09-3.46-1.94c-1.59-.89-4.6-4.27-4.15-6.05.91-3.54 5.54-1.39 7-.43l3.21 2.12a3.86 3.86 0 0 1 1.15 4.53v.06c-.68 1.71-2.34 2.5-3.75 1.71Z"/><path fill="#e998ad" d="m325.77 212.85-3.61-2.53c-1.3-.89-3-3.17-1.66-4.78 2.08-2.42 4.6-.88 5.9-.06a22.46 22.46 0 0 0 2.93 1.75c1.36.48 1.81 3.16.72 4.63-.79 1.07-3.05 1.82-4.28.99ZM294.87 198c3.74-1 11.79-4.57 19.3-3 1 .21 4.47-.71 5.13-.49 1.24.41 2.48 3-.13 5.5-1.84 1.71-8.42 4.85-12.35 4.74l-11.4 17.35c-3.95.46-5.12-2.58-6.61-3.39-10.88-5.93-96.81-19.89-96.81-19.89l20.22-47.71s73.29 49.36 82.65 46.89Z"/><path fill="#4b8ba3" d="M285 195s1.21-8.09-3.35-10.91-50-33.34-85.12-49.38c-8.55-3.91-68-6.83-68-6.83s-16.49 49.13-16.36 53 87.71 24.7 94.75 28.31 21 1 32.69 5.5 30 14.77 36.79 4.63Z"/><path fill="#361e4d" d="m222.35 189.45.68-.77c11.06 9.73 31.07 6.21 31.28 6.17l.18 1c-.84.15-20.7 3.65-32.14-6.4Z"/><path fill="#e998ad" d="m237.92 288.95 12.21 1.37.95-6.31 4.07-3.99 2.8-5.44v-1.2l-13.62-1.71-4.08 6.1-2.33 11.18z"/><path fill="#366274" d="M233.08 302.7a3.06 3.06 0 0 1-.75-4.26l28.25-40.35a3.06 3.06 0 0 1 4.26-.75 3.06 3.06 0 0 1 .75 4.26L237.35 302a3.07 3.07 0 0 1-4.27.7Z"/><path fill="#4b8ba3" d="M253.13 265a22.78 22.78 0 1 1 32 3.36 22.8 22.8 0 0 1-32-3.36Z"/><path fill="#fff" d="M256.92 261.88a17.9 17.9 0 1 1 25.18 2.64 17.93 17.93 0 0 1-25.18-2.64Z"/><path fill="#272824" d="m264.86 254.39-2.39-1.56 5.86-9a9.82 9.82 0 0 1-4.27-.2l1.41-2.17a8.42 8.42 0 0 0 2.79.16 5.19 5.19 0 0 0 2.81-1l1.94 1.26ZM273.6 260.07l-2.39-1.56 5.86-9a9.82 9.82 0 0 1-4.27-.2l1.41-2.17a8.16 8.16 0 0 0 2.79.16 5.22 5.22 0 0 0 2.81-1l1.94 1.27Z"/><path fill="#e998ad" d="M251.16 290.53s-3.2-.65-4.26-.88a4 4 0 0 1-3.36-4.21c.75-2.06 3.56-1.38 4.77-1l4 1.12a2.38 2.38 0 0 1 1.36 2.9v.05a2.37 2.37 0 0 1-2.51 2.02Z"/><path fill="#e998ad" d="m255.5 286.49-6.4-1.79c-1.46-.41-3.64-2.59-2.76-4.27.74-1.45 3-1.81 4.39-1.32l6 2.15a2.72 2.72 0 0 1 1.45 3.19v.05a2.29 2.29 0 0 1-2.68 1.99Z"/><path fill="#e998ad" d="m257.51 281.81-3-1.07c-1.37-.49-4.19-2.76-4.07-4.23.25-2.91 4.18-1.83 5.47-1.26l2.81 1.24a3.09 3.09 0 0 1 1.51 3.42 2.13 2.13 0 0 1-2.72 1.9Z"/><path fill="#e998ad" d="m259.93 277.63-3.18-1.52c-1.14-.53-2.82-2.1-1.95-3.55 1.32-2.18 3.51-1.3 4.65-.82a20.09 20.09 0 0 0 2.54 1c1.14.19 1.85 2.25 1.19 3.55-.49.95-2.18 1.83-3.25 1.34ZM233.83 266.74c5.88.14 9.74-2.05 15.87-1.79.8 0 3.43-1.15 4-1.06 1 .16 2.36 2.07.63 4.35-1.22 1.59-6 4.94-9.11 5.38l-6.7 15.19c-3.05.89-4.38-1.35-5.66-1.79-9.36-3.23-79-2.85-79-2.85l14-36.18s51.26 18.39 65.97 18.75Z"/><path fill="#272824" d="M222.63 260.67c-15.37-9.21-100.23-46.21-123.53-40.11 0 0-5.83 66.76-5.21 69.79s71.05 2.25 77.09 4.17 14.15.39 24 2.43 24.23 1.1 28.24-7.79c-.04 0 3.09-26.28-.59-28.49Z"/><path fill="#fff" d="m176.55 272.76.43-.7c10 6.21 25.33.78 25.49.72l.28.77c-.65.23-15.84 5.62-26.2-.79Z"/><path fill="#272824" d="m226.83 288.26-4.1-.78 3-15.44a14.34 14.34 0 0 1-5.88 2.09l.71-3.72a11.79 11.79 0 0 0 3.86-1.32 7.77 7.77 0 0 0 3.24-2.92l3.32.63ZM241.79 291.12l-4.1-.78 2.95-15.44a14.34 14.34 0 0 1-5.88 2.09l.71-3.72a11.86 11.86 0 0 0 3.86-1.32 7.73 7.73 0 0 0 3.24-2.93l3.32.64Z"/><path fill="#e998ad" d="m250.87 355.05 21.13-4.38-7.13 32.75-15.87 1.39s-3.21-17.12-3.21-17.07 5.08-12.69 5.08-12.69Z"/><path fill="#366274" d="M260.48 387.09a3.27 3.27 0 0 1-3-3.53l4.61-52.12a3.25 3.25 0 0 1 3.53-2.95 3.25 3.25 0 0 1 2.95 3.53L264 384.14a3.24 3.24 0 0 1-3.52 2.95Z"/><path fill="#4b8ba3" d="M258.91 341.7a24.2 24.2 0 1 1 31.28-13.9 24.23 24.23 0 0 1-31.28 13.9Z"/><path fill="#fff" d="M260.77 336.87a19 19 0 1 1 24.58-10.93 19.06 19.06 0 0 1-24.58 10.93Z"/><path fill="#272824" d="m256.46 321.17 3-.19a2.75 2.75 0 0 0 .66 1.75 2 2 0 0 0 1.45.67 2 2 0 0 0 1.62-.62 2.77 2.77 0 0 0 .74-1.88 2.57 2.57 0 0 0-.51-1.85 2 2 0 0 0-1.46-.75 5.46 5.46 0 0 0-1.41.15L261 316a2.63 2.63 0 0 0 1.91-.43 1.88 1.88 0 0 0 .72-1.47 1.64 1.64 0 0 0-1.64-1.84 1.84 1.84 0 0 0-1.35.47 2.53 2.53 0 0 0-.76 1.54l-2.76-.63a6.22 6.22 0 0 1 1-2.24 4 4 0 0 1 1.71-1.26 5.6 5.6 0 0 1 2.38-.36 4.7 4.7 0 0 1 3.5 1.61 3.61 3.61 0 0 1-1.48 5.89 3.72 3.72 0 0 1 2.1 1.42 3.85 3.85 0 0 1 .68 2.49 4.7 4.7 0 0 1-1.71 3.46 5.69 5.69 0 0 1-7.35-.16 4.84 4.84 0 0 1-1.49-3.32ZM268.87 322l3-.15a2.61 2.61 0 0 0 .67 1.67 2.09 2.09 0 0 0 1.44.67 2 2 0 0 0 1.64-.68 3.51 3.51 0 0 0 .79-2.29 3.2 3.2 0 0 0-.54-2.22 2.17 2.17 0 0 0-1.66-.81 3.1 3.1 0 0 0-2.4 1l-2.43-.48 2-8.14 8 .43-.16 2.83-5.71-.3-.62 2.65a4.61 4.61 0 0 1 2.1-.39 4.55 4.55 0 0 1 3.34 1.65 5.25 5.25 0 0 1 1.19 3.88 5.76 5.76 0 0 1-1.31 3.42 5.05 5.05 0 0 1-4.4 1.85 5.3 5.3 0 0 1-3.5-1.36 4.85 4.85 0 0 1-1.44-3.23Z"/><path fill="#e998ad" d="M236.69 364.74c1.64-4.21 3.38-11.57 10.07-17.53.87-.77 2.9-7.36 3.56-7.83 1.25-.88 4.59-.22 5.08 3.93.34 2.9-1.13 10.87-4 14.49l-1.83 26c-.1 1.63-3.88 2.18-6.42 5.38-16.84 21.24-76.83 73.17-76.83 72.9l-30.87-52s97.14-34.8 101.24-45.34Z"/><path fill="#e34462" d="M217.29 370.24c-5.26 2.11-91.89 9-127.48 28.8-8.66 4.82-16 66.18-16 66.18s31.45 44.73 34.82 47 75.81-59.11 83.29-62.84 14.77-13.38 25.93-20.48 19-11 15.8-23.44c-1.97-7.66-11.11-37.34-16.36-35.22Z"/><path fill="#361e4d" d="m184.75 424-.23-1.05c15.18-3.32 24.7-22.53 24.79-22.73l1 .47c-.42.81-9.86 19.88-25.56 23.31Z"/><path fill="#e998ad" d="M272.67 383.5s-5.35 1.48-7.14 2a6.72 6.72 0 0 1-8.33-3.78c-.44-3.7 4.33-4.84 6.42-5.26l7-1.41c1.81-.37 3.7 1.12 4.28 3.34v.09c.59 2.23-.38 4.52-2.23 5.02Z"/><path fill="#e998ad" d="m276.12 374-11.07 2.24c-2.52.51-7.51-1.1-7.49-4.33 0-2.76 3.19-5.07 5.63-5.39l10.81-1.36c2-.26 4.06 1.38 4.66 3.71v.08c.62 2.37-.49 4.66-2.54 5.05Z"/><path fill="#e998ad" d="m275.55 365.39-5.35.69c-2.46.32-8.49-.94-9.43-3.25-1.87-4.59 4.92-6 7.31-6.13l5.21-.29a5.25 5.25 0 0 1 4.93 4v.08c.67 2.42-.5 4.63-2.67 4.9Z"/><path fill="#e998ad" d="m275.47 357.29-6.63.18c-2.38.08-6.54-1.12-6.31-4.3.34-4.81 4.78-5.2 7.09-5.37a37.47 37.47 0 0 0 5.13-.52c2.07-.64 5 2.21 5 5 .03 1.98-2.06 4.93-4.28 5.01Z"/></g><path fill="#282726" d="M795 535.28s-154.46 4-345 4-345-4-345-4 154.46-4 345-4 345 4 345 4Z"/><path fill="#2c2b2a" d="m695.19 153.77 1.19-15.17h-5.46a9.38 9.38 0 0 1-6.62-2.84 10.52 10.52 0 0 1-3-7.44l.35-45.71a10.08 10.08 0 0 1 9.81-10.24l68.92.24a9.38 9.38 0 0 1 6.62 2.86 10.54 10.54 0 0 1 3 7.45l-.35 45.71a10.08 10.08 0 0 1-9.81 10.24l-40-.23Zm2.07-16-1.14 14.46 23.47-14.41 40.25.22a9.27 9.27 0 0 0 9-9.43l.35-45.71a9.69 9.69 0 0 0-2.76-6.86 8.58 8.58 0 0 0-6-2.6l-68.92-.24a9.27 9.27 0 0 0-9 9.43l-.35 45.71a9.71 9.71 0 0 0 2.76 6.87 8.59 8.59 0 0 0 6.09 2.6Z"/><path fill="#e34462" d="m687.31 75.53 68.92.23a9.58 9.58 0 0 1 9.26 9.88l-.35 45.71a9.69 9.69 0 0 1-9.4 9.83L715.6 141l-24.05 14.76 1.17-14.81h-5.9a9.56 9.56 0 0 1-9.26-9.87l.35-45.71a9.69 9.69 0 0 1 9.4-9.84Z"/><path fill="#2c2b2a" d="M756.65 141.14a8.89 8.89 0 0 0 8.5-8.89v-26.74h-.51v26.74a8.38 8.38 0 0 1-8.4 8.39h-2.86v.5h3.27ZM677.65 86.34c.05-6.59 3.63-8.85 3.79-9l.26.43s-3.5 2.23-3.55 8.52Z"/><path fill="#fff" d="M704.75 120.39h-5.41V100a18.45 18.45 0 0 1-7 4.1v-4.91a15.6 15.6 0 0 0 4.6-2.62 9.93 9.93 0 0 0 3.41-4.52h4.39ZM714 120.39V115h5.41v5.41ZM724.94 120.39V115h5.41v5.41ZM753 115.36v5h-19a12.94 12.94 0 0 1 1.85-5.4 35.6 35.6 0 0 1 6.08-6.77 37.54 37.54 0 0 0 4.48-4.62 5.92 5.92 0 0 0 1.12-3.31 3.75 3.75 0 0 0-1-2.78 4.13 4.13 0 0 0-5.38 0 5.26 5.26 0 0 0-1.16 3.38l-5.39-.53q.48-4.47 3-6.41a10.11 10.11 0 0 1 6.35-2 9.18 9.18 0 0 1 6.56 2.25A7.39 7.39 0 0 1 753 99.9a9.8 9.8 0 0 1-.68 3.63 14.7 14.7 0 0 1-2.17 3.61 34.72 34.72 0 0 1-3.54 3.6q-2.57 2.36-3.25 3.12a9.21 9.21 0 0 0-1.1 1.5Z"/><path fill="#292625" d="M457.66 531.28h5.41l-29.41-221.74a2.77 2.77 0 1 0-5.5.68ZM354.15 531.28l64.14-207.16 1.33 207.16h5.5l-2.32-222.09a2.77 2.77 0 0 0-5.34-1.1l-68.58 223.19Z"/><path fill="#e998ad" d="M510.79 208.09c6.7 6.17 18.15 38.19 27.71 49.28 12.45 14.46 39.64 3.69 27.63-21.49-8-16.88-52.3-44.78-52.3-44.78s-6.45-2.46-10.72.32 5.19 14.37 7.68 16.67Z"/><path fill="#fff" d="M633.49 185.5c-7.45-8.8-21.26-6.89-31.73-2.72s-54.08 22.9-62.93 33.3c0 0-.1 37.34 29.9 49.2 0 0 53-33.92 62.12-41.48 14.41-11.95 14.55-24.21 2.64-38.3Z"/><path fill="#252724" d="M545.31 212.72v-1.46h1v1.39ZM571.58 256.65c-.83-.47-1.66-1-2.46-1.47l.51-.8c.79.49 1.6 1 2.41 1.44ZM566 253c-.76-.57-1.52-1.17-2.24-1.78l.61-.72c.71.59 1.45 1.18 2.2 1.74Zm-5.06-4.35c-.68-.67-1.35-1.36-2-2.07l.71-.63c.62.69 1.27 1.37 1.94 2Zm-4.42-5c-.58-.75-1.14-1.53-1.68-2.32l.78-.53c.53.77 1.09 1.54 1.65 2.27Zm-3.71-5.55c-.48-.82-.94-1.66-1.37-2.52l.85-.43c.43.84.88 1.67 1.34 2.48Zm-3-6c-.37-.87-.72-1.76-1.05-2.66l.89-.33c.32.89.67 1.77 1 2.62Zm-2.24-6.29c-.27-.91-.51-1.84-.74-2.76l.93-.22c.22.9.46 1.82.73 2.72Zm-1.51-6.49c-.17-.95-.31-1.9-.43-2.84l1-.11c.11.92.25 1.85.41 2.78ZM576.3 259c-.45-.2-.88-.39-1.31-.6l.4-.86 1.29.59Z"/><path fill="#e998ad" d="M645.1 156.51a5 5 0 1 0 6-3.69 5 5 0 0 0-6 3.69Z"/><path fill="#252724" d="M650.11 161.47a1.12 1.12 0 0 1-.32 0 1.28 1.28 0 0 1-.87-.62 1.24 1.24 0 0 1 .24-1.61 1.14 1.14 0 0 0 .34-1.17 4 4 0 0 0-.49-1.16 1.6 1.6 0 0 1 .41-2.44c1.36-1.09 3.11.31 3.94 1.3l-.74.61s-1.65-1.93-2.61-1.16c-.58.46-.53.57-.16 1.23a5 5 0 0 1 .58 1.4 2.07 2.07 0 0 1-.54 2c-.27.33-.26.34-.16.51a.37.37 0 0 0 .25.18 2 2 0 0 0 1.19-.38l.54.79a3.25 3.25 0 0 1-1.6.52Z"/><path fill="#e998ad" d="M625.72 156.51a5 5 0 1 1-6-3.69 5 5 0 0 1 6 3.69Z"/><path fill="#252724" d="M620.71 161.47a3.25 3.25 0 0 1-1.6-.56l.53-.79a1.93 1.93 0 0 0 1.2.38.36.36 0 0 0 .24-.18c.11-.17.12-.18-.15-.51a2.07 2.07 0 0 1-.54-2 4.76 4.76 0 0 1 .58-1.4c.37-.66.42-.77-.16-1.23-1-.78-2.6 1.14-2.62 1.16l-.73-.61c.83-1 2.58-2.39 3.94-1.3a1.6 1.6 0 0 1 .4 2.44 4.31 4.31 0 0 0-.49 1.16 1.16 1.16 0 0 0 .35 1.17 1.24 1.24 0 0 1 .24 1.61 1.28 1.28 0 0 1-.87.62 1.12 1.12 0 0 1-.32.04Z"/><path fill="#fff" d="M634.11 496.01h-23.4l-2.73-30.37h29.31l-3.18 30.37z"/><path fill="#252724" d="M634.43 496.36h-24l-2.79-31.07h30.08Zm-23.4-.7h22.77l3.11-29.66h-28.54Z"/><path fill="#292625" d="M607.76 486s6.3-1.94 11.17 4.43 8.42 1.57 10.25.83a8.32 8.32 0 0 1 6.83 0s-.38 31-2 41.55h-71.59s-1.46-7.2 5.07-10.53 34.5-11.17 38.84-18.18 1.43-18.1 1.43-18.1Z"/><path fill="#252724" d="m621.87 527.73-1-.1c1.46-13.9 14.46-18.45 14.59-18.5l.3.91c-.07.04-12.5 4.41-13.89 17.69Z"/><path fill="#252724" d="M634.74 526.2c-.2 2.58-.42 4.84-.68 6.56h-71.64a11 11 0 0 1 1-6.56Z"/><path fill="#fff" d="m598.57 516.63-8.26-2.34.26-.92 8 2.28c1.4-.27 15.93-3.23 18-9.27 2.18-6.39-1.37-15.08-1.41-15.17l.88-.36c.15.36 3.73 9.1 1.43 15.84s-18.14 9.8-18.82 9.92Z"/><path fill="#252724" d="M602.6 506.8h.95v7.65h-.95z" transform="rotate(-70.42 603.133 510.626)"/><path fill="#252724" d="M609.23 502.3h.95v7.65h-.95z" transform="rotate(-70.44 609.699 506.123)"/><path fill="#fff" d="M662.11 496.01h23.4l2.73-30.37h-29.31l3.18 30.37z"/><path fill="#252724" d="M685.83 496.36h-24l-3.26-31.07h30.08Zm-23.4-.7h22.76l2.67-29.66h-28.54Z"/><path fill="#292625" d="M688.46 486s-6.29-1.94-11.16 4.43-8.42 1.57-10.26.83a8.32 8.32 0 0 0-6.83 0s.39 31 1.95 41.55h71.64s1.46-7.2-5.07-10.53-34.5-11.17-38.83-18.18-1.44-18.1-1.44-18.1Z"/><path fill="#fff" d="M674.36 527.73c-1.4-13.3-13.82-17.65-14-17.69l.31-.91c.13.05 13.13 4.6 14.58 18.5Z"/><path fill="#252724" d="M661.49 526.2c.19 2.58.42 4.84.67 6.56h71.64a11 11 0 0 0-1-6.56Z"/><path fill="#fff" d="M697.65 516.63h-.11c-.67-.12-16.49-3.08-18.82-9.92s1.28-15.48 1.43-15.84l.88.36c0 .09-3.59 8.78-1.41 15.17 2.06 6 16.59 9 18 9.27l8-2.28.26.92Z"/><path fill="#252724" d="M689.32 510.15h7.65v.95h-7.65z" transform="rotate(-19.55 693.05 510.578)"/><path fill="#252724" d="M682.69 505.65h7.65v.95h-7.65z" transform="rotate(-19.55 686.611 506.152)"/><path fill="#e34462" d="M637.8 246.57s19.82 194.43 7.39 277.16c0 0-19.9-3.55-25.85-9.45-9.71-9.63-30.21-.19-30.21-.19-13.68-.65 1-22.61 2.72-31.19s-4.61-15.47-1.37-40.12-15.19-106.4-8.73-148.19 12.48-45.87 12.48-45.87Z"/><path fill="#e34462" d="M654.06 522.51c-13.84-20.14-31.75-160.21-29.58-263.93l53.94.37s22.21 158.94 17 171.52 9.34 46 12.73 66.16c1.73 10.29 2.56 19.15-4.62 16-8.04-3.43-20.53 9.88-49.47 9.88Z"/><path fill="#4b8ba3" d="M639.94 284.56c-16.85 0-36.83-2.06-56.58-8.94l3.13-9c45.43 15.84 93.89 4.24 94.38 4.12l2.27 9.24a195.33 195.33 0 0 1-43.2 4.58Z"/><path fill="#fff" d="M618.25 178.25h38.48c7.95 0 20 7.11 20.95 32.5.67 18.32 14 68.67 2.4 60.65 0 0-51.94 8.62-93.37-4.94-10.84 8.2 2.5-34.06 8.5-63.34 3.21-15.68 15.52-24.87 23.04-24.87Z"/><path fill="#252724" d="M639.93 275c-30.3 0-50.2-7.28-50.42-7.36l.33-.89c.25.09 25.44 9.29 62.33 6.9l.06.95c-4.23.24-8.37.4-12.3.4ZM682.25 272.73a4.45 4.45 0 0 1-2.44-.94l.54-.78c1.11.76 2 1 2.54.59 3.34-2.13.35-20.05-2.29-35.86-1.63-9.76-3.18-19-3.39-25h.95c.21 5.92 1.75 15.11 3.38 24.85 3.46 20.75 5.46 34.52 1.86 36.82a2.1 2.1 0 0 1-1.15.32Z"/><path fill="#fff" d="m635.71 186.94-7.8 4.76s-6.74-8.64-2.58-13.15c3.57-3.87 16.8-4 20.21 0 2.12 2.52 2.23 10.1-1.52 13.1Z"/><path fill="#e998ad" d="M627.55 168.56V182c1 1.49 8.19 4.13 8.19 4.13s5.49-1.52 7.6-4.17v-19.34a143.22 143.22 0 0 1-15.79 5.94Z"/><path fill="#c46092" d="M630.61 176.88c-1-1-2-4.75-3.06-5.1v-3.22a143.22 143.22 0 0 0 15.79-5.94v11c-.74.59-2 3.88-3.54 5-2.61 1.89-6.03 1.38-9.19-1.74Z"/><path fill="#fff" d="M636.58 313.58a43.05 43.05 0 0 0-23.46-2.84l-.17-.94a44 44 0 0 1 24 2.92Z"/><path fill="#fff" d="M632.56 310.09h.95v149.83h-.95z" transform="rotate(-6.41 632.945 384.951)"/><path fill="#fff" d="M616.72 482.22c-13.6-5.17-19.25-21.85-19.31-22l.91-.3c0 .16 5.57 16.42 18.74 21.43ZM674 500.81h-.13v-.95c.17 0 17.47.21 26.58-10.46l.73.62c-8.94 10.52-25.52 10.79-27.18 10.79ZM676.92 479.5l-.74-.6c.2-.25 20.15-25.64 11.16-59.95l.92-.24c9.12 34.79-11.14 60.53-11.34 60.79Z"/><path fill="#e998ad" d="M622.24 154c-1.09-7.6.84-11.51 8.31-14 8-2.71 15 .75 17.74 8.74a19 19 0 0 1 .38 9.06l-.78 9a7.12 7.12 0 0 1-2.54 3.77l-5.91 4.51a5.07 5.07 0 0 1-3.07 1h-2.09a5.1 5.1 0 0 1-3.12-1.07l-5.69-4.48a7.06 7.06 0 0 1-2.46-3.71s-.45-10.55-.77-12.82Z"/><path fill="#252724" d="M643.81 143.64a48.88 48.88 0 0 1-18.78 0c-.83.07-1.27 5-1.45 7.29a43.14 43.14 0 0 1-1.58 6.67s-3.57-13.66-2.27-16.51 9.13-7.71 10.49-10.05 3.67-4.09 4-2.8a8.34 8.34 0 0 1 .13 2.55s1.87-1.9 3.37 0 9.3 4.43 11.17 7 2.28 9.1 2.22 11.3-3 6.63-3 6.63-2.33-8.54-2.53-9.69c-.31-1.97.03-2.75-1.77-2.39Z"/><path fill="#366274" d="M619.26 177.14a30.2 30.2 0 0 0-6.06 10.62 57 57 0 0 0-2.76 11.64c-.56 4-.68 7.83-1.09 12.29-.43 4.3-1.12 8.52-1.87 12.69-1.54 8.33-3.55 16.42-5.11 24.46a87.42 87.42 0 0 0-1.63 12 24.32 24.32 0 0 0 1.88 12 15.35 15.35 0 0 1-4-5.23 27.17 27.17 0 0 1-2.09-6.37 55.61 55.61 0 0 1-.86-13.15 180.58 180.58 0 0 1 3.38-25.28l1.15-6.13c.41-2 .74-4.06 1.1-6.08a103.53 103.53 0 0 1 2.58-12.66 44 44 0 0 1 5.58-12.11 31.89 31.89 0 0 1 4.31-5.09 17.31 17.31 0 0 1 5.49-3.6ZM649.79 176.87a17.39 17.39 0 0 1 5.39 3.93 34.16 34.16 0 0 1 4.12 5.37 49.34 49.34 0 0 1 5.26 12.44l.79 3.28c.28 1.09.41 2.2.62 3.3l.28 1.65c.1.55.17 1 .24 1.57.14 1 .32 2.06.48 3.09.36 2.06.67 4.13 1.06 6.21l1.08 6.27a191.31 191.31 0 0 1 3.1 25.75 61.86 61.86 0 0 1-.89 13.33 29.13 29.13 0 0 1-2 6.48 16.16 16.16 0 0 1-3.84 5.47c1.7-4 1.87-8.17 1.65-12.28a102 102 0 0 0-1.61-12.31c-1.5-8.23-3.4-16.51-4.84-25-.71-4.25-1.34-8.55-1.74-12.91-.08-1.1-.18-2.19-.25-3.29l-.19-3.17c-.09-2.05-.31-4.08-.51-6.12a69.36 69.36 0 0 0-2.47-12c-1.3-3.86-2.86-7.78-5.73-11.06Z"/><path fill="#252724" d="m638.88 274-.92-.23c2.37-9.4 3-33.83 1.2-45.06-1.87-11.52-2.23-40.61-2.23-40.9h1c0 .29.36 29.31 2.22 40.75s1.18 35.71-1.27 45.44ZM633 274c-1.47-2.84-1.29-5.17-1-8.41.11-1.42.24-3 .24-5h.95c0 2-.13 3.61-.24 5.06-.24 3.19-.4 5.29.94 7.89ZM633.58 246l-.94-.14a41.15 41.15 0 0 0 .16-10.17c-.29-3-.44-6.2-.46-9.53h.95c0 3.3.17 6.48.46 9.44a42 42 0 0 1-.17 10.4ZM632.14 218.5c-.25-17 .86-30.65.87-30.79l1 .08c0 .14-1.12 13.73-.87 30.7Z"/><path fill="#f0e3dd" d="M634.73 263.45a1.19 1.19 0 1 0 1.19-1.18 1.18 1.18 0 0 0-1.19 1.18ZM634.73 242.27a1.19 1.19 0 1 0 1.19-1.18 1.18 1.18 0 0 0-1.19 1.18ZM634.73 221.1a1.19 1.19 0 1 0 1.19-1.19 1.18 1.18 0 0 0-1.19 1.19ZM634.26 199.92a1.19 1.19 0 1 0 1.18-1.18 1.18 1.18 0 0 0-1.18 1.18Z"/><path fill="#252724" d="M635.47 161c-.52-.14-3.1-.9-3.5-2.12a1.15 1.15 0 0 1 .22-1.11c2.13-2.68 1.4-6.42 1.39-6.46l.93-.19a9.57 9.57 0 0 1-1.57 7.25c-.1.12-.08.18-.07.21.16.49 1.6 1.16 2.85 1.5ZM643.13 152.13c-3.32-2.23-5.69-.27-5.71-.25l-.62-.73s3-2.44 6.86.19ZM638.93 154.07a1.17 1.17 0 0 1-.06-.2 1.33 1.33 0 1 1 2.47.41 8.87 8.87 0 0 0-2.41-.21ZM626.18 152.3l-.72-.62s2.55-2.85 6.81-.83l-.41.86c-3.61-1.71-5.66.57-5.68.59ZM628 154.25l-.09-.19a1.33 1.33 0 0 1 2.53-.83 1.3 1.3 0 0 1 0 .87 8.92 8.92 0 0 0-2.44.15Z"/><path fill="#fff" d="M608.34 270.41s2.56 7.3 9.78 6.89 6.78-6.3 6.78-6.3ZM641.61 273.45s1.83 4.52 12.62 3.7 9.84-6.14 9.84-6.14Z"/><path fill="#252724" d="m588.38 234.51-.92-.25c2.64-9.75 7.92-34.35 8-34.6l.93.2c-.08.25-5.39 24.87-8.01 34.65Z"/><path fill="#fff" d="m618.16 398.7-.65-.7c9.48-8.83 9.24-54.27 9.23-54.73h1c-.03 1.88.2 46.32-9.58 55.43Z"/><path fill="#252724" d="m629.99 166.8-.11-.95 9.36-1.09.11.94-9.36 1.1zM634.99 174.73h.95v1.62h-.95z"/><path fill="#e998ad" d="M507.65 204.5s-5.2 2.51-15.58-4c0 0 3.29-10.6 5.41-15.21s2.58-5.38 2.58-5.38 6.53.11 9.79 3.88a9.9 9.9 0 0 1 2 8.92c-.22.48-2.83 7.16-2.83 7.16Z"/><path fill="#e998ad" d="M513.83 191.1a8.24 8.24 0 0 0-1-9.42c-3.91-4.74-5.32-6.92-6.25-10.88s-6.46.54-2.76 9.66 3.24 12.39 10.01 10.64Z"/><path fill="#331b0a" d="m513.93 191.15-.19-.11a8.21 8.21 0 0 0-1-9.29l.17-.14a8.4 8.4 0 0 1 1.02 9.54ZM504.19 180.58a8.15 8.15 0 0 0 1.25.38 6.19 6.19 0 0 0 1.28.14 4.11 4.11 0 0 0 1.26-.21l.3-.12.29-.15.14-.08.14-.09.27-.19a3.05 3.05 0 0 1-1.08.79 3.45 3.45 0 0 1-1.31.27 5 5 0 0 1-1.33-.19 4.74 4.74 0 0 1-1.21-.55Z"/><path fill="#292625" d="m487.89 208.48 14.78-60.43a2.62 2.62 0 0 1 3.18-1.93 2.62 2.62 0 0 1 1.93 3.17L493 209.73a2.64 2.64 0 0 1-3.18 1.93 2.63 2.63 0 0 1-1.93-3.18Z"/><rect width="5.28" height="16.82" x="503.04" y="138.42" fill="#366274" rx="1.4" transform="rotate(-76.25 505.683 146.827)"/><path fill="#292625" d="m533 131.16-2.9-.71-5.54 22.63 2.9.71c1 .25 3.12-4.61 4.65-10.85s1.96-11.52.89-11.78Z"/><path fill="#366274" d="M525.48 141.3c-1.53 6.25-1.93 11.52-.89 11.78s3.12-4.61 4.65-10.85 1.93-11.52.89-11.78-3.13 4.61-4.65 10.85Z"/><path fill="#4b8ba3" d="m528.51 131.55-35.35-8.65-4.77 19.39 35.35 8.65c.89.22 2.67-4 4-9.3s1.66-9.87.77-10.09Z"/><path fill="#292625" d="m493.22 121.18-2.9-.71-5.53 22.63 2.9.71c1 .25 3.12-4.61 4.65-10.86s1.92-11.52.88-11.77Z"/><path fill="#366274" d="M485.67 131.32c-1.53 6.25-1.92 11.52-.88 11.78s3.12-4.61 4.65-10.86 1.92-11.52.88-11.77-3.12 4.6-4.65 10.85Z"/><path fill="#e998ad" d="M491 178.46s-3.68-3.16 2-6.36 8.52.13 7.57 2-1.44 3.17-5 3.46c0 0 2.91 1.13 2.15 3.4a5.31 5.31 0 0 1-3 3.07s2.8.47 3 1.68-1.46 3.83-4.52 4.35c0 0 2.81 1.49.25 4.26s-2.88 1.58-2.88 1.58l-.87 4.33s-5.21-3-1.79-9.11c0 0-2.89-3.5 1.86-5.92 0 .01-4.41-4.39 1.23-6.74Z"/><path fill="#421f3b" d="M494.54 184.05a6 6 0 0 0-2.35 0 5.55 5.55 0 0 0-1.14.34 4.34 4.34 0 0 0-1 .6 8.92 8.92 0 0 1 1.08-.42 7.34 7.34 0 0 1 1.12-.28c.38-.07.76-.12 1.15-.16s.75-.07 1.14-.08ZM492.87 190a6 6 0 0 0-2.36 0 5.46 5.46 0 0 0-1.13.34 4.34 4.34 0 0 0-1 .6 8.92 8.92 0 0 1 1.08-.42 7.34 7.34 0 0 1 1.12-.28c.37-.07.76-.12 1.14-.16s.75-.08 1.15-.08ZM495.59 177.57a5.81 5.81 0 0 0-2.35 0 5.71 5.71 0 0 0-1.14.33 4.38 4.38 0 0 0-1 .61 7.7 7.7 0 0 1 1.09-.43 8.19 8.19 0 0 1 1.11-.28c.38-.07.76-.12 1.15-.16s.75-.07 1.14-.07Z"/><path fill="#292625" d="M341.87 227.97h153.25v167.75H341.87z"/><path fill="#4b8ba3" d="M338.61 228.4h152.37v166.87H338.61z"/><path fill="#fff" d="M346.54 237.16h136.52v149.35H346.54z"/><path fill="#292625" d="M482.62 314.15v71.93H347v-31l15-16.69a4.86 4.86 0 0 1 7.16-.12l29.41 30.43a4.9 4.9 0 0 0 7.12-.08l60.49-66a5 5 0 0 1 7.45.26Z"/><path fill="#dc4661" d="M396.82 268.44a17.93 17.93 0 1 0-17.93 17.93 17.92 17.92 0 0 0 17.93-17.93Z"/><path fill="#366274" d="m580.88 258.75-15-22.32a6.13 6.13 0 0 1 2.86-9.13l42.74-16.67 1.11 2.85-42.74 16.67a3.05 3.05 0 0 0-1.43 4.57l15 22.32Z"/><path fill="#292625" d="M580.87 228.28a4.08 4.08 0 0 1-1.49-7.88l31.15-12.14a4.08 4.08 0 1 1 3 7.6L582.35 228a3.88 3.88 0 0 1-1.48.28ZM537.35 253.61v4.41l7.93 12.43 3.7-13.64-11.63-3.2z"/><path fill="#292625" d="M689.99 338.07H573.52l-36.17-84.46h116.47l36.17 84.46z"/><path fill="#366274" d="m572.09 337.53-33.93-78.97h112.31l33.92 78.97h-112.3z"/><path fill="#292625" d="M634.4 523.85h35.79v8.26H634.4zM630.39 307.05l-7.61-11.21v230.88h7.61V307.05z"/><path fill="#4b8ba3" d="M593.41 296.47h29.37V526.1h-29.37z"/><path fill="#366274" d="M541.05 523.85H644.5v8.26H541.05z"/><path fill="#e998ad" d="M653.86 310c1.5 2 8.52-4.47 15.41-2.32s5.4-1.48 10.72-5 6.72-5.75 6.68-10.31-.83-4.54 1.42-7.09c6-6.82 37.79-19 48.68-28.76 14.18-12.76 2.82-39.71-22.09-27.16-16.7 8.41-42.76 54.77-42.76 54.77s-3.2 5-.33 9.19-1 7.72-5.25 6.27c-2.49-.85-3.72-5.42-5.24-3.46s.91 6.29.91 6.29-9.58 5.66-8.15 7.58Z"/><path fill="#fff" d="M662.08 178c10.19 4.82 68.37 28.93 76.56 39.87 0 0-2.25 37.26-32.93 47.23 0 0-18.94-13.23-27.56-21.34-5.27-5-4.24-17.5-7.95-29.66-5.9-19.31-14.38-39.03-8.12-36.1Z"/><path fill="#361e4d" d="m732.38 214.12-.94-.1c.09-.89.12-1.38.12-1.39h1s-.08.56-.18 1.49ZM703.4 256.32l-.41-.86c.85-.41 1.69-.84 2.5-1.29l.46.84c-.83.45-1.69.89-2.55 1.31Zm5.82-3.28-.52-.79c.78-.51 1.55-1.05 2.3-1.61l.57.77c-.76.59-1.57 1.11-2.35 1.59Zm5.32-4-.62-.72c.71-.61 1.4-1.25 2.06-1.9l.67.68c-.65.64-1.39 1.29-2.11 1.9Zm4.73-4.72-.71-.62c.61-.7 1.21-1.43 1.78-2.17l.75.59c-.58.73-1.2 1.47-1.82 2.18Zm4.05-5.3-.79-.53c.51-.77 1-1.57 1.49-2.38l.82.48c-.48.8-1 1.62-1.52 2.41Zm3.34-5.78-.85-.43c.42-.83.82-1.69 1.19-2.55l.87.38c-.38.86-.79 1.73-1.21 2.58Zm2.63-6.14-.9-.32c.32-.88.62-1.78.9-2.67l.91.28c-.28.88-.59 1.8-.91 2.69Zm1.92-6.39-.93-.22c.22-.92.42-1.84.59-2.75l.94.17c-.18.91-.38 1.85-.6 2.78ZM698.55 258.37l-.33-.89 1.32-.51.35.89Z"/><path fill="#292625" d="M374.27 390.54h88.44v29.34h-88.44z"/><path fill="#e16618" d="M370.58 390.54h88.44v29.34h-88.44z"/><path fill="#fff" d="M379.13 397.78h39.78v2.25h-39.78zM379.13 404.19h19.89v2.25h-19.89zM404.72 404.19h19.89v2.25h-19.89zM430.58 404.19h19.89v2.25h-19.89zM422.77 397.78h27.7v2.25h-27.7zM410.69 410.39h39.78v2.25h-39.78zM379.13 410.39h27.7v2.25h-27.7z"/></g></svg>